<?xml version="1.0" encoding="UTF-8" standalone="no"?>
<!-- Created with Inkscape (http://www.inkscape.org/) -->

<svg
   xmlns:dc="http://purl.org/dc/elements/1.1/"
   xmlns:cc="http://creativecommons.org/ns#"
   xmlns:rdf="http://www.w3.org/1999/02/22-rdf-syntax-ns#"
   xmlns:svg="http://www.w3.org/2000/svg"
   xmlns="http://www.w3.org/2000/svg"
   xmlns:sodipodi="http://sodipodi.sourceforge.net/DTD/sodipodi-0.dtd"
   xmlns:inkscape="http://www.inkscape.org/namespaces/inkscape"
   id="svg2"
   version="1.1"
   inkscape:version="0.91 r13725"
   width="765"
   height="990"
   xml:space="preserve"
   sodipodi:docname="makerspace.svg"><metadata
     id="metadata8"><rdf:RDF><cc:Work
         rdf:about=""><dc:format>image/svg+xml</dc:format><dc:type
           rdf:resource="http://purl.org/dc/dcmitype/StillImage" /><dc:title /></cc:Work></rdf:RDF></metadata><defs
     id="defs6"><inkscape:path-effect
       effect="envelope"
       id="path-effect3425"
       is_visible="true"
       yy="true"
       xx="true"
       bendpath1="m 56.96366,390.5506 341.06335,0"
       bendpath2="m 398.02701,390.5506 0,58.48832"
       bendpath3="M 56.370409,432.4279 C 177.77045,487.67584 315.78151,464.41074 398.02701,431.83465"
       bendpath4="m 56.96366,390.5506 0,58.48832"
       bendpath3-nodetypes="cc" /><inkscape:path-effect
       effect="envelope"
       id="path-effect3404"
       is_visible="true"
       yy="true"
       xx="true"
       bendpath1="m 56.141264,458.2998 339.538506,0"
       bendpath2="m 395.67977,458.2998 0,48.22288"
       bendpath3="M 54.954763,525.5067 C 131.88917,491.88395 332.44391,492.94767 398.64602,524.3202"
       bendpath4="m 56.141264,458.2998 0,48.22288"
       bendpath3-nodetypes="cc" /><inkscape:path-effect
       effect="bend_path"
       id="path-effect7080"
       is_visible="true"
       bendpath="m 45.810272,318.43388 340.377488,0"
       prop_scale="1"
       scale_y_rel="false"
       vertical="false" /><clipPath
       clipPathUnits="userSpaceOnUse"
       id="clipPath18"><path
         d="M 0,792 612,792 612,0 0,0 0,792 z"
         id="path20" /></clipPath></defs><sodipodi:namedview
     pagecolor="#ffffff"
     bordercolor="#666666"
     borderopacity="1"
     objecttolerance="10"
     gridtolerance="10"
     guidetolerance="10"
     inkscape:pageopacity="0"
     inkscape:pageshadow="2"
     inkscape:window-width="1215"
     inkscape:window-height="1000"
     id="namedview4"
     showgrid="false"
     inkscape:zoom="1.3485027"
     inkscape:cx="340.25369"
     inkscape:cy="411.01409"
     inkscape:window-x="65"
     inkscape:window-y="24"
     inkscape:window-maximized="1"
     inkscape:current-layer="g3407" /><g
     id="g10"
     inkscape:groupmode="layer"
     inkscape:label="Kamloops_spec"
     transform="matrix(1.25,0,0,-1.25,0,990)"><g
       id="g14"><g
         id="g16"
         clip-path="url(#clipPath18)"><g
           id="g3336"
           transform="translate(227.30375,495.40312)"><path
             d="M 0,0 C -0.079,0.019 -0.154,0.044 -0.219,0.082 -0.216,0.031 -0.237,0.007 -0.243,-0.033 L 0,0 Z"
             style="fill:#1f242d;fill-opacity:1;fill-rule:nonzero;stroke:none"
             id="path3338"
             inkscape:connector-curvature="0" /></g><g
           transform="translate(-0.31308199,-26.257778)"
           id="g3407"><path
             style="stroke:none"
             d="m 56.96366,420.0638 0,28.97512 7.119008,-1.21368 7.119007,-1.21368 0.480014,-24.34756 10.044011,21.03074 13.083056,-2.06231 -9.369064,-21.05768 c 0,0 7.243516,-19.47586 11.204464,-29.08607 l -16.481717,0.0414 -8.668893,23.59448 0.449689,-23.37527 C 66.6264,390.92216 62.955932,391.13921 56.96366,391.08867 l 0,28.97512 z"
             id="path3409"
             inkscape:connector-curvature="0"
             sodipodi:nodetypes="ccccccccccccccc" /><path
             style="stroke:none"
             d="m 99.897876,391.06882 5.668914,21.67351 c 0,0 7.29073,26.63252 7.71463,27.12736 0.20311,0.2371 4.00886,4e-5 8.45724,-0.52678 l 8.08795,-0.95787 c 5.16236,-16.57769 9.61228,-30.7912 14.77392,-47.29636 l -7.26635,0 -7.26634,0 -1.4552,7.71226 -14.02166,0 -1.64507,-7.71226 z m 26.253564,19.44882 c 0,0 -1.16938,4.71168 -2.22888,9.20151 -1.05951,4.48984 -2.12626,7.96035 -2.37057,7.71226 -0.46965,-0.47691 -4.66814,-16.76545 -4.66814,-16.76545 z"
             id="path3411"
             inkscape:connector-curvature="0"
             sodipodi:nodetypes="ccsscccccccccsscc" /><path
             style="stroke:none"
             d="m 149.51076,413.78951 0,22.70084 6.97068,-0.50911 c 3.83389,-0.28001 7.14896,-0.6845 7.36682,-0.89887 0.34693,-0.34137 4.0243,-9.91416 8.18309,-21.30186 1.79386,-4.912 3.03375,-4.98975 4.73035,-0.29662 0.67824,1.87616 2.76638,7.36878 4.64031,12.20585 l 3.40715,8.79465 2.07638,-0.33431 c 1.14201,-0.18386 4.4123,-0.33724 7.26732,-0.34082 l 5.19094,-0.006 0,-21.35702 0,-21.35702 c -3.75725,0 -7.51451,0 -11.27176,0 l 0,10.01607 c 0,9.42194 -0.0684,10.03396 -1.1536,10.31774 -0.98642,0.25796 -1.42125,-0.44132 -3.00043,-4.82512 -1.89386,-5.25737 -3.71602,-10.31458 -5.6043,-15.5553 l -8.22471,0.0466 c -2.17153,6.75136 -5.16588,13.26261 -7.14647,20.07504 -0.22305,0.81986 -0.54159,1.25066 -1.28169,0.83648 -0.86296,-0.48293 -0.97525,-1.81152 -0.90708,-10.73134 l 0.0778,-10.18017 c -3.77361,0 -7.54721,0 -11.32082,0 l 0,22.70083 z"
             id="path3413"
             inkscape:connector-curvature="0"
             sodipodi:nodetypes="ccssssscscccccscccccsscccc" /><path
             style="stroke:none"
             d="m 204.68306,412.14908 0,21.06039 6.52575,0 6.52576,0 0,-16.01776 0,-16.01776 8.30551,0 8.30551,0 0,-5.04264 0,-5.04263 -14.83127,0 -14.83126,0 0,21.0604 z"
             id="path3415"
             inkscape:connector-curvature="0" /><path
             style="stroke:none"
             d="m 249.778,391.44813 c -5.22828,1.40482 -8.2206,3.69825 -10.39336,7.96583 -2.0212,3.96991 -2.89207,9.32679 -2.48682,15.29707 0.48352,7.12348 1.75528,10.42508 5.43191,14.10171 4.2068,4.2068 7.48736,5.26649 16.33913,5.27785 5.87596,0.007 7.23285,-0.18043 9.78125,-1.35503 1.62737,-0.75009 3.58928,-1.95142 4.35979,-2.66963 3.77377,-3.51762 5.8415,-11.44748 5.23029,-20.05838 -0.61091,-8.60658 -3.61951,-14.56374 -8.63665,-17.10097 -4.82152,-2.43831 -13.56162,-3.08783 -19.62554,-1.45845 z m 12.22203,10.38322 c 2.17234,2.0408 2.76385,4.95536 2.51012,12.36828 -0.22792,6.65885 -0.23131,6.67206 -2.15427,8.39022 -3.84632,3.43669 -10.12348,1.71281 -11.42993,-3.13898 -0.93035,-3.45508 -0.49193,-14.57035 0.64765,-16.4195 1.95334,-3.16963 7.63394,-3.82343 10.42643,-1.20002 z"
             id="path3417"
             inkscape:connector-curvature="0" /><path
             style="stroke:none"
             d="m 293.96728,391.29251 c -4.22424,1.09644 -6.40245,2.37984 -8.80702,5.18904 -2.91445,3.40487 -4.01898,6.9408 -4.3838,14.03369 -0.86937,16.90254 5.70426,25.19845 20.68264,26.10148 6.80863,0.41048 9.93366,-0.13283 13.19709,-2.29444 5.54261,-3.67128 8.10616,-12.8877 6.8783,-24.72881 -1.35108,-13.02936 -6.82484,-18.47955 -18.96509,-18.8834 -3.33248,-0.11086 -6.84819,0.12718 -8.60212,0.58244 z m 10.06491,10.13132 c 3.07085,1.28308 4.0362,3.73371 4.34173,11.02188 0.42336,10.09891 -1.19885,13.64476 -6.24246,13.64476 -3.44429,0 -5.99223,-1.40611 -7.02442,-3.87648 -1.42208,-3.8011 -2.47064,-18.14731 2.91139,-20.76848 2.41957,-1.0525 3.53701,-1.05652 6.01376,-0.0217 z"
             id="path3419"
             inkscape:connector-curvature="0"
             sodipodi:nodetypes="sssssssscsscccc" /><path
             style="stroke:none"
             d="m 324.97665,403.24678 c -0.14808,11.22816 0.4631,34.64002 0.91613,35.09305 0.10773,0.10772 5.11537,0.71632 11.12808,1.35244 10.94926,1.15838 13.36846,1.08604 17.79906,-0.53217 4.01553,-1.46663 6.48129,-7.11088 6.48129,-14.83599 0,-11.75632 -5.02117,-17.10141 -17.45359,-18.57957 -3.68756,-0.43843 -5.68318,-0.20889 -5.68318,-0.20889 l 0,-8.51447 0,-5.93251 -6.51372,0 -6.51372,0 -0.16035,12.1581 z m 21.00085,12.82824 c 1.50066,0.77909 2.43535,4.39214 2.15149,8.31653 -0.35823,4.95259 -1.05824,5.47434 -7.14661,5.32674 l -2.81794,-0.0683 0,-7.45832 0,-7.45832 3.4112,0.41368 c 1.87615,0.22752 3.85699,0.64513 4.40186,0.92801 z"
             id="path3421"
             inkscape:connector-curvature="0"
             sodipodi:nodetypes="ccssssccccccccsscccscc" /><path
             style="stroke:none"
             d="m 373.40751,391.07378 c -4.26404,0.9035 -6.86751,3.64813 -6.86751,3.64813 l 1.35184,10.44064 3.67538,-1.51892 c 2.67006,-1.10345 4.7847,-1.52724 7.73096,-1.54937 3.56587,-0.0268 4.19267,0.13865 5.19094,1.37007 0.62445,0.7703 1.13537,2.29918 1.13537,3.39751 0,2.41548 -0.83644,3.03833 -7.48069,5.5704 -5.69448,2.17014 -9.20336,4.96779 -10.59596,8.44823 -1.16313,2.90696 -1.3377,9.12094 -0.3584,12.75778 1.58572,5.88893 6.95588,11.03534 13.61552,13.04824 3.34899,1.01225 14.37572,1.4853 15.21017,0.65254 0.34414,-0.34345 -0.65317,-12.32773 -1.05617,-12.69162 -0.0765,-0.069 -1.87434,0.24338 -3.99521,0.69436 -4.60567,0.97932 -9.32558,0.28368 -11.05711,-1.62964 -0.60749,-0.67127 -1.02056,-1.25921 -0.91792,-1.30653 0.10263,-0.0473 -0.009,-0.59508 -0.24749,-1.21725 -0.91148,-2.37528 0.96027,-4.06939 6.89649,-6.24197 9.7411,-3.56512 12.89378,-8.08975 12.3254,-17.68905 -0.44627,-7.53682 -3.50263,-12.48226 -9.37238,-15.16523 -2.99114,-1.36721 -11.00128,-1.90445 -15.18323,-1.01835 z"
             id="path3423"
             inkscape:connector-curvature="0"
             sodipodi:nodetypes="cccssssssssscssccssscc" /></g><path
           d="m 370.76873,339.00655 25.2308,0 0,-10.94921 -14.79769,0 0.27797,-7.3788 12.13937,-0.26641 0,-9.49261 -12.3774,0 0,-8.09288 15.70973,0 0,-10.9492 -26.18287,0 z m -18.46271,-0.2526 c -4.3972,-0.81195 -8.99027,-2.45401 -10.02969,-6.97657 -1.96134,-11.72814 -2.11116,-22.22403 0.29688,-32.81405 0.93212,-4.05569 4.48718,-5.92856 8.59531,-6.73751 4.3195,-0.49105 7.53661,-0.64604 13.61843,0.13282 l -0.73906,10.17187 c 0,0 -0.0409,-0.004 -0.0422,-0.005 l 0,0.003 c -2.80625,-0.34521 -6.68562,-0.58009 -9.15622,0.25128 -2.91218,1.8264 -3.23594,3.09473 -3.23594,12.66094 0,9.5653 0.35496,10.96149 3.15781,12.41093 3.15688,1.15204 6.49614,0.5806 9.57388,0.35782 l 0.73907,10.17031 c -4.40762,0.83166 -8.38107,1.18611 -12.77827,0.37416 z m -50.71321,-46.87781 11.21703,47.18721 13.56717,-0.0568 c 4.00832,-15.66394 7.76705,-31.3885 11.54411,-47.10918 l -11.63839,-0.0785 -1.25808,7.67543 -11.38214,-0.15054 -1.84199,-7.52301 -10.2076,0.0555 z m 21.57068,18.63221 -3.26339,16.79944 -4.35346,-16.83689 7.61685,0.0373 z m -50.09866,28.58138 c 0,0 16.35764,1.30647 22.01617,-1.43403 5.13676,-2.52969 7.22665,-6.44662 7.24739,-13.97578 0.0207,-7.52916 -1.87531,-11.68569 -5.34447,-14.89601 -3.46916,-3.21032 -13.44594,-3.23298 -13.44594,-3.23298 l 0,-13.67349 -10.47315,0 z m 17.36689,-22.89248 c 0.73565,0.71708 0.98341,1.71827 1.12651,4.55209 0.32952,6.52516 -0.85981,8.26011 -5.66236,8.26011 l -2.35789,0 c 0.19262,-4.62497 -0.36365,-9.46771 0.35707,-14.00409 0.65912,-0.65952 5.5527,0.23302 6.53667,1.19189 z m -46.97966,-22.50858 c -0.38081,0.3808 0.37003,9.97486 0.82013,10.47906 4.727,-1.68589 14.22748,-4.95574 14.51106,0.71809 0,2.04884 -1.16596,3.09957 -5.78559,5.21379 -7.24626,3.31635 -10.08464,7.44923 -10.04446,14.62538 0.0389,6.91896 2.65443,11.66554 7.70392,13.97996 2.94301,1.34891 10.49507,1.41166 14.24658,0.11844 l 2.55003,-0.87913 c -0.17918,-2.15374 -0.68776,-10.56461 -1.94521,-10.08638 -0.42613,0.1836 -2.18088,0.76325 -3.8995,1.28828 -5.24792,1.60332 -8.53857,0.29498 -8.53857,-3.39526 0,-2.26877 0.48142,-2.70931 5.95068,-5.44537 7.34714,-3.67551 9.38209,-6.47068 9.67443,-13.28883 0.29433,-6.86368 -1.8133,-11.30274 -6.61683,-13.93653 -2.33197,-1.27865 -3.06483,-1.42822 -7.5801,-1.54692 -3.99318,0.11503 -7.59641,0.1749 -11.04657,2.15542 z m -36.08248,21.78776 0,23.59906 9.87811,-0.1544 c 9.13059,-0.14251 10.06299,-0.23783 12.32138,-1.25912 4.89141,-2.21204 6.91315,-5.84835 7.22284,-12.99093 0.28213,-6.50811 -0.61516,-9.36614 -4.00538,-12.75751 l -2.57527,-2.57615 c 2.46148,-5.79559 8.10174,-17.43274 8.10174,-17.43274 0,0 -7.33093,-0.0274 -11.80985,-0.0274 l -8.26294,18.85263 -0.3975,-18.85263 -10.47313,0 0,23.59907 z m 17.20413,2.06567 c 0.99228,0.80354 1.14333,1.38541 1.29063,4.9724 0.15728,3.83044 0.0972,4.13188 -1.04944,5.27871 -1.03606,1.03604 -1.64265,1.21624 -4.09419,1.21624 l -2.878,0 0,-12.37737 2.8036,0 c 2.05105,0 3.10521,0.24427 3.9274,0.91002 z m -46.71937,21.46445 25.23074,0 0,-10.94921 -14.79764,0 0.27797,-7.3788 12.13934,-0.26641 0,-9.49261 -12.37738,0 0,-8.09288 15.70975,0 0,-10.9492 -26.18291,0 z m -36.18002,-1.9e-4 11.42524,0 0.26481,-20.84015 7.6851,19.64999 11.56821,-0.0822 -8.09386,-19.95865 9.04596,-25.73096 -12.45094,0.0707 -7.7354,19.63096 -0.28407,-19.869 -11.39392,0 z m -29.75615,0.0243 13.75007,-0.11359 11.73975,-47.03951 -11.82061,0 -1.28898,7.37878 -11.42359,0 -1.3566,-7.37878 -10.6143,-0.084 c 2.8478,15.95253 7.23302,31.41685 11.01426,47.23706 z m 10.59844,-28.46826 -3.73344,17.14583 -3.96406,-16.9078 z m -65.10361,4.87955 0,23.56459 11.856545,0 c 0,0 7.340224,-26.59138 8.423808,-26.56167 0.901423,0.0247 6.623789,20.25612 8.483318,26.56167 l 11.700819,0 0,-23.56459 0,-23.56462 -9.045025,0 c 0,0 0.269543,21.60966 -0.793662,22.10114 -0.436528,0.16755 -0.934108,0.13674 -1.105708,-0.0681 -2.063661,-6.31056 -5.289961,-18.81967 -5.289961,-18.81967 l -0.943871,-3.21336 -6.512823,0 c 0,0 -3.793402,14.9277 -6.034345,22.26667 -0.07122,0.0715 -0.481658,-0.006 -0.911866,-0.17011 -0.77056,-7.49196 -0.54708,-22.00267 -0.782199,-22.09672 l -9.04503,0 0,23.56461 z"
           style="fill:#800000;stroke:none"
           id="path3402"
           inkscape:connector-curvature="0" /><path
           style="fill:#800000;stroke:none"
           d="m 373.203,556.83554 c 7.21993,0.826 17.42242,1.97143 24.42558,2.6644 0.0612,-6.35693 -0.42238,-11.89877 -0.79475,-16.534 -4.73864,0.17157 -9.6128,-0.20474 -14.40162,-0.22937 -0.15383,-3.1129 -0.26233,-5.80195 -0.28954,-8.54081 3.92565,-0.16992 8.29643,0.23625 12.18011,-0.0667 -0.15738,-3.55546 -0.55181,-6.86716 -0.40269,-9.97493 -3.98231,0.13981 -8.04139,0.0113 -12.06704,0.0571 0.0662,-2.25519 -0.40757,-5.64624 -0.36356,-7.93638 5.15093,0.0265 14.90134,-0.0106 14.90134,-0.0106 l -0.67556,-11.70535 c 0,0 -15.50173,0.007 -24.92116,0.0109 -1.32284,-6.8199 2.40884,52.26579 2.40884,52.26579 z m -18.20299,-2.43775 c -4.39444,-1.48148 -9.17683,-3.90756 -10.64202,-8.83235 -1.58844,-6.57904 -2.4129,-11.89495 -2.48233,-17.55884 -0.0693,-5.65779 0.62598,-10.52535 1.55835,-16.0897 0.70139,-4.12641 3.8549,-6.0913 7.83114,-6.96461 4.21073,-0.52385 7.41462,-0.71638 13.64837,0.15786 0.43052,3.73486 0.33323,7.33648 0.11075,10.72378 0,0 -0.0408,-0.005 -0.0421,-0.006 l 2e-5,0.003 c -2.79954,-0.38182 -6.67269,-0.66988 -9.13073,0.13873 -1.44553,0.90679 -2.243,1.67244 -2.69176,3.42006 -0.42045,1.63736 -0.59063,4.56095 -0.52249,9.30392 0.0693,4.82606 0.37068,7.83545 0.91309,9.64941 0.5587,1.86841 1.40836,2.67854 2.85702,3.53427 3.26954,1.41607 6.4383,0.89969 9.48929,0.7322 0.52348,3.70266 1.22261,8.36485 1.6867,12.73189 -4.31691,0.65195 -8.12253,0.55973 -12.58332,-0.94412 z m -53.3728,-49.80776 13.86701,45.87713 c 0,0 8.69205,0.83319 13.03769,1.27343 0.20554,0.0208 0.41104,0.0417 0.61654,0.0625 -0.68039,4.0052 8.98759,-50.77165 8.80569,-47.20131 -3.8856,-0.0262 -7.76583,-0.0516 -11.65077,-0.0763 0.0118,1.06663 -0.014,2.13221 -0.0679,3.19298 -0.0764,1.50372 -0.21001,3.01255 -0.37634,4.50917 -3.8252,-0.0993 -7.60743,-0.19651 -11.43803,-0.2928 -0.75054,-2.48032 -1.59267,-4.96723 -2.59651,-7.40137 -3.40147,0.0194 -10.19724,0.0566 -10.19724,0.0566 l -1.2e-4,-10e-5 z m 22.60441,18.61525 c -1.12741,6.07796 -1.8949,10.62487 -2.63697,16.5889 -2.02847,-6.05119 -3.34216,-10.68907 -4.99508,-16.77922 2.52951,0.0632 5.10774,0.12775 7.63204,0.19017 z m -49.1336,24.17477 c 9.7403,1.26405 14.92801,2.5998 22.31466,0.34629 5.04691,-1.70928 6.66363,-4.9644 6.29308,-12.12858 -0.376,-7.26867 -2.19423,-11.34118 -5.78802,-14.6069 -3.54335,-3.21988 -13.61016,-3.37335 -13.61016,-3.37335 -0.0845,-4.37185 -0.23086,-8.90969 -0.73173,-13.0224 -3.49249,6.4e-4 -10.4711,0.002 -10.4711,0.002 l 1.99327,42.7832 z m 16.34574,-19.27839 c 0.76759,0.71687 1.02108,1.6772 1.27355,4.38627 0.57318,6.15018 -0.38503,7.58112 -5.30391,7.39136 -0.79692,-0.0308 -1.59392,-0.0609 -2.39126,-0.0906 -0.0972,-4.10683 -0.84648,-8.53705 -0.19983,-12.97101 0.65573,-0.6269 5.60482,0.33477 6.62145,1.28398 z m -47.87735,-21.8975 c -0.17899,0.16525 -0.0113,2.40424 0.23755,4.75304 0.24813,2.34234 0.57975,4.75841 0.81047,5.00017 4.74124,-1.5894 14.30466,-4.66798 14.67755,0.76274 0.0317,1.96882 -1.13644,2.97678 -5.78554,4.97403 -7.26826,3.12247 -10.17285,7.13921 -9.92841,13.4946 0.23321,6.0596 3.1894,9.34578 8.53785,11.02916 3.00265,0.94505 10.98605,1.28487 14.61139,0.57107 0.84773,-0.16693 1.69488,-0.3365 2.54193,-0.50885 -0.051,-0.22703 -0.67212,-3.27714 -1.00049,-4.63092 -0.45591,-1.87955 -0.99894,-3.60254 -1.62655,-3.41326 -0.43348,0.14987 -2.17159,0.59583 -3.90449,0.9968 -5.25613,1.21628 -8.70632,0.0867 -8.83617,-3.04537 -0.0828,-1.99679 0.40545,-2.35026 5.87573,-4.78863 7.3411,-3.2723 9.37169,-5.95215 9.56572,-12.53668 0.19708,-6.68716 -2.12518,-10.79847 -7.13826,-13.18766 -2.40589,-1.14665 -3.17941,-1.27615 -7.6837,-1.37871 -3.96886,0.10213 -7.58699,0.15124 -10.95458,1.90847 z m -36.23975,20.62487 c 0.0217,6.99702 0.3428,19.73505 0.3428,19.73505 0,0 17.30607,0.69869 24.34556,-1.86802 3.72722,-1.57958 5.17068,-4.1295 5.29474,-9.58779 0.1316,-5.79193 -0.77047,-8.50508 -4.24631,-11.75822 -0.5474,-0.51234 -1.09508,-1.02618 -1.64181,-1.53987 -1.38296,-0.9286 -0.55947,-1.88241 -0.0216,-3.04491 1.39255,-3.00845 3.09408,-6.48653 4.53082,-9.35658 1.4037,-2.80404 2.4299,-4.78504 2.4299,-4.78504 0,0 -3.4972,-0.0114 -7.13594,-0.0185 -1.6289,-0.003 -3.28803,-0.005 -4.6725,-0.005 -2.87149,5.89772 -5.28119,11.21653 -8.22667,17.64137 -0.13301,-4.9698 -0.34,-13.17529 -0.43204,-17.64161 -3.49188,-1.5e-4 -6.97914,-3.6e-4 -10.47099,-6.5e-4 -0.14898,6.02051 -0.11614,15.71863 -0.0959,22.23009 l 0,1.2e-4 z m 17.46177,1.83766 c 1.02215,0.75116 1.16323,1.29201 1.36962,4.53437 0.2148,3.37465 0.18336,3.5988 -0.96926,4.56879 -1.0292,0.86598 -1.64968,1.01123 -4.14846,1.02865 -0.97904,0.007 -1.95798,0.0147 -2.93709,0.0236 -0.083,-3.33067 -0.12339,-7.17532 -0.14964,-10.97983 0.94796,-0.005 1.89575,-0.009 2.84365,-0.0125 2.08076,-0.008 3.15056,0.21923 3.99118,0.83694 z m -47.40103,19.31273 c 8.63636,-0.57542 17.21106,-1.01678 25.87762,-1.31988 -0.13941,-2.45297 -0.19919,-5.36347 -0.23162,-8.41744 -5.0376,0.0957 -10.04987,0.21687 -15.08154,0.36238 0.15386,-3.42359 0.14214,-3.06096 0.30157,-6.63722 4.11091,-0.16364 8.20898,-0.31514 12.32269,-0.45489 -0.005,-2.29201 -0.01,-6.54528 -0.0109,-8.96982 -4.18382,0.0402 -8.35029,0.0885 -12.53127,0.14451 0.005,-2.52816 0.0109,-5.31337 0.0364,-7.82847 5.29906,-0.0497 10.57313,-0.0904 15.87433,-0.12184 0.0125,-3.43517 0.0458,-6.95587 0.14611,-10.13804 -8.75443,-8.2e-4 -17.42306,-0.002 -26.17755,-0.004 -0.48765,5.95105 -0.64428,39.92873 -0.52587,43.38437 z m -36.86948,3.16005 c 3.86608,-0.39341 7.72327,-0.77104 11.60311,-1.13105 -0.0214,-4.21841 0.41783,-14.67863 0.54298,-19.56862 2.34889,5.95122 5.03349,12.87824 7.53519,17.84614 3.93332,-0.33481 7.86152,-0.64667 11.80532,-0.93449 -2.7298,-4.85811 -5.51866,-11.47715 -8.07498,-17.58325 2.81393,-7.53243 6.34932,-17.87676 9.68648,-25.01948 -4.15695,0.0222 -8.30131,0.0449 -12.45917,0.0684 -3.10528,5.96158 -5.89983,13.05397 -8.42171,19.30472 -0.0577,-6.12183 -0.20341,-13.55719 0.428,-19.53267 -3.80218,-9.8e-4 -7.58978,-0.002 -11.39203,-0.003 -0.48547,3.60728 -1.29898,43.45098 -1.25319,46.55341 z m -30.00299,3.31851 13.81946,-1.69285 9.60423,-36.96986 3.53561,-11.20994 -2.7819,-8.1e-4 -9.03697,-0.003 -1.97766,7.56852 -11.46561,0.15132 -0.6239,-7.72444 -10.59744,-0.0968 c 2.71019,16.74888 6.14562,33.35546 9.52418,49.97755 l 0,4e-5 z m 11.22906,-30.88053 -4.0771,17.69137 -3.6219,-17.31264 z m -65.013339,36.53616 11.533875,-1.00121 8.96256,-33.2744 7.664976,31.54206 11.604336,-1.31856 1.452787,-51.48927 -5.485653,-0.002 -3.558536,-10e-4 -1.462396,22.8726 -6.670042,-22.8754 -6.512184,-0.002 -7.257369,22.57755 -0.470338,-22.58055 -9.04453,-0.003 z"
           id="path7063"
           inkscape:connector-curvature="0"
           sodipodi:nodetypes="ccccccccccccccccscccccccssscccccccccccscccccccccccccssccccccsccccccccscsccsccsssscccccssccsccccccccccscccccccccccccccccccccccccccccccccccccccccccccccccccccccccccccccccc" /><text
           transform="scale(1,-1)"
           sodipodi:linespacing="125%"
           id="text3439"
           y="-447.63031"
           x="140.70569"
           style="font-style:normal;font-weight:normal;font-size:39.54463959px;line-height:125%;font-family:sans-serif;letter-spacing:0px;word-spacing:0px;fill:#000000;fill-opacity:1;stroke:none;stroke-width:1px;stroke-linecap:butt;stroke-linejoin:miter;stroke-opacity:1"
           xml:space="preserve"><tspan
             style="font-style:normal;font-variant:normal;font-weight:bold;font-stretch:normal;font-size:32px;font-family:'Droid Sans';-inkscape-font-specification:'Droid Sans Bold'"
             y="-447.63031"
             x="140.70569"
             id="tspan3441"
             sodipodi:role="line">KAMLOOPS</tspan></text>
<text
           xml:space="preserve"
           style="font-style:normal;font-variant:normal;font-weight:bold;font-stretch:normal;font-size:39.54499817px;line-height:125%;font-family:'Droid Sans';-inkscape-font-specification:'Droid Sans, Bold';text-align:start;letter-spacing:0px;word-spacing:0px;writing-mode:lr-tb;text-anchor:start;fill:#000000;fill-opacity:1;stroke:none;stroke-width:1px;stroke-linecap:butt;stroke-linejoin:miter;stroke-opacity:1"
           x="56.016907"
           y="-164.44826"
           id="text3427"
           sodipodi:linespacing="125%"
           transform="scale(1,-1)"><tspan
             sodipodi:role="line"
             id="tspan3429"
             x="56.016907"
             y="-164.44826"
             style="font-style:normal;font-variant:normal;font-weight:bold;font-stretch:normal;font-size:39.54499817px;line-height:125%;font-family:'Droid Sans';-inkscape-font-specification:'Droid Sans, Bold';text-align:start;writing-mode:lr-tb;text-anchor:start">Font is Droid Sans</tspan></text>
<text
           sodipodi:linespacing="125%"
           id="text3439-9"
           y="-219.66731"
           x="50.789173"
           style="font-style:normal;font-variant:normal;font-weight:bold;font-stretch:normal;font-size:80.66233063px;line-height:125%;font-family:'Droid Sans';-inkscape-font-specification:'Droid Sans Bold';letter-spacing:0px;word-spacing:0px;fill:#000000;fill-opacity:1;stroke:none;stroke-width:1px;stroke-linecap:butt;stroke-linejoin:miter;stroke-opacity:1"
           xml:space="preserve"
           transform="scale(1,-1)"><tspan
             style="font-style:normal;font-variant:normal;font-weight:bold;font-stretch:normal;font-size:65.27292633px;font-family:'Droid Sans';-inkscape-font-specification:'Droid Sans Bold'"
             y="-219.66731"
             x="50.789173"
             id="tspan3441-9"
             sodipodi:role="line">KAMLOOPS</tspan></text>
</g></g></g></svg>