  0
SECTION
  2
HEADER
  9
$ACADVER
  1
AC1014
  9
$HANDSEED
  5
FFFF
  9
$MEASUREMENT
 70
     1
  0
ENDSEC
  0
SECTION
  2
TABLES
  0
TABLE
  2
VPORT
  5
8
330
0
100
AcDbSymbolTable
 70
     4
  0
VPORT
  5
2E
330
8
100
AcDbSymbolTableRecord
100
AcDbViewportTableRecord
  2
*ACTIVE
 70
     0
 10
0.0
 20
0.0
 11
1.0
 21
1.0
 12
210.0
 22
148.5
 13
0.0
 23
0.0
 14
10.0
 24
10.0
 15
10.0
 25
10.0
 16
0.0
 26
0.0
 36
1.0
 17
0.0
 27
0.0
 37
0.0
 40
341.0
 41
1.24
 42
50.0
 43
0.0
 44
0.0
 50
0.0
 51
0.0
 71
     0
 72
   100
 73
     1
 74
     3
 75
     0
 76
     0
 77
     0
 78
     0
  0
ENDTAB
  0
TABLE
  2
LTYPE
  5
5
330
0
100
AcDbSymbolTable
 70
     1
  0
LTYPE
  5
14
330
5
100
AcDbSymbolTableRecord
100
AcDbLinetypeTableRecord
  2
BYBLOCK
 70
     0
  3

 72
    65
 73
     0
 40
0.0
  0
LTYPE
  5
15
330
5
100
AcDbSymbolTableRecord
100
AcDbLinetypeTableRecord
  2
BYLAYER
 70
     0
  3

 72
    65
 73
     0
 40
0.0
  0
LTYPE
  5
16
330
5
100
AcDbSymbolTableRecord
100
AcDbLinetypeTableRecord
  2
CONTINUOUS
 70
     0
  3
Solid line
 72
    65
 73
     0
 40
0.0
  0
ENDTAB
  0
TABLE
  2
LAYER
  5
2
100
AcDbSymbolTable
 70
2
  0
LAYER
  5
50
100
AcDbSymbolTableRecord
100
AcDbLayerTableRecord
  2
0
 70
0
  6
CONTINUOUS
  0
LAYER
  5
51
100
AcDbSymbolTableRecord
100
AcDbLayerTableRecord
  2
Kamloops_spec
 70
0
  6
CONTINUOUS
  0
ENDTAB
  0
TABLE
  2
STYLE
  5
3
330
0
100
AcDbSymbolTable
 70
     1
  0
STYLE
  5
11
330
3
100
AcDbSymbolTableRecord
100
AcDbTextStyleTableRecord
  2
STANDARD
 70
     0
 40
0.0
 41
1.0
 50
0.0
 71
     0
 42
2.5
  3
txt
  4

  0
ENDTAB
  0
TABLE
  2
VIEW
  5
6
330
0
100
AcDbSymbolTable
 70
     0
  0
ENDTAB
  0
TABLE
  2
UCS
  5
7
330
0
100
AcDbSymbolTable
 70
     0
  0
ENDTAB
  0
TABLE
  2
APPID
  5
9
330
0
100
AcDbSymbolTable
 70
     2
  0
APPID
  5
12
330
9
100
AcDbSymbolTableRecord
100
AcDbRegAppTableRecord
  2
ACAD
 70
     0
  0
ENDTAB
  0
TABLE
  2
DIMSTYLE
  5
A
330
0
100
AcDbSymbolTable
 70
     1
  0
DIMSTYLE
105
27
330
A
100
AcDbSymbolTableRecord
100
AcDbDimStyleTableRecord
  2
ISO-25
 70
     0
  3

  4

  5

  6

  7

 40
1.0
 41
2.5
 42
0.625
 43
3.75
 44
1.25
 45
0.0
 46
0.0
 47
0.0
 48
0.0
140
2.5
141
2.5
142
0.0
143
0.03937007874016
144
1.0
145
0.0
146
1.0
147
0.625
 71
     0
 72
     0
 73
     0
 74
     0
 75
     0
 76
     0
 77
     1
 78
     8
170
     0
171
     3
172
     1
173
     0
174
     0
175
     0
176
     0
177
     0
178
     0
270
     2
271
     2
272
     2
273
     2
274
     3
340
11
275
     0
280
     0
281
     0
282
     0
283
     0
284
     8
285
     0
286
     0
287
     3
288
     0
  0
ENDTAB
  0
TABLE
  2
BLOCK_RECORD
  5
1
330
0
100
AcDbSymbolTable
 70
     1
  0
BLOCK_RECORD
  5
1F
330
1
100
AcDbSymbolTableRecord
100
AcDbBlockTableRecord
  2
*MODEL_SPACE
  0
BLOCK_RECORD
  5
1B
330
1
100
AcDbSymbolTableRecord
100
AcDbBlockTableRecord
  2
*PAPER_SPACE
  0
ENDTAB
  0
ENDSEC
  0
SECTION
  2
BLOCKS
  0
BLOCK
  5
20
330
1F
100
AcDbEntity
  8
0
100
AcDbBlockBegin
  2
*MODEL_SPACE
 70
     0
 10
0.0
 20
0.0
 30
0.0
  3
*MODEL_SPACE
  1

  0
ENDBLK
  5
21
330
1F
100
AcDbEntity
  8
0
100
AcDbBlockEnd
  0
BLOCK
  5
1C
330
1B
100
AcDbEntity
 67
     1
  8
0
100
AcDbBlockBegin
  2
*PAPER_SPACE
  1

  0
ENDBLK
  5
1D
330
1B
100
AcDbEntity
 67
     1
  8
0
100
AcDbBlockEnd
  0
ENDSEC
  0
SECTION
  2
ENTITIES
  0
SPLINE
  5
100
100
AcDbEntity
  8
Kamloops_spec
 62
7
100
AcDbSpline
 70
8
 71
3
 72
8
 73
4
 74
0
 40
0
 40
0
 40
0
 40
0
 40
1
 40
1
 40
1
 40
1
 10
0.415408
 20
0.006505
 30
0.0
 10
0.206630
 20
0.041600
 30
0.0
 10
0.041794
 20
0.207677
 30
0.0
 10
0.004896
 20
0.420108
 30
0.0
  0
SPLINE
  5
101
100
AcDbEntity
  8
Kamloops_spec
 62
7
100
AcDbSpline
 70
8
 71
3
 72
8
 73
4
 74
0
 40
0
 40
0
 40
0
 40
0
 40
1
 40
1
 40
1
 40
1
 10
0.004896
 20
0.420108
 30
0.0
 10
-0.003184
 20
0.466626
 30
0.0
 10
-0.000807
 20
0.562653
 30
0.0
 10
0.009578
 20
0.609228
 30
0.0
  0
SPLINE
  5
102
100
AcDbEntity
  8
Kamloops_spec
 62
7
100
AcDbSpline
 70
8
 71
3
 72
8
 73
4
 74
0
 40
0
 40
0
 40
0
 40
0
 40
1
 40
1
 40
1
 40
1
 10
0.009578
 20
0.609228
 30
0.0
 10
0.034191
 20
0.719612
 30
0.0
 10
0.102745
 20
0.826656
 30
0.0
 10
0.193977
 20
0.897158
 30
0.0
  0
SPLINE
  5
103
100
AcDbEntity
  8
Kamloops_spec
 62
7
100
AcDbSpline
 70
8
 71
3
 72
8
 73
4
 74
0
 40
0
 40
0
 40
0
 40
0
 40
1
 40
1
 40
1
 40
1
 10
0.193977
 20
0.897158
 30
0.0
 10
0.350017
 20
1.017741
 30
0.0
 10
0.573336
 20
1.033456
 30
0.0
 10
0.743625
 20
0.935836
 30
0.0
  0
SPLINE
  5
104
100
AcDbEntity
  8
Kamloops_spec
 62
7
100
AcDbSpline
 70
8
 71
3
 72
8
 73
4
 74
0
 40
0
 40
0
 40
0
 40
0
 40
1
 40
1
 40
1
 40
1
 10
0.743625
 20
0.935836
 30
0.0
 10
0.791169
 20
0.908580
 30
0.0
 10
0.818684
 20
0.887062
 30
0.0
 10
0.857300
 20
0.846934
 30
0.0
  0
SPLINE
  5
105
100
AcDbEntity
  8
Kamloops_spec
 62
7
100
AcDbSpline
 70
8
 71
3
 72
8
 73
4
 74
0
 40
0
 40
0
 40
0
 40
0
 40
1
 40
1
 40
1
 40
1
 10
0.857300
 20
0.846934
 30
0.0
 10
0.950652
 20
0.749926
 30
0.0
 10
0.997915
 20
0.633660
 30
0.0
 10
0.997931
 20
0.500987
 30
0.0
  0
SPLINE
  5
106
100
AcDbEntity
  8
Kamloops_spec
 62
7
100
AcDbSpline
 70
8
 71
3
 72
8
 73
4
 74
0
 40
0
 40
0
 40
0
 40
0
 40
1
 40
1
 40
1
 40
1
 10
0.997931
 20
0.500987
 30
0.0
 10
0.997959
 20
0.283943
 30
0.0
 10
0.861223
 20
0.094485
 30
0.0
 10
0.654656
 20
0.025344
 30
0.0
  0
SPLINE
  5
107
100
AcDbEntity
  8
Kamloops_spec
 62
7
100
AcDbSpline
 70
8
 71
3
 72
8
 73
4
 74
0
 40
0
 40
0
 40
0
 40
0
 40
1
 40
1
 40
1
 40
1
 10
0.654656
 20
0.025344
 30
0.0
 10
0.581545
 20
0.000873
 30
0.0
 10
0.491224
 20
-0.006239
 30
0.0
 10
0.415408
 20
0.006505
 30
0.0
  0
LINE
  5
108
100
AcDbEntity
  8
Kamloops_spec
 62
7
100
AcDbLine
 10
0.415408
 20
0.006505
 30
0.0
 11
0.415408
 21
0.006505
 31
0.0
  0
LINE
  5
109
100
AcDbEntity
  8
Kamloops_spec
 62
7
100
AcDbLine
 10
0.173503
 20
0.412382
 30
0.0
 11
0.238716
 21
0.479609
 31
0.0
  0
LINE
  5
10a
100
AcDbEntity
  8
Kamloops_spec
 62
7
100
AcDbLine
 10
0.238716
 20
0.479609
 30
0.0
 11
0.419766
 21
0.298419
 31
0.0
  0
LINE
  5
10b
100
AcDbEntity
  8
Kamloops_spec
 62
7
100
AcDbLine
 10
0.419766
 20
0.298419
 30
0.0
 11
0.923348
 21
0.298419
 31
0.0
  0
LINE
  5
10c
100
AcDbEntity
  8
Kamloops_spec
 62
7
100
AcDbLine
 10
0.923348
 20
0.298419
 30
0.0
 11
0.923348
 21
0.380066
 31
0.0
  0
LINE
  5
10d
100
AcDbEntity
  8
Kamloops_spec
 62
7
100
AcDbLine
 10
0.923348
 20
0.380066
 30
0.0
 11
0.741933
 21
0.503683
 31
0.0
  0
LINE
  5
10e
100
AcDbEntity
  8
Kamloops_spec
 62
7
100
AcDbLine
 10
0.741933
 20
0.503683
 30
0.0
 11
0.923348
 21
0.618988
 31
0.0
  0
LINE
  5
10f
100
AcDbEntity
  8
Kamloops_spec
 62
7
100
AcDbLine
 10
0.923348
 20
0.618988
 30
0.0
 11
0.923348
 21
0.700398
 31
0.0
  0
LINE
  5
110
100
AcDbEntity
  8
Kamloops_spec
 62
7
100
AcDbLine
 10
0.923348
 20
0.700398
 30
0.0
 11
0.521368
 21
0.700398
 31
0.0
  0
LINE
  5
111
100
AcDbEntity
  8
Kamloops_spec
 62
7
100
AcDbLine
 10
0.521368
 20
0.700398
 30
0.0
 11
0.521368
 21
0.609389
 31
0.0
  0
LINE
  5
112
100
AcDbEntity
  8
Kamloops_spec
 62
7
100
AcDbLine
 10
0.521368
 20
0.609389
 30
0.0
 11
0.700748
 21
0.607156
 31
0.0
  0
LINE
  5
113
100
AcDbEntity
  8
Kamloops_spec
 62
7
100
AcDbLine
 10
0.700748
 20
0.607156
 30
0.0
 11
0.526299
 21
0.499438
 31
0.0
  0
LINE
  5
114
100
AcDbEntity
  8
Kamloops_spec
 62
7
100
AcDbLine
 10
0.526299
 20
0.499438
 30
0.0
 11
0.705539
 21
0.389589
 31
0.0
  0
LINE
  5
115
100
AcDbEntity
  8
Kamloops_spec
 62
7
100
AcDbLine
 10
0.705539
 20
0.389589
 30
0.0
 11
0.521763
 21
0.389589
 31
0.0
  0
LINE
  5
116
100
AcDbEntity
  8
Kamloops_spec
 62
7
100
AcDbLine
 10
0.521763
 20
0.389589
 30
0.0
 11
0.521109
 21
0.338610
 31
0.0
  0
LINE
  5
117
100
AcDbEntity
  8
Kamloops_spec
 62
7
100
AcDbLine
 10
0.521109
 20
0.338610
 30
0.0
 11
0.314162
 21
0.555082
 31
0.0
  0
LINE
  5
118
100
AcDbEntity
  8
Kamloops_spec
 62
7
100
AcDbLine
 10
0.314162
 20
0.555082
 30
0.0
 11
0.438313
 21
0.699743
 31
0.0
  0
LINE
  5
119
100
AcDbEntity
  8
Kamloops_spec
 62
7
100
AcDbLine
 10
0.438313
 20
0.699743
 30
0.0
 11
0.307946
 21
0.700086
 31
0.0
  0
LINE
  5
11a
100
AcDbEntity
  8
Kamloops_spec
 62
7
100
AcDbLine
 10
0.307946
 20
0.700086
 30
0.0
 11
0.175334
 21
0.558385
 31
0.0
  0
LINE
  5
11b
100
AcDbEntity
  8
Kamloops_spec
 62
7
100
AcDbLine
 10
0.175334
 20
0.558385
 30
0.0
 11
0.173065
 21
0.700398
 31
0.0
  0
LINE
  5
11c
100
AcDbEntity
  8
Kamloops_spec
 62
7
100
AcDbLine
 10
0.173065
 20
0.700398
 30
0.0
 11
0.073802
 21
0.700398
 31
0.0
  0
LINE
  5
11d
100
AcDbEntity
  8
Kamloops_spec
 62
7
100
AcDbLine
 10
0.073802
 20
0.700398
 30
0.0
 11
0.073802
 21
0.298418
 31
0.0
  0
LINE
  5
11e
100
AcDbEntity
  8
Kamloops_spec
 62
7
100
AcDbLine
 10
0.073802
 20
0.298418
 30
0.0
 11
0.173261
 21
0.298418
 31
0.0
  0
LINE
  5
11f
100
AcDbEntity
  8
Kamloops_spec
 62
7
100
AcDbLine
 10
0.173261
 20
0.298418
 30
0.0
 11
0.173503
 21
0.412382
 31
0.0
  0
ENDSEC
  0
SECTION
  2
OBJECTS
  0
DICTIONARY
  5
C
330
0
100
AcDbDictionary
  3
ACAD_GROUP
350
D
  3
ACAD_MLINESTYLE
350
17
  0
DICTIONARY
  5
D
330
C
100
AcDbDictionary
  0
DICTIONARY
  5
1A
330
C
100
AcDbDictionary
  0
DICTIONARY
  5
17
330
C
100
AcDbDictionary
  3
STANDARD
350
18
  0
DICTIONARY
  5
19
330
C
100
AcDbDictionary
  0
ENDSEC
  0
EOF
