  0
SECTION
  2
HEADER
  9
$ACADVER
  1
AC1014
  9
$HANDSEED
  5
FFFF
  9
$MEASUREMENT
 70
     1
  0
ENDSEC
  0
SECTION
  2
TABLES
  0
TABLE
  2
VPORT
  5
8
330
0
100
AcDbSymbolTable
 70
     4
  0
VPORT
  5
2E
330
8
100
AcDbSymbolTableRecord
100
AcDbViewportTableRecord
  2
*ACTIVE
 70
     0
 10
0.0
 20
0.0
 11
1.0
 21
1.0
 12
210.0
 22
148.5
 13
0.0
 23
0.0
 14
10.0
 24
10.0
 15
10.0
 25
10.0
 16
0.0
 26
0.0
 36
1.0
 17
0.0
 27
0.0
 37
0.0
 40
341.0
 41
1.24
 42
50.0
 43
0.0
 44
0.0
 50
0.0
 51
0.0
 71
     0
 72
   100
 73
     1
 74
     3
 75
     0
 76
     0
 77
     0
 78
     0
  0
ENDTAB
  0
TABLE
  2
LTYPE
  5
5
330
0
100
AcDbSymbolTable
 70
     1
  0
LTYPE
  5
14
330
5
100
AcDbSymbolTableRecord
100
AcDbLinetypeTableRecord
  2
BYBLOCK
 70
     0
  3

 72
    65
 73
     0
 40
0.0
  0
LTYPE
  5
15
330
5
100
AcDbSymbolTableRecord
100
AcDbLinetypeTableRecord
  2
BYLAYER
 70
     0
  3

 72
    65
 73
     0
 40
0.0
  0
LTYPE
  5
16
330
5
100
AcDbSymbolTableRecord
100
AcDbLinetypeTableRecord
  2
CONTINUOUS
 70
     0
  3
Solid line
 72
    65
 73
     0
 40
0.0
  0
ENDTAB
  0
TABLE
  2
LAYER
  5
2
100
AcDbSymbolTable
 70
2
  0
LAYER
  5
50
100
AcDbSymbolTableRecord
100
AcDbLayerTableRecord
  2
0
 70
0
  6
CONTINUOUS
  0
LAYER
  5
51
100
AcDbSymbolTableRecord
100
AcDbLayerTableRecord
  2
Kamloops_spec
 70
0
  6
CONTINUOUS
  0
ENDTAB
  0
TABLE
  2
STYLE
  5
3
330
0
100
AcDbSymbolTable
 70
     1
  0
STYLE
  5
11
330
3
100
AcDbSymbolTableRecord
100
AcDbTextStyleTableRecord
  2
STANDARD
 70
     0
 40
0.0
 41
1.0
 50
0.0
 71
     0
 42
2.5
  3
txt
  4

  0
ENDTAB
  0
TABLE
  2
VIEW
  5
6
330
0
100
AcDbSymbolTable
 70
     0
  0
ENDTAB
  0
TABLE
  2
UCS
  5
7
330
0
100
AcDbSymbolTable
 70
     0
  0
ENDTAB
  0
TABLE
  2
APPID
  5
9
330
0
100
AcDbSymbolTable
 70
     2
  0
APPID
  5
12
330
9
100
AcDbSymbolTableRecord
100
AcDbRegAppTableRecord
  2
ACAD
 70
     0
  0
ENDTAB
  0
TABLE
  2
DIMSTYLE
  5
A
330
0
100
AcDbSymbolTable
 70
     1
  0
DIMSTYLE
105
27
330
A
100
AcDbSymbolTableRecord
100
AcDbDimStyleTableRecord
  2
ISO-25
 70
     0
  3

  4

  5

  6

  7

 40
1.0
 41
2.5
 42
0.625
 43
3.75
 44
1.25
 45
0.0
 46
0.0
 47
0.0
 48
0.0
140
2.5
141
2.5
142
0.0
143
0.03937007874016
144
1.0
145
0.0
146
1.0
147
0.625
 71
     0
 72
     0
 73
     0
 74
     0
 75
     0
 76
     0
 77
     1
 78
     8
170
     0
171
     3
172
     1
173
     0
174
     0
175
     0
176
     0
177
     0
178
     0
270
     2
271
     2
272
     2
273
     2
274
     3
340
11
275
     0
280
     0
281
     0
282
     0
283
     0
284
     8
285
     0
286
     0
287
     3
288
     0
  0
ENDTAB
  0
TABLE
  2
BLOCK_RECORD
  5
1
330
0
100
AcDbSymbolTable
 70
     1
  0
BLOCK_RECORD
  5
1F
330
1
100
AcDbSymbolTableRecord
100
AcDbBlockTableRecord
  2
*MODEL_SPACE
  0
BLOCK_RECORD
  5
1B
330
1
100
AcDbSymbolTableRecord
100
AcDbBlockTableRecord
  2
*PAPER_SPACE
  0
ENDTAB
  0
ENDSEC
  0
SECTION
  2
BLOCKS
  0
BLOCK
  5
20
330
1F
100
AcDbEntity
  8
0
100
AcDbBlockBegin
  2
*MODEL_SPACE
 70
     0
 10
0.0
 20
0.0
 30
0.0
  3
*MODEL_SPACE
  1

  0
ENDBLK
  5
21
330
1F
100
AcDbEntity
  8
0
100
AcDbBlockEnd
  0
BLOCK
  5
1C
330
1B
100
AcDbEntity
 67
     1
  8
0
100
AcDbBlockBegin
  2
*PAPER_SPACE
  1

  0
ENDBLK
  5
1D
330
1B
100
AcDbEntity
 67
     1
  8
0
100
AcDbBlockEnd
  0
ENDSEC
  0
SECTION
  2
ENTITIES
  0
SPLINE
  5
100
100
AcDbEntity
  8
Kamloops_spec
 62
7
100
AcDbSpline
 70
8
 71
3
 72
8
 73
4
 74
0
 40
0
 40
0
 40
0
 40
0
 40
1
 40
1
 40
1
 40
1
 10
0.832491
 20
0.013094
 30
0.0
 10
0.414237
 20
0.083401
 30
0.0
 10
0.084014
 20
0.416110
 30
0.0
 10
0.010094
 20
0.841681
 30
0.0
  0
SPLINE
  5
101
100
AcDbEntity
  8
Kamloops_spec
 62
7
100
AcDbSpline
 70
8
 71
3
 72
8
 73
4
 74
0
 40
0
 40
0
 40
0
 40
0
 40
1
 40
1
 40
1
 40
1
 10
0.010094
 20
0.841681
 30
0.0
 10
-0.006093
 20
0.934873
 30
0.0
 10
-0.001331
 20
1.127247
 30
0.0
 10
0.019474
 20
1.220553
 30
0.0
  0
SPLINE
  5
102
100
AcDbEntity
  8
Kamloops_spec
 62
7
100
AcDbSpline
 70
8
 71
3
 72
8
 73
4
 74
0
 40
0
 40
0
 40
0
 40
0
 40
1
 40
1
 40
1
 40
1
 10
0.019474
 20
1.220553
 30
0.0
 10
0.068782
 20
1.441691
 30
0.0
 10
0.206119
 20
1.656136
 30
0.0
 10
0.388889
 20
1.797375
 30
0.0
  0
SPLINE
  5
103
100
AcDbEntity
  8
Kamloops_spec
 62
7
100
AcDbSpline
 70
8
 71
3
 72
8
 73
4
 74
0
 40
0
 40
0
 40
0
 40
0
 40
1
 40
1
 40
1
 40
1
 10
0.388889
 20
1.797375
 30
0.0
 10
0.701490
 20
2.038944
 30
0.0
 10
1.148874
 20
2.070426
 30
0.0
 10
1.490021
 20
1.874860
 30
0.0
  0
SPLINE
  5
104
100
AcDbEntity
  8
Kamloops_spec
 62
7
100
AcDbSpline
 70
8
 71
3
 72
8
 73
4
 74
0
 40
0
 40
0
 40
0
 40
0
 40
1
 40
1
 40
1
 40
1
 10
1.490021
 20
1.874860
 30
0.0
 10
1.585268
 20
1.820258
 30
0.0
 10
1.640390
 20
1.777149
 30
0.0
 10
1.717751
 20
1.696759
 30
0.0
  0
SPLINE
  5
105
100
AcDbEntity
  8
Kamloops_spec
 62
7
100
AcDbSpline
 70
8
 71
3
 72
8
 73
4
 74
0
 40
0
 40
0
 40
0
 40
0
 40
1
 40
1
 40
1
 40
1
 10
1.717751
 20
1.696759
 30
0.0
 10
1.904767
 20
1.502419
 30
0.0
 10
1.999451
 20
1.269499
 30
0.0
 10
1.999482
 20
1.003710
 30
0.0
  0
SPLINE
  5
106
100
AcDbEntity
  8
Kamloops_spec
 62
7
100
AcDbSpline
 70
8
 71
3
 72
8
 73
4
 74
0
 40
0
 40
0
 40
0
 40
0
 40
1
 40
1
 40
1
 40
1
 10
1.999482
 20
1.003710
 30
0.0
 10
1.999538
 20
0.568897
 30
0.0
 10
1.725610
 20
0.189347
 30
0.0
 10
1.311785
 20
0.050834
 30
0.0
  0
SPLINE
  5
107
100
AcDbEntity
  8
Kamloops_spec
 62
7
100
AcDbSpline
 70
8
 71
3
 72
8
 73
4
 74
0
 40
0
 40
0
 40
0
 40
0
 40
1
 40
1
 40
1
 40
1
 10
1.311785
 20
0.050834
 30
0.0
 10
1.165320
 20
0.001810
 30
0.0
 10
0.984376
 20
-0.012438
 30
0.0
 10
0.832491
 20
0.013094
 30
0.0
  0
LINE
  5
108
100
AcDbEntity
  8
Kamloops_spec
 62
7
100
AcDbLine
 10
0.832491
 20
0.013094
 30
0.0
 11
0.832491
 21
0.013094
 31
0.0
  0
LINE
  5
109
100
AcDbEntity
  8
Kamloops_spec
 62
7
100
AcDbLine
 10
0.347872
 20
0.826203
 30
0.0
 11
0.478516
 21
0.960882
 31
0.0
  0
LINE
  5
10a
100
AcDbEntity
  8
Kamloops_spec
 62
7
100
AcDbLine
 10
0.478516
 20
0.960882
 30
0.0
 11
0.841221
 21
0.597896
 31
0.0
  0
LINE
  5
10b
100
AcDbEntity
  8
Kamloops_spec
 62
7
100
AcDbLine
 10
0.841221
 20
0.597896
 30
0.0
 11
1.850067
 21
0.597896
 31
0.0
  0
LINE
  5
10c
100
AcDbEntity
  8
Kamloops_spec
 62
7
100
AcDbLine
 10
1.850067
 20
0.597896
 30
0.0
 11
1.850067
 21
0.761464
 31
0.0
  0
LINE
  5
10d
100
AcDbEntity
  8
Kamloops_spec
 62
7
100
AcDbLine
 10
1.850067
 20
0.761464
 30
0.0
 11
1.486631
 21
1.009110
 31
0.0
  0
LINE
  5
10e
100
AcDbEntity
  8
Kamloops_spec
 62
7
100
AcDbLine
 10
1.486631
 20
1.009110
 30
0.0
 11
1.850067
 21
1.240105
 31
0.0
  0
LINE
  5
10f
100
AcDbEntity
  8
Kamloops_spec
 62
7
100
AcDbLine
 10
1.850067
 20
1.240105
 30
0.0
 11
1.850067
 21
1.403198
 31
0.0
  0
LINE
  5
110
100
AcDbEntity
  8
Kamloops_spec
 62
7
100
AcDbLine
 10
1.850067
 20
1.403198
 30
0.0
 11
1.044764
 21
1.403198
 31
0.0
  0
LINE
  5
111
100
AcDbEntity
  8
Kamloops_spec
 62
7
100
AcDbLine
 10
1.044764
 20
1.403198
 30
0.0
 11
1.044764
 21
1.220876
 31
0.0
  0
LINE
  5
112
100
AcDbEntity
  8
Kamloops_spec
 62
7
100
AcDbLine
 10
1.044764
 20
1.220876
 30
0.0
 11
1.404123
 21
1.216402
 31
0.0
  0
LINE
  5
113
100
AcDbEntity
  8
Kamloops_spec
 62
7
100
AcDbLine
 10
1.404123
 20
1.216402
 30
0.0
 11
1.054643
 21
1.000606
 31
0.0
  0
LINE
  5
114
100
AcDbEntity
  8
Kamloops_spec
 62
7
100
AcDbLine
 10
1.054643
 20
1.000606
 30
0.0
 11
1.413722
 21
0.780542
 31
0.0
  0
LINE
  5
115
100
AcDbEntity
  8
Kamloops_spec
 62
7
100
AcDbLine
 10
1.413722
 20
0.780542
 30
0.0
 11
1.045556
 21
0.780542
 31
0.0
  0
LINE
  5
116
100
AcDbEntity
  8
Kamloops_spec
 62
7
100
AcDbLine
 10
1.045556
 20
0.780542
 30
0.0
 11
1.044246
 21
0.678413
 31
0.0
  0
LINE
  5
117
100
AcDbEntity
  8
Kamloops_spec
 62
7
100
AcDbLine
 10
1.044246
 20
0.678413
 30
0.0
 11
0.629661
 21
1.112080
 31
0.0
  0
LINE
  5
118
100
AcDbEntity
  8
Kamloops_spec
 62
7
100
AcDbLine
 10
0.629661
 20
1.112080
 30
0.0
 11
0.878378
 21
1.401885
 31
0.0
  0
LINE
  5
119
100
AcDbEntity
  8
Kamloops_spec
 62
7
100
AcDbLine
 10
0.878378
 20
1.401885
 30
0.0
 11
0.617208
 21
1.402574
 31
0.0
  0
LINE
  5
11a
100
AcDbEntity
  8
Kamloops_spec
 62
7
100
AcDbLine
 10
0.617208
 20
1.402574
 30
0.0
 11
0.351541
 21
1.118698
 31
0.0
  0
LINE
  5
11b
100
AcDbEntity
  8
Kamloops_spec
 62
7
100
AcDbLine
 10
0.351541
 20
1.118698
 30
0.0
 11
0.346996
 21
1.403198
 31
0.0
  0
LINE
  5
11c
100
AcDbEntity
  8
Kamloops_spec
 62
7
100
AcDbLine
 10
0.346996
 20
1.403198
 30
0.0
 11
0.148137
 21
1.403198
 31
0.0
  0
LINE
  5
11d
100
AcDbEntity
  8
Kamloops_spec
 62
7
100
AcDbLine
 10
0.148137
 20
1.403198
 30
0.0
 11
0.148137
 21
0.597895
 31
0.0
  0
LINE
  5
11e
100
AcDbEntity
  8
Kamloops_spec
 62
7
100
AcDbLine
 10
0.148137
 20
0.597895
 30
0.0
 11
0.347388
 21
0.597895
 31
0.0
  0
LINE
  5
11f
100
AcDbEntity
  8
Kamloops_spec
 62
7
100
AcDbLine
 10
0.347388
 20
0.597895
 30
0.0
 11
0.347872
 21
0.826203
 31
0.0
  0
ENDSEC
  0
SECTION
  2
OBJECTS
  0
DICTIONARY
  5
C
330
0
100
AcDbDictionary
  3
ACAD_GROUP
350
D
  3
ACAD_MLINESTYLE
350
17
  0
DICTIONARY
  5
D
330
C
100
AcDbDictionary
  0
DICTIONARY
  5
1A
330
C
100
AcDbDictionary
  0
DICTIONARY
  5
17
330
C
100
AcDbDictionary
  3
STANDARD
350
18
  0
DICTIONARY
  5
19
330
C
100
AcDbDictionary
  0
ENDSEC
  0
EOF
