  0
SECTION
  2
HEADER
  9
$ACADVER
  1
AC1014
  9
$HANDSEED
  5
FFFF
  9
$MEASUREMENT
 70
     1
  0
ENDSEC
  0
SECTION
  2
TABLES
  0
TABLE
  2
VPORT
  5
8
330
0
100
AcDbSymbolTable
 70
     4
  0
VPORT
  5
2E
330
8
100
AcDbSymbolTableRecord
100
AcDbViewportTableRecord
  2
*ACTIVE
 70
     0
 10
0.0
 20
0.0
 11
1.0
 21
1.0
 12
210.0
 22
148.5
 13
0.0
 23
0.0
 14
10.0
 24
10.0
 15
10.0
 25
10.0
 16
0.0
 26
0.0
 36
1.0
 17
0.0
 27
0.0
 37
0.0
 40
341.0
 41
1.24
 42
50.0
 43
0.0
 44
0.0
 50
0.0
 51
0.0
 71
     0
 72
   100
 73
     1
 74
     3
 75
     0
 76
     0
 77
     0
 78
     0
  0
ENDTAB
  0
TABLE
  2
LTYPE
  5
5
330
0
100
AcDbSymbolTable
 70
     1
  0
LTYPE
  5
14
330
5
100
AcDbSymbolTableRecord
100
AcDbLinetypeTableRecord
  2
BYBLOCK
 70
     0
  3

 72
    65
 73
     0
 40
0.0
  0
LTYPE
  5
15
330
5
100
AcDbSymbolTableRecord
100
AcDbLinetypeTableRecord
  2
BYLAYER
 70
     0
  3

 72
    65
 73
     0
 40
0.0
  0
LTYPE
  5
16
330
5
100
AcDbSymbolTableRecord
100
AcDbLinetypeTableRecord
  2
CONTINUOUS
 70
     0
  3
Solid line
 72
    65
 73
     0
 40
0.0
  0
ENDTAB
  0
TABLE
  2
LAYER
  5
2
100
AcDbSymbolTable
 70
2
  0
LAYER
  5
50
100
AcDbSymbolTableRecord
100
AcDbLayerTableRecord
  2
0
 70
0
  6
CONTINUOUS
  0
LAYER
  5
51
100
AcDbSymbolTableRecord
100
AcDbLayerTableRecord
  2
Kamloops_spec
 70
0
  6
CONTINUOUS
  0
ENDTAB
  0
TABLE
  2
STYLE
  5
3
330
0
100
AcDbSymbolTable
 70
     1
  0
STYLE
  5
11
330
3
100
AcDbSymbolTableRecord
100
AcDbTextStyleTableRecord
  2
STANDARD
 70
     0
 40
0.0
 41
1.0
 50
0.0
 71
     0
 42
2.5
  3
txt
  4

  0
ENDTAB
  0
TABLE
  2
VIEW
  5
6
330
0
100
AcDbSymbolTable
 70
     0
  0
ENDTAB
  0
TABLE
  2
UCS
  5
7
330
0
100
AcDbSymbolTable
 70
     0
  0
ENDTAB
  0
TABLE
  2
APPID
  5
9
330
0
100
AcDbSymbolTable
 70
     2
  0
APPID
  5
12
330
9
100
AcDbSymbolTableRecord
100
AcDbRegAppTableRecord
  2
ACAD
 70
     0
  0
ENDTAB
  0
TABLE
  2
DIMSTYLE
  5
A
330
0
100
AcDbSymbolTable
 70
     1
  0
DIMSTYLE
105
27
330
A
100
AcDbSymbolTableRecord
100
AcDbDimStyleTableRecord
  2
ISO-25
 70
     0
  3

  4

  5

  6

  7

 40
1.0
 41
2.5
 42
0.625
 43
3.75
 44
1.25
 45
0.0
 46
0.0
 47
0.0
 48
0.0
140
2.5
141
2.5
142
0.0
143
0.03937007874016
144
1.0
145
0.0
146
1.0
147
0.625
 71
     0
 72
     0
 73
     0
 74
     0
 75
     0
 76
     0
 77
     1
 78
     8
170
     0
171
     3
172
     1
173
     0
174
     0
175
     0
176
     0
177
     0
178
     0
270
     2
271
     2
272
     2
273
     2
274
     3
340
11
275
     0
280
     0
281
     0
282
     0
283
     0
284
     8
285
     0
286
     0
287
     3
288
     0
  0
ENDTAB
  0
TABLE
  2
BLOCK_RECORD
  5
1
330
0
100
AcDbSymbolTable
 70
     1
  0
BLOCK_RECORD
  5
1F
330
1
100
AcDbSymbolTableRecord
100
AcDbBlockTableRecord
  2
*MODEL_SPACE
  0
BLOCK_RECORD
  5
1B
330
1
100
AcDbSymbolTableRecord
100
AcDbBlockTableRecord
  2
*PAPER_SPACE
  0
ENDTAB
  0
ENDSEC
  0
SECTION
  2
BLOCKS
  0
BLOCK
  5
20
330
1F
100
AcDbEntity
  8
0
100
AcDbBlockBegin
  2
*MODEL_SPACE
 70
     0
 10
0.0
 20
0.0
 30
0.0
  3
*MODEL_SPACE
  1

  0
ENDBLK
  5
21
330
1F
100
AcDbEntity
  8
0
100
AcDbBlockEnd
  0
BLOCK
  5
1C
330
1B
100
AcDbEntity
 67
     1
  8
0
100
AcDbBlockBegin
  2
*PAPER_SPACE
  1

  0
ENDBLK
  5
1D
330
1B
100
AcDbEntity
 67
     1
  8
0
100
AcDbBlockEnd
  0
ENDSEC
  0
SECTION
  2
ENTITIES
  0
SPLINE
  5
100
100
AcDbEntity
  8
Kamloops_spec
 62
7
100
AcDbSpline
 70
8
 71
3
 72
8
 73
4
 74
0
 40
0
 40
0
 40
0
 40
0
 40
1
 40
1
 40
1
 40
1
 10
1.247607
 20
0.019538
 30
0.0
 10
0.620808
 20
0.124901
 30
0.0
 10
0.125932
 20
0.623502
 30
0.0
 10
0.015154
 20
1.261268
 30
0.0
  0
SPLINE
  5
101
100
AcDbEntity
  8
Kamloops_spec
 62
7
100
AcDbSpline
 70
8
 71
3
 72
8
 73
4
 74
0
 40
0
 40
0
 40
0
 40
0
 40
1
 40
1
 40
1
 40
1
 10
0.015154
 20
1.261268
 30
0.0
 10
-0.009105
 20
1.400926
 30
0.0
 10
-0.001967
 20
1.689221
 30
0.0
 10
0.029211
 20
1.829049
 30
0.0
  0
SPLINE
  5
102
100
AcDbEntity
  8
Kamloops_spec
 62
7
100
AcDbSpline
 70
8
 71
3
 72
8
 73
4
 74
0
 40
0
 40
0
 40
0
 40
0
 40
1
 40
1
 40
1
 40
1
 10
0.029211
 20
1.829049
 30
0.0
 10
0.103104
 20
2.160449
 30
0.0
 10
0.308920
 20
2.481819
 30
0.0
 10
0.582820
 20
2.693481
 30
0.0
  0
SPLINE
  5
103
100
AcDbEntity
  8
Kamloops_spec
 62
7
100
AcDbSpline
 70
8
 71
3
 72
8
 73
4
 74
0
 40
0
 40
0
 40
0
 40
0
 40
1
 40
1
 40
1
 40
1
 10
0.582820
 20
2.693481
 30
0.0
 10
1.051288
 20
3.055500
 30
0.0
 10
1.721742
 20
3.102679
 30
0.0
 10
2.232989
 20
2.809601
 30
0.0
  0
SPLINE
  5
104
100
AcDbEntity
  8
Kamloops_spec
 62
7
100
AcDbSpline
 70
8
 71
3
 72
8
 73
4
 74
0
 40
0
 40
0
 40
0
 40
0
 40
1
 40
1
 40
1
 40
1
 10
2.232989
 20
2.809601
 30
0.0
 10
2.375728
 20
2.727775
 30
0.0
 10
2.458333
 20
2.663171
 30
0.0
 10
2.574267
 20
2.542697
 30
0.0
  0
SPLINE
  5
105
100
AcDbEntity
  8
Kamloops_spec
 62
7
100
AcDbSpline
 70
8
 71
3
 72
8
 73
4
 74
0
 40
0
 40
0
 40
0
 40
0
 40
1
 40
1
 40
1
 40
1
 10
2.574267
 20
2.542697
 30
0.0
 10
2.854531
 20
2.251457
 30
0.0
 10
2.996426
 20
1.902400
 30
0.0
 10
2.996474
 20
1.504087
 30
0.0
  0
SPLINE
  5
106
100
AcDbEntity
  8
Kamloops_spec
 62
7
100
AcDbSpline
 70
8
 71
3
 72
8
 73
4
 74
0
 40
0
 40
0
 40
0
 40
0
 40
1
 40
1
 40
1
 40
1
 10
2.996474
 20
1.504087
 30
0.0
 10
2.996557
 20
0.852470
 30
0.0
 10
2.586045
 20
0.283673
 30
0.0
 10
1.965882
 20
0.076096
 30
0.0
  0
SPLINE
  5
107
100
AcDbEntity
  8
Kamloops_spec
 62
7
100
AcDbSpline
 70
8
 71
3
 72
8
 73
4
 74
0
 40
0
 40
0
 40
0
 40
0
 40
1
 40
1
 40
1
 40
1
 10
1.965882
 20
0.076096
 30
0.0
 10
1.746388
 20
0.002628
 30
0.0
 10
1.475225
 20
-0.018724
 30
0.0
 10
1.247607
 20
0.019538
 30
0.0
  0
LINE
  5
108
100
AcDbEntity
  8
Kamloops_spec
 62
7
100
AcDbLine
 10
1.247607
 20
0.019538
 30
0.0
 11
1.247607
 21
0.019538
 31
0.0
  0
LINE
  5
109
100
AcDbEntity
  8
Kamloops_spec
 62
7
100
AcDbLine
 10
0.521351
 20
1.238073
 30
0.0
 11
0.717136
 21
1.439904
 31
0.0
  0
LINE
  5
10a
100
AcDbEntity
  8
Kamloops_spec
 62
7
100
AcDbLine
 10
0.717136
 20
1.439904
 30
0.0
 11
1.260690
 21
0.895929
 31
0.0
  0
LINE
  5
10b
100
AcDbEntity
  8
Kamloops_spec
 62
7
100
AcDbLine
 10
1.260690
 20
0.895929
 30
0.0
 11
2.772557
 21
0.895929
 31
0.0
  0
LINE
  5
10c
100
AcDbEntity
  8
Kamloops_spec
 62
7
100
AcDbLine
 10
2.772557
 20
0.895929
 30
0.0
 11
2.772557
 21
1.141054
 31
0.0
  0
LINE
  5
10d
100
AcDbEntity
  8
Kamloops_spec
 62
7
100
AcDbLine
 10
2.772557
 20
1.141054
 30
0.0
 11
2.227909
 21
1.512179
 31
0.0
  0
LINE
  5
10e
100
AcDbEntity
  8
Kamloops_spec
 62
7
100
AcDbLine
 10
2.227909
 20
1.512179
 30
0.0
 11
2.772557
 21
1.858351
 31
0.0
  0
LINE
  5
10f
100
AcDbEntity
  8
Kamloops_spec
 62
7
100
AcDbLine
 10
2.772557
 20
1.858351
 30
0.0
 11
2.772557
 21
2.102764
 31
0.0
  0
LINE
  5
110
100
AcDbEntity
  8
Kamloops_spec
 62
7
100
AcDbLine
 10
2.772557
 20
2.102764
 30
0.0
 11
1.565722
 21
2.102764
 31
0.0
  0
LINE
  5
111
100
AcDbEntity
  8
Kamloops_spec
 62
7
100
AcDbLine
 10
1.565722
 20
2.102764
 30
0.0
 11
1.565722
 21
1.829534
 31
0.0
  0
LINE
  5
112
100
AcDbEntity
  8
Kamloops_spec
 62
7
100
AcDbLine
 10
1.565722
 20
1.829534
 30
0.0
 11
2.104261
 21
1.822828
 31
0.0
  0
LINE
  5
113
100
AcDbEntity
  8
Kamloops_spec
 62
7
100
AcDbLine
 10
2.104261
 20
1.822828
 30
0.0
 11
1.580527
 21
1.499435
 31
0.0
  0
LINE
  5
114
100
AcDbEntity
  8
Kamloops_spec
 62
7
100
AcDbLine
 10
1.580527
 20
1.499435
 30
0.0
 11
2.118647
 21
1.169644
 31
0.0
  0
LINE
  5
115
100
AcDbEntity
  8
Kamloops_spec
 62
7
100
AcDbLine
 10
2.118647
 20
1.169644
 30
0.0
 11
1.566909
 21
1.169644
 31
0.0
  0
LINE
  5
116
100
AcDbEntity
  8
Kamloops_spec
 62
7
100
AcDbLine
 10
1.566909
 20
1.169644
 30
0.0
 11
1.564947
 21
1.016593
 31
0.0
  0
LINE
  5
117
100
AcDbEntity
  8
Kamloops_spec
 62
7
100
AcDbLine
 10
1.564947
 20
1.016593
 30
0.0
 11
0.943644
 21
1.666491
 31
0.0
  0
LINE
  5
118
100
AcDbEntity
  8
Kamloops_spec
 62
7
100
AcDbLine
 10
0.943644
 20
1.666491
 30
0.0
 11
1.316374
 21
2.100796
 31
0.0
  0
LINE
  5
119
100
AcDbEntity
  8
Kamloops_spec
 62
7
100
AcDbLine
 10
1.316374
 20
2.100796
 30
0.0
 11
0.924981
 21
2.101828
 31
0.0
  0
LINE
  5
11a
100
AcDbEntity
  8
Kamloops_spec
 62
7
100
AcDbLine
 10
0.924981
 20
2.101828
 30
0.0
 11
0.526850
 21
1.676409
 31
0.0
  0
LINE
  5
11b
100
AcDbEntity
  8
Kamloops_spec
 62
7
100
AcDbLine
 10
0.526850
 20
1.676409
 30
0.0
 11
0.520039
 21
2.102763
 31
0.0
  0
LINE
  5
11c
100
AcDbEntity
  8
Kamloops_spec
 62
7
100
AcDbLine
 10
0.520039
 20
2.102763
 30
0.0
 11
0.222028
 21
2.102763
 31
0.0
  0
LINE
  5
11d
100
AcDbEntity
  8
Kamloops_spec
 62
7
100
AcDbLine
 10
0.222028
 20
2.102763
 30
0.0
 11
0.222028
 21
0.895928
 31
0.0
  0
LINE
  5
11e
100
AcDbEntity
  8
Kamloops_spec
 62
7
100
AcDbLine
 10
0.222028
 20
0.895928
 30
0.0
 11
0.520626
 21
0.895928
 31
0.0
  0
LINE
  5
11f
100
AcDbEntity
  8
Kamloops_spec
 62
7
100
AcDbLine
 10
0.520626
 20
0.895928
 30
0.0
 11
0.521351
 21
1.238073
 31
0.0
  0
ENDSEC
  0
SECTION
  2
OBJECTS
  0
DICTIONARY
  5
C
330
0
100
AcDbDictionary
  3
ACAD_GROUP
350
D
  3
ACAD_MLINESTYLE
350
17
  0
DICTIONARY
  5
D
330
C
100
AcDbDictionary
  0
DICTIONARY
  5
1A
330
C
100
AcDbDictionary
  0
DICTIONARY
  5
17
330
C
100
AcDbDictionary
  3
STANDARD
350
18
  0
DICTIONARY
  5
19
330
C
100
AcDbDictionary
  0
ENDSEC
  0
EOF
