  0
SECTION
  2
HEADER
  9
$ACADVER
  1
AC1014
  9
$HANDSEED
  5
FFFF
  9
$MEASUREMENT
 70
     1
  0
ENDSEC
  0
SECTION
  2
TABLES
  0
TABLE
  2
VPORT
  5
8
330
0
100
AcDbSymbolTable
 70
     4
  0
VPORT
  5
2E
330
8
100
AcDbSymbolTableRecord
100
AcDbViewportTableRecord
  2
*ACTIVE
 70
     0
 10
0.0
 20
0.0
 11
1.0
 21
1.0
 12
210.0
 22
148.5
 13
0.0
 23
0.0
 14
10.0
 24
10.0
 15
10.0
 25
10.0
 16
0.0
 26
0.0
 36
1.0
 17
0.0
 27
0.0
 37
0.0
 40
341.0
 41
1.24
 42
50.0
 43
0.0
 44
0.0
 50
0.0
 51
0.0
 71
     0
 72
   100
 73
     1
 74
     3
 75
     0
 76
     0
 77
     0
 78
     0
  0
ENDTAB
  0
TABLE
  2
LTYPE
  5
5
330
0
100
AcDbSymbolTable
 70
     1
  0
LTYPE
  5
14
330
5
100
AcDbSymbolTableRecord
100
AcDbLinetypeTableRecord
  2
BYBLOCK
 70
     0
  3

 72
    65
 73
     0
 40
0.0
  0
LTYPE
  5
15
330
5
100
AcDbSymbolTableRecord
100
AcDbLinetypeTableRecord
  2
BYLAYER
 70
     0
  3

 72
    65
 73
     0
 40
0.0
  0
LTYPE
  5
16
330
5
100
AcDbSymbolTableRecord
100
AcDbLinetypeTableRecord
  2
CONTINUOUS
 70
     0
  3
Solid line
 72
    65
 73
     0
 40
0.0
  0
ENDTAB
  0
TABLE
  2
LAYER
  5
2
100
AcDbSymbolTable
 70
2
  0
LAYER
  5
50
100
AcDbSymbolTableRecord
100
AcDbLayerTableRecord
  2
0
 70
0
  6
CONTINUOUS
  0
LAYER
  5
51
100
AcDbSymbolTableRecord
100
AcDbLayerTableRecord
  2
Kamloops_spec
 70
0
  6
CONTINUOUS
  0
ENDTAB
  0
TABLE
  2
STYLE
  5
3
330
0
100
AcDbSymbolTable
 70
     1
  0
STYLE
  5
11
330
3
100
AcDbSymbolTableRecord
100
AcDbTextStyleTableRecord
  2
STANDARD
 70
     0
 40
0.0
 41
1.0
 50
0.0
 71
     0
 42
2.5
  3
txt
  4

  0
ENDTAB
  0
TABLE
  2
VIEW
  5
6
330
0
100
AcDbSymbolTable
 70
     0
  0
ENDTAB
  0
TABLE
  2
UCS
  5
7
330
0
100
AcDbSymbolTable
 70
     0
  0
ENDTAB
  0
TABLE
  2
APPID
  5
9
330
0
100
AcDbSymbolTable
 70
     2
  0
APPID
  5
12
330
9
100
AcDbSymbolTableRecord
100
AcDbRegAppTableRecord
  2
ACAD
 70
     0
  0
ENDTAB
  0
TABLE
  2
DIMSTYLE
  5
A
330
0
100
AcDbSymbolTable
 70
     1
  0
DIMSTYLE
105
27
330
A
100
AcDbSymbolTableRecord
100
AcDbDimStyleTableRecord
  2
ISO-25
 70
     0
  3

  4

  5

  6

  7

 40
1.0
 41
2.5
 42
0.625
 43
3.75
 44
1.25
 45
0.0
 46
0.0
 47
0.0
 48
0.0
140
2.5
141
2.5
142
0.0
143
0.03937007874016
144
1.0
145
0.0
146
1.0
147
0.625
 71
     0
 72
     0
 73
     0
 74
     0
 75
     0
 76
     0
 77
     1
 78
     8
170
     0
171
     3
172
     1
173
     0
174
     0
175
     0
176
     0
177
     0
178
     0
270
     2
271
     2
272
     2
273
     2
274
     3
340
11
275
     0
280
     0
281
     0
282
     0
283
     0
284
     8
285
     0
286
     0
287
     3
288
     0
  0
ENDTAB
  0
TABLE
  2
BLOCK_RECORD
  5
1
330
0
100
AcDbSymbolTable
 70
     1
  0
BLOCK_RECORD
  5
1F
330
1
100
AcDbSymbolTableRecord
100
AcDbBlockTableRecord
  2
*MODEL_SPACE
  0
BLOCK_RECORD
  5
1B
330
1
100
AcDbSymbolTableRecord
100
AcDbBlockTableRecord
  2
*PAPER_SPACE
  0
ENDTAB
  0
ENDSEC
  0
SECTION
  2
BLOCKS
  0
BLOCK
  5
20
330
1F
100
AcDbEntity
  8
0
100
AcDbBlockBegin
  2
*MODEL_SPACE
 70
     0
 10
0.0
 20
0.0
 30
0.0
  3
*MODEL_SPACE
  1

  0
ENDBLK
  5
21
330
1F
100
AcDbEntity
  8
0
100
AcDbBlockEnd
  0
BLOCK
  5
1C
330
1B
100
AcDbEntity
 67
     1
  8
0
100
AcDbBlockBegin
  2
*PAPER_SPACE
  1

  0
ENDBLK
  5
1D
330
1B
100
AcDbEntity
 67
     1
  8
0
100
AcDbBlockEnd
  0
ENDSEC
  0
SECTION
  2
ENTITIES
  0
LINE
  5
100
100
AcDbEntity
  8
Kamloops_spec
 62
7
100
AcDbLine
 10
2.101725
 20
2.701189
 30
0.0
 11
2.101725
 21
2.382830
 31
0.0
  0
LINE
  5
101
100
AcDbEntity
  8
Kamloops_spec
 62
7
100
AcDbLine
 10
2.101725
 20
2.382830
 30
0.0
 11
2.730085
 21
2.374964
 31
0.0
  0
LINE
  5
102
100
AcDbEntity
  8
Kamloops_spec
 62
7
100
AcDbLine
 10
2.730085
 20
2.374964
 30
0.0
 11
2.118870
 21
1.997838
 31
0.0
  0
LINE
  5
103
100
AcDbEntity
  8
Kamloops_spec
 62
7
100
AcDbLine
 10
2.118870
 20
1.997838
 30
0.0
 11
2.746767
 21
1.613772
 31
0.0
  0
LINE
  5
104
100
AcDbEntity
  8
Kamloops_spec
 62
7
100
AcDbLine
 10
2.746767
 20
1.613772
 30
0.0
 11
2.103579
 21
1.613772
 31
0.0
  0
LINE
  5
105
100
AcDbEntity
  8
Kamloops_spec
 62
7
100
AcDbLine
 10
2.103579
 20
1.613772
 30
0.0
 11
2.103579
 21
1.294488
 31
0.0
  0
LINE
  5
106
100
AcDbEntity
  8
Kamloops_spec
 62
7
100
AcDbLine
 10
2.103579
 20
1.294488
 30
0.0
 11
3.509974
 21
1.294488
 31
0.0
  0
LINE
  5
107
100
AcDbEntity
  8
Kamloops_spec
 62
7
100
AcDbLine
 10
3.509974
 20
1.294488
 30
0.0
 11
3.509974
 21
1.580455
 31
0.0
  0
LINE
  5
108
100
AcDbEntity
  8
Kamloops_spec
 62
7
100
AcDbLine
 10
3.509974
 20
1.580455
 30
0.0
 11
2.874663
 21
2.013108
 31
0.0
  0
LINE
  5
109
100
AcDbEntity
  8
Kamloops_spec
 62
7
100
AcDbLine
 10
2.874663
 20
2.013108
 30
0.0
 11
3.509974
 21
2.416610
 31
0.0
  0
LINE
  5
10a
100
AcDbEntity
  8
Kamloops_spec
 62
7
100
AcDbLine
 10
3.509974
 20
2.416610
 30
0.0
 11
3.509974
 21
2.701189
 31
0.0
  0
LINE
  5
10b
100
AcDbEntity
  8
Kamloops_spec
 62
7
100
AcDbLine
 10
3.509974
 20
2.701189
 30
0.0
 11
2.101725
 21
2.701189
 31
0.0
  0
LINE
  5
10c
100
AcDbEntity
  8
Kamloops_spec
 62
7
100
AcDbLine
 10
2.101725
 20
2.701189
 30
0.0
 11
2.101725
 21
2.701189
 31
0.0
  0
LINE
  5
10d
100
AcDbEntity
  8
Kamloops_spec
 62
7
100
AcDbLine
 10
0.486488
 20
2.701189
 30
0.0
 11
0.486488
 21
1.294488
 31
0.0
  0
LINE
  5
10e
100
AcDbEntity
  8
Kamloops_spec
 62
7
100
AcDbLine
 10
0.486488
 20
1.294488
 30
0.0
 11
0.834959
 21
1.294488
 31
0.0
  0
LINE
  5
10f
100
AcDbEntity
  8
Kamloops_spec
 62
7
100
AcDbLine
 10
0.834959
 20
1.294488
 30
0.0
 11
0.835885
 21
1.693362
 31
0.0
  0
LINE
  5
110
100
AcDbEntity
  8
Kamloops_spec
 62
7
100
AcDbLine
 10
0.835885
 20
1.693362
 30
0.0
 11
1.064338
 21
1.928891
 31
0.0
  0
LINE
  5
111
100
AcDbEntity
  8
Kamloops_spec
 62
7
100
AcDbLine
 10
1.064338
 20
1.928891
 30
0.0
 11
1.698721
 21
1.294488
 31
0.0
  0
LINE
  5
112
100
AcDbEntity
  8
Kamloops_spec
 62
7
100
AcDbLine
 10
1.698721
 20
1.294488
 30
0.0
 11
2.010121
 21
1.294488
 31
0.0
  0
LINE
  5
113
100
AcDbEntity
  8
Kamloops_spec
 62
7
100
AcDbLine
 10
2.010121
 20
1.294488
 30
0.0
 11
2.010121
 21
1.480968
 31
0.0
  0
LINE
  5
114
100
AcDbEntity
  8
Kamloops_spec
 62
7
100
AcDbLine
 10
2.010121
 20
1.480968
 30
0.0
 11
1.328935
 21
2.192648
 31
0.0
  0
LINE
  5
115
100
AcDbEntity
  8
Kamloops_spec
 62
7
100
AcDbLine
 10
1.328935
 20
2.192648
 30
0.0
 11
1.763596
 21
2.698875
 31
0.0
  0
LINE
  5
116
100
AcDbEntity
  8
Kamloops_spec
 62
7
100
AcDbLine
 10
1.763596
 20
2.698875
 30
0.0
 11
1.307155
 21
2.700263
 31
0.0
  0
LINE
  5
117
100
AcDbEntity
  8
Kamloops_spec
 62
7
100
AcDbLine
 10
1.307155
 20
2.700263
 30
0.0
 11
0.842373
 21
2.204215
 31
0.0
  0
LINE
  5
118
100
AcDbEntity
  8
Kamloops_spec
 62
7
100
AcDbLine
 10
0.842373
 20
2.204215
 30
0.0
 11
0.834495
 21
2.701188
 31
0.0
  0
LINE
  5
119
100
AcDbEntity
  8
Kamloops_spec
 62
7
100
AcDbLine
 10
0.834495
 20
2.701188
 30
0.0
 11
0.486488
 21
2.701188
 31
0.0
  0
LINE
  5
11a
100
AcDbEntity
  8
Kamloops_spec
 62
7
100
AcDbLine
 10
0.486488
 20
2.701188
 30
0.0
 11
0.486488
 21
2.701189
 31
0.0
  0
SPLINE
  5
11b
100
AcDbEntity
  8
Kamloops_spec
 62
7
100
AcDbSpline
 70
8
 71
3
 72
8
 73
4
 74
0
 40
0
 40
0
 40
0
 40
0
 40
1
 40
1
 40
1
 40
1
 10
1.665102
 20
0.025864
 30
0.0
 10
0.828595
 20
0.166278
 30
0.0
 10
0.168148
 20
0.830745
 30
0.0
 10
0.020307
 20
1.680672
 30
0.0
  0
SPLINE
  5
11c
100
AcDbEntity
  8
Kamloops_spec
 62
7
100
AcDbSpline
 70
8
 71
3
 72
8
 73
4
 74
0
 40
0
 40
0
 40
0
 40
0
 40
1
 40
1
 40
1
 40
1
 10
0.020307
 20
1.680672
 30
0.0
 10
-0.012067
 20
1.866790
 30
0.0
 10
-0.002541
 20
2.250990
 30
0.0
 10
0.039068
 20
2.437334
 30
0.0
  0
SPLINE
  5
11d
100
AcDbEntity
  8
Kamloops_spec
 62
7
100
AcDbSpline
 70
8
 71
3
 72
8
 73
4
 74
0
 40
0
 40
0
 40
0
 40
0
 40
1
 40
1
 40
1
 40
1
 10
0.039068
 20
2.437334
 30
0.0
 10
0.137684
 20
2.878979
 30
0.0
 10
0.412359
 20
3.307257
 30
0.0
 10
0.777897
 20
3.589331
 30
0.0
  0
SPLINE
  5
11e
100
AcDbEntity
  8
Kamloops_spec
 62
7
100
AcDbSpline
 70
8
 71
3
 72
8
 73
4
 74
0
 40
0
 40
0
 40
0
 40
0
 40
1
 40
1
 40
1
 40
1
 10
0.777897
 20
3.589331
 30
0.0
 10
1.403101
 20
4.071781
 30
0.0
 10
2.297869
 20
4.134655
 30
0.0
 10
2.980163
 20
3.744081
 30
0.0
  0
SPLINE
  5
11f
100
AcDbEntity
  8
Kamloops_spec
 62
7
100
AcDbSpline
 70
8
 71
3
 72
8
 73
4
 74
0
 40
0
 40
0
 40
0
 40
0
 40
1
 40
1
 40
1
 40
1
 10
2.980163
 20
3.744081
 30
0.0
 10
3.170658
 20
3.635034
 30
0.0
 10
3.280900
 20
3.548939
 30
0.0
 10
3.435622
 20
3.388387
 30
0.0
  0
SPLINE
  5
120
100
AcDbEntity
  8
Kamloops_spec
 62
7
100
AcDbSpline
 70
8
 71
3
 72
8
 73
4
 74
0
 40
0
 40
0
 40
0
 40
0
 40
1
 40
1
 40
1
 40
1
 10
3.435622
 20
3.388387
 30
0.0
 10
3.809655
 20
3.000262
 30
0.0
 10
3.999023
 20
2.535086
 30
0.0
 10
3.999086
 20
2.004268
 30
0.0
  0
SPLINE
  5
121
100
AcDbEntity
  8
Kamloops_spec
 62
7
100
AcDbSpline
 70
8
 71
3
 72
8
 73
4
 74
0
 40
0
 40
0
 40
0
 40
0
 40
1
 40
1
 40
1
 40
1
 10
3.999086
 20
2.004268
 30
0.0
 10
3.999197
 20
1.135883
 30
0.0
 10
3.451341
 20
0.377867
 30
0.0
 10
2.623691
 20
0.101236
 30
0.0
  0
SPLINE
  5
122
100
AcDbEntity
  8
Kamloops_spec
 62
7
100
AcDbSpline
 70
8
 71
3
 72
8
 73
4
 74
0
 40
0
 40
0
 40
0
 40
0
 40
1
 40
1
 40
1
 40
1
 10
2.623691
 20
0.101236
 30
0.0
 10
2.330760
 20
0.003328
 30
0.0
 10
1.968874
 20
-0.025126
 30
0.0
 10
1.665102
 20
0.025864
 30
0.0
  0
LINE
  5
123
100
AcDbEntity
  8
Kamloops_spec
 62
7
100
AcDbLine
 10
1.665102
 20
0.025864
 30
0.0
 11
1.665102
 21
0.025864
 31
0.0
  0
ENDSEC
  0
SECTION
  2
OBJECTS
  0
DICTIONARY
  5
C
330
0
100
AcDbDictionary
  3
ACAD_GROUP
350
D
  3
ACAD_MLINESTYLE
350
17
  0
DICTIONARY
  5
D
330
C
100
AcDbDictionary
  0
DICTIONARY
  5
1A
330
C
100
AcDbDictionary
  0
DICTIONARY
  5
17
330
C
100
AcDbDictionary
  3
STANDARD
350
18
  0
DICTIONARY
  5
19
330
C
100
AcDbDictionary
  0
ENDSEC
  0
EOF
