<?xml version="1.0" encoding="UTF-8" standalone="no"?>
<!-- Created with Inkscape (http://www.inkscape.org/) -->

<svg
   xmlns:dc="http://purl.org/dc/elements/1.1/"
   xmlns:cc="http://creativecommons.org/ns#"
   xmlns:rdf="http://www.w3.org/1999/02/22-rdf-syntax-ns#"
   xmlns:svg="http://www.w3.org/2000/svg"
   xmlns="http://www.w3.org/2000/svg"
   xmlns:sodipodi="http://sodipodi.sourceforge.net/DTD/sodipodi-0.dtd"
   xmlns:inkscape="http://www.inkscape.org/namespaces/inkscape"
   id="svg2"
   version="1.1"
   inkscape:version="0.91 r13725"
   width="1080"
   height="534.87408"
   xml:space="preserve"
   sodipodi:docname="KM_full_simple_12in.svg"><title
     id="title3011">KM Full Logo for cutting</title><metadata
     id="metadata8"><rdf:RDF><cc:Work
         rdf:about=""><dc:format>image/svg+xml</dc:format><dc:type
           rdf:resource="http://purl.org/dc/dcmitype/StillImage" /><dc:title>KM Full Logo for cutting</dc:title></cc:Work></rdf:RDF></metadata><defs
     id="defs6"><clipPath
       clipPathUnits="userSpaceOnUse"
       id="clipPath18"><path
         d="M 0,792 612,792 612,0 0,0 0,792 z"
         id="path20"
         inkscape:connector-curvature="0" /></clipPath></defs><sodipodi:namedview
     pagecolor="#ffffff"
     bordercolor="#666666"
     borderopacity="1"
     objecttolerance="10"
     gridtolerance="10"
     guidetolerance="10"
     inkscape:pageopacity="0"
     inkscape:pageshadow="2"
     inkscape:window-width="1215"
     inkscape:window-height="1000"
     id="namedview4"
     showgrid="false"
     inkscape:zoom="0.4767677"
     inkscape:cx="205.88008"
     inkscape:cy="-2.2051105"
     inkscape:window-x="65"
     inkscape:window-y="24"
     inkscape:window-maximized="1"
     inkscape:current-layer="g3308"
     fit-margin-top="0"
     fit-margin-left="0"
     fit-margin-right="0"
     fit-margin-bottom="0"
     showguides="true"
     inkscape:guide-bbox="true" /><g
     id="g10"
     inkscape:groupmode="layer"
     inkscape:label="Kamloops_spec"
     transform="matrix(1.25,0,0,-1.25,26.548489,1172.923)"><g
       id="g14"
       transform="matrix(2.1661969,0,0,2.1661969,-130.02842,-733.55845)"><g
         id="g16"
         clip-path="url(#clipPath18)"><g
           id="g3292"
           transform="translate(260.0693,594.876)" /><g
           id="g3296"
           transform="translate(230.5771,593.3442)" /><g
           id="g3300"
           transform="translate(197.2505,594.876)" /><g
           id="g3304"
           transform="translate(313.9463,635.7412)" /><g
           id="g3312"
           transform="translate(249.5732,595.1743)" /><g
           id="g3316"
           transform="translate(259.5039,640.3477)" /><g
           id="g3320"
           transform="translate(353.0244,643.2485)" /><g
           id="g3328"
           transform="translate(81.1328,612.8979)" /><g
           id="g3336"
           transform="translate(251.8184,560.4102)" /><g
           id="g3348"
           transform="translate(67.5649,724.2886)" /><g
           id="g3352"
           transform="translate(204.0254,736.9946)" /></g><g
         id="g3344"
         transform="translate(-48.416769,681.07519)" /></g><g
       id="g3308"
       transform="matrix(2.1661969,0,0,2.1661969,151.84587,665.30086)"><path
         style="fill:#1f242d;fill-opacity:1;fill-rule:nonzero;stroke:none"
         d="m 87.427972,126.04203 c -0.14116,-0.0292 -0.112988,-0.23869 -0.101455,-0.4185 l 0.329728,0.0507 c -0.03628,0.14065 -0.08465,0.27437 -0.164864,0.36777 -0.02776,0.003 -0.04324,0.004 -0.06341,0 z M 120.31196,123.83539 -45.845391,101.2871 c 0,0 -13.547812,-2.035976 -23.283842,-11.413649 C -81.210014,78.237337 -79.807335,67.756338 -79.807335,67.756338 l 0,-82.14022 c 0,0 -1.842069,-10.782653 10.678102,-22.345387 10.206496,-9.425977 26.847436,-12.12383 26.847436,-12.12383 l 161.693347,-22.637069 166.81681,23.512115 c 0,0 13.63494,2.737465 22.32002,10.652738 10.99373,10.019292 10.39908,23.347251 10.39912,23.347251 l -0.30436,83.902995 c 0,0 0.35967,9.952145 -9.40996,19.352474 -11.49166,11.057345 -30.08129,12.884745 -30.08129,12.884745 z M 82.644235,76.925297 c 0,19.609929 16.256945,37.320753 37.699605,37.049053 21.44267,-0.2717 36.76068,-18.120615 36.48681,-37.185983 C 156.55678,57.723 141.01964,39.50916 119.84718,39.785199 98.674718,40.061238 82.644235,57.315368 82.644235,76.925297 Z m 69.851645,0.304368 c 0,16.926817 -14.31997,32.042855 -32.23273,32.468575 -17.91276,0.42573 -33.291012,-14.558345 -33.159923,-32.468575 0.131089,-17.91023 13.598383,-32.513173 32.690003,-32.824355 19.09161,-0.311181 32.70265,15.897548 32.70265,32.824355 z M -62.45859,112.07934 c -0.152741,-0.056 -0.291123,-0.12041 -0.443864,-0.17755 0.07912,-0.0549 0.156433,-0.10154 0.266319,-0.12682 0.08901,0.0725 0.136887,0.18569 0.177545,0.30437 z m 251.5568,-21.026479 4.24842,-8.420736 8.85191,-1.445728 -6.12532,-6.708689 1.24282,-8.940691 -8.09101,3.956731 -8.37001,-3.969413 1.50914,8.966055 -6.41701,6.58187 9.25774,1.458411 z m -136.012637,-0.03804 4.425959,-8.458782 8.788509,-1.407683 -6.378961,-6.848189 1.38232,-8.598281 -8.230509,3.639685 -8.420735,-4.210368 -0.266319,0.266319 0.126818,0.380455 1.712048,8.636327 -6.290189,6.683325 8.370009,1.369638 z m 68.443847,-0.266319 25.28757,0 0.81163,0 0,-0.76091 0,-4.083549 0,-0.443864 -0.40581,-0.215591 -12.03506,-7.596417 12.03506,-7.68519 0.40581,-0.228273 0,-5.174187 -0.81163,0 -23.37262,0 -1.97836,0 0,5.770233 0.87504,0 11.56583,0 -11.98433,7.330099 11.95897,7.241325 -12.3521,0 z m -29.295034,-0.177545 6.239461,0 0,-9.536737 8.775823,9.270418 0.22828,0.266319 0.35509,0 1.66132,0 4.55278,0 1.82618,0 -1.24282,-1.356956 c -2.40385,-3.462589 -4.90763,-5.3724 -7.25401,-7.951508 l 10.36106,-10.766875 0,-5.935097 -3.01828,0 -11.9336,11.920921 -4.311823,-4.552777 0,-6.505779 0,-0.811638 -0.811637,0 -4.616187,0 -0.811637,0 0,0.811638 z m -79.591172,-7.089144 3.297276,-5.706824 6.30287,-1.116001 -4.616186,-4.882505 1.103319,-6.708689 -6.074597,3.221185 -6.1380065,-3.25923 1.1033193,6.962325 -4.6288683,4.552777 6.4677338,1.065274 z m 216.973446,0 3.29728,-5.706824 6.30287,-1.116001 -4.59082,-4.869823 1.00186,-6.353598 -5.99851,2.853412 -6.03655,-2.802684 1.14137,6.404324 -4.75569,4.743005 6.46773,0.976501 z m 32.84594,-5.567324 2.15592,-4.311822 4.00745,-0.634092 -2.68854,-3.284594 0.76091,-4.185004 -4.33719,1.762774 -3.86796,-1.597911 0.6975,4.020141 -2.79,3.11973 4.13428,0.811637 z m -282.639965,-0.456546 2.067139,-3.842595 3.944049,-0.748228 -2.751957,-3.145094 0.76091,-4.590823 -3.969414,2.130548 -4.261095,-2.067138 0.824319,4.387913 -2.84073,3.271913 4.159641,0.760909 z m -44.411772,-25.338298 14.698242,-2.536366 0.976501,-27.291301 10.069374,23.651615 15.814243,-2.244684 -10.576647,-25.07198 12.225285,-30.106667 -17.082426,0 -10.323011,25.452435 -0.02536,0 -0.03805,-0.1395 -0.190228,0.494591 -0.05073,-25.985072 -7.127189,-0.02536 -8.496827,0.07609 0.126819,63.726201 z m 364.285597,-0.72287 c 5.19041,0.03214 8.45878,-1.268183 8.45878,-1.268183 0,0 -1.35158,-13.791517 -1.49645,-13.962696 -6.16398,1.13835 -16.97317,3.379641 -17.94479,-4.02014 -1.23885,-9.43508 11.03167,-7.513918 16.87951,-12.631104 3.90799,-3.419728 5.24772,-9.069977 4.67962,-13.5188319 -1.15484,-9.0444709 -2.76929,-14.3811681 -12.65649,-17.2980181 -8.8064,-1.502652 -23.77843,2.1685936 -23.77843,2.1685936 l 1.62327,12.3394216 c 0,0 7.84489,-1.9222409 11.32488,-2.4983207 5.93288,-0.91824167 8.9842,0.570512 9.27042,4.5274137 0.20941,2.895049 -0.87573,3.9025139 -6.11265,5.7195058 -11.31441,3.925638 -15.028,8.359603 -14.98992,17.906746 0.0438,10.979503 4.9222,18.294399 16.60052,21.419612 3.0281,0.810343 5.78245,1.101388 8.14173,1.116001 z M -3.0315293,42.418039 15.103489,40.465037 24.868499,9.5340509 10.157575,9.8257331 C 8.9977211,15.118464 7.5902327,20.406637 6.3149802,25.66534 L 6.2896166,25.792158 6.2642529,25.690704 3.854705,17.574332 C 3.253363,15.037142 2.5461795,12.527803 1.8890212,10.003279 l -14.0261052,0.279 8.8645999,32.097714 0.2409548,0.03805 z M 211.25337,15.025284 c -0.0545,3.686123 -0.4548,7.098205 -1.20477,8.560236 -1.14283,2.227964 -3.11261,3.32264 -5.97315,3.32264 -3.51168,0 -5.59809,-1.22164 -7.02573,-4.121596 -0.73374,-1.614719 -1.1313,-5.323812 -1.26818,-8.509508 l -0.0254,-4.375232 c 0.28409,-4.0166991 0.66068,-8.7221535 4.69228,-10.27228314 1.25146,-0.45288544 4.16155,-0.48045269 5.55464,0.0380455 4.75383,1.76938934 4.90191,7.04360664 5.14883,10.98246564 z m 14.91383,-4.375232 c -0.30914,-4.9980577 -1.29638,-9.424873 -2.90414,-12.7832857 -3.65987,-7.6450176 -11.17073,-10.9055993 -23.15702,-10.0566923 -10.07324,0.713417 -16.18301,5.5429547 -18.54084,14.6475152 -0.54141,2.0906638 -0.86304,4.3651674 -0.95113,7.4442348 l 0.038,4.375232 c 0.048,0.891725 0.11732,2.497152 0.21559,3.297276 0.98605,8.254667 4.86577,15.390252 11.46438,18.477428 4.10081,1.902295 8.18557,2.780458 13.48079,2.878775 5.62952,-0.09695 11.35605,-1.454352 14.68556,-4.679595 3.11352,-3.104833 4.86609,-7.636816 5.49123,-14.229015 0.16088,-1.69665 0.25366,-3.365961 0.279,-4.996641 z M 36.700648,38.499353 52.705118,37.281897 63.028129,9.1662778 65.133313,9.153596 75.367551,35.988351 91.372021,35.265486 C 91.593233,17.837761 91.77784,4.3094125 91.77784,-11.910925 l -12.960831,0 0.06341,22.091749 -1.090638,0.380455 -9.333827,-22.484886 c -3.009993,0.04567 -6.019715,0.105687 -9.029464,0.164864 l -8.268554,23.118978 -2.117866,-0.722865 0,-22.548295 -12.339421,0 c -9e-6,16.8034176 -1.3e-5,33.60686 -10e-7,50.410278 z m 60.492334,-3.081685 c 0,0 9.422498,-0.380455 14.736288,-0.380455 l 0.15218,-35.66130876 c 5.96883,-0.0642411 11.9378,-0.11413648 17.90675,-0.16486381 l 0,-11.12196543 -32.795218,0 z M 269.28542,21.493018 C 267.32662,7.8599275 259.01363,4.0617658 244.09931,3.0536353 l -0.0507,-14.6728783 -14.44461,0 c 0.15525,17.4079004 0.30671,34.815833 0.45652,52.223781 4.46884,1.365941 9.57938,2.806065 16.8922,2.828048 l 1e-5,-10e-7 c 2.43761,0.0074 5.11835,-0.144824 8.10369,-0.507273 11.47838,-1.393597 14.2879,-9.981632 14.57142,-17.057063 z m -12.19991,4.375231 c -0.84905,2.865331 -3.48332,5.162467 -8.05296,5.212233 -1.35929,0.01481 -2.88465,-0.169535 -4.59083,-0.596046 l 0,-0.06341 c -0.0255,-0.0024 -0.0505,-0.01033 -0.0761,-0.01268 -0.14708,-5.090985 -0.31449,-10.744699 -0.31704,-15.636699 7.37973,-1.228368 11.86591,2.51125 13.03692,6.721371 z M 163.04973,13.985374 c -0.0159,1.257834 -0.0755,2.036531 -0.17754,3.246548 -0.24008,4.859828 -2.75346,7.533024 -7.34279,7.571054 -3.34686,0.0033 -5.61929,-1.425787 -6.93696,-4.337187 -0.38868,-1.541826 -0.65333,-4.147604 -0.76091,-6.936961 l -0.038,-4.375232 c 0.0782,-2.8529778 0.36304,-5.407971 0.90041,-6.6579613 0.81231,-1.73233408 2.09436,-2.94609692 3.71577,-3.5128672 1.20082,-0.4197504 4.22997,-0.4411005 5.68146,-0.038045 4.59738,1.95642708 4.47368,6.2300743 4.83178,10.6654194 z m 14.98993,-4.3752321 c 0,0 -0.45374,-5.7520484 -0.90041,-7.4569167 -1.92923,-7.3635215 -6.10398,-11.7060727 -12.9862,-13.5188322 -2.58965,-0.6821 -7.64544,-1.124953 -10.98247,-0.951137 -6.70713,0.349365 -12.22537,2.5426888 -15.44647,6.1253244 -3.09962,3.4475263 -4.90988,8.8292085 -5.22491,15.3450156 l 0.0127,4.514732 c 0.6809,13.102287 5.61444,19.521546 16.77806,21.850795 1.95346,0.407584 4.8557,0.595324 7.71056,0.570682 2.85486,-0.02464 5.6663,-0.257926 7.41887,-0.6975 7.68426,-1.927334 11.78911,-6.783973 13.27788,-15.687426 0.27799,-1.662586 0.42208,-3.40386 0.44386,-5.719505 z m -191.368836,-3.677731 39.579995,-0.7989553 5.26296,-16.6766076 -16.308835,0.07609 -1.547184,7.8246894 -15.1547877,0.456546 -1.7120472,-7.9007804 -14.8631061,-0.152182 z M 127.71815,-26.038485 c 1.98371,0.06493 3.36068,-0.443864 3.36068,-0.443864 l -0.44386,-3.348004 c 0,0 -1.95107,0.275924 -2.63782,0.367773 -3.25663,-0.1945 -1.5758,-3.208832 0.0507,-3.335321 4.35482,-1.351401 3.63201,-6.06541 2.34614,-7.951508 -1.24068,-1.692848 -3.94415,-2.31438 -6.41701,-1.471093 -0.9744,0.332289 -1.06884,0.459249 -1.14137,1.712047 -0.11056,1.909852 0.20643,2.294763 1.38232,1.686684 1.293,-0.48109 3.80185,-0.964696 3.61433,0.913092 -0.0828,0.724979 -0.41891,1.026189 -2.00373,1.864229 -2.07645,1.098003 -2.88105,2.118203 -3.18314,4.007459 -0.4273,2.672189 1.09873,5.355328 3.60164,5.846324 0.51197,0.08853 1.01331,0.137195 1.47109,0.152182 z m 37.25922,-0.164864 c -0.19634,-2.022101 -0.1486,-2.853534 -0.17755,-3.46214 -1.95265,0.05909 -4.34825,-0.156954 -4.41327,-4.666914 -0.0533,-3.692531 1.04522,-4.733281 4.51473,-4.514732 -0.0156,-1.185647 -0.0254,-3.576276 -0.0254,-3.576276 -4.63769,-0.433495 -8.20458,1.60007 -8.26855,8.154417 0.39388,6.0226 3.12164,8.064407 8.37001,8.065645 z m -54.39237,-0.08877 c 4.55962,-0.22643 8.13387,0.343842 9.09287,-3.32264 0.16224,-0.580588 0.24266,-1.116975 0.26632,-1.610592 l -3.08169,0 c -0.21012,1.904011 -1.7487,1.456483 -3.05632,1.445729 0.033,-0.44326 0.057,-0.946029 0.0761,-1.445729 l -3.29727,0 0,4.933232 z m 26.14993,-0.03805 c 1.2671,0.01182 2.48598,-0.07319 3.4875,-0.558001 1.56125,-0.784399 2.48016,-2.406999 2.62514,-4.489368 l -3.627,0 c -0.0747,0.417534 -0.19458,0.792633 -0.36777,1.03991 -0.80265,0.798521 -1.47792,0.672137 -2.53637,0.672137 l 0,-1.712047 -3.30996,0 0,5.022005 c 1.14603,-0.09512 2.46135,0.01354 3.72846,0.02536 z m 14.53338,-0.01268 c 0.67622,-2.645479 1.54546,-6.114968 2.13055,-8.420736 l -3.2846,0 c -0.36696,1.615844 -0.54319,3.089193 -1.01454,4.730323 -0.091,0.09782 -0.85139,-3.01619 -1.1921,-4.730323 l -3.15777,0 c 0.59615,2.518993 1.29938,5.460407 1.96568,8.255872 1.51726,0.06458 3.03502,0.11427 4.55278,0.164864 z m -92.298367,-0.01268 4.08355,0 2.599775,-9.130918 3.284594,9.130918 3.88064,0 0,-15.953744 -3.018275,0 -0.405819,7.520326 -2.384184,-7.520326 -2.232002,0 -2.320776,7.431553 -0.494591,-7.431553 -2.992912,0 z m 18.76911,0 4.565459,0 2.092502,-8.408054 -3.424094,0 c -0.302071,1.602675 -0.634993,3.175587 -0.913092,4.552777 l -0.01268,0.07609 -0.01268,-0.05073 -0.01268,0 -1.014547,-4.578141 -2.866094,0 1.597911,8.408054 z m 10.120101,0 3.893322,0 0.164864,-7.380826 2.625139,7.304735 3.842595,0.05073 -2.777321,-7.177916 3.069003,-8.750464 -4.108913,0 -2.650503,6.772098 -0.164864,-6.772098 -3.88064,0 z m 12.364786,0 8.69974,0 0,-3.614322 -5.11078,0 0,-1.356956 0,-1.356956 4.21037,0 0,-3.005594 -4.21037,0 0,-3.005594 5.4405,0 -0.0888,-1.737411 -0.0888,-1.724729 -4.42596,-0.08877 -4.42596,-0.07609 -0.0888,2.790002 c -0.0477,1.535423 -0.0489,5.121703 0,7.976872 l 0.0888,5.199551 z m 66.47816,0 8.43342,0 0,-3.614322 -5.12346,0 0,-2.713912 4.22305,0 0,-2.98023 c -1.35697,-0.05878 -2.91683,-0.01671 -4.27378,-0.07609 -0.0586,-0.951174 0.0848,-2.003746 0.0254,-2.954867 l 5.45319,0 0,-3.614322 -8.73778,0 0,15.953744 z m 18.66765,-6.16337 32.9474,-2.726594 -32.90935,-2.84073 -0.038,5.567324 z m -134.681043,-0.01268 0,-5.415142 -32.795215,2.713912 z m 59.896293,-0.202909 3.33532,0 c 0.0121,-0.65909 0.0254,-1.255501 0.0254,-1.255501 1.03012,0.05213 2.46198,-0.45705 2.86609,1.255501 l 3.01828,0 c -0.44866,-2.034243 -1.91496,-2.98023 -1.91496,-2.98023 l 3.20851,-6.594553 -2.04178,0 -2.02909,0 -1.35696,3.233867 -1.35695,3.233867 -0.0761,-3.233867 -0.0888,-3.233867 -1.80082,0 -1.78813,0 0,9.574783 z m 22.42147,-0.152182 3.30996,0 0,-1.597911 c 0.85103,0.01587 2.28048,-0.139297 2.68855,0.583364 0.13941,0.260495 0.22312,0.620728 0.26632,1.014547 l 3.56359,0 c -0.0127,-0.129237 -0.0326,-0.261554 -0.0507,-0.393137 -0.95278,-4.46861 -3.23964,-4.453891 -6.46773,-4.552777 l 0,-2.244684 0,-2.232003 -1.66132,0 -1.64864,0 0,7.976872 0,1.445729 z m -57.144328,-3.386049 8.915327,0 1.496456,-6.036552 -3.60164,0.07609 -0.684819,2.346139 -3.969413,-0.01268 -0.393137,-2.409548 -2.929503,-0.07609 z m 68.519938,0 c 3.21498,-0.02865 6.20354,0 9.40991,0 0.58865,-2.30927 1.58523,-5.998506 1.58523,-5.998506 l -3.96941,-0.03805 -0.40582,2.409548 -4.08355,0 -0.38045,-2.409548 -3.61433,0 c 0,0 1.01559,4.192537 1.45842,6.036552 z"
         id="path3310"
         inkscape:connector-curvature="0"
         sodipodi:nodetypes="ccccccccsccscccsccscczzzzzszzzscccccccccccccccccccccccccccccccccccccccccccccccccccccccccccccccccccccccccccccccccccccccccccccccccccccccccccccccccccccccccccccccccccccsccsscccccssssscccccccccccccccsccccscccsssccccccscccccccccccccccccccccccccccccccccscccscccccccccccccsccccssssccsssscccccccccccccccccssccsscccccccccccccccccccccccccccccccccccccccccccccccccccccccccccccccccccccccccccccccccccccccccccccccccccccccccccccccccccccccccccccccccccccccccccccccccccccccccccccccccccccccccc" /></g></g></svg>