  0
SECTION
  2
HEADER
  9
$ACADVER
  1
AC1014
  9
$HANDSEED
  5
FFFF
  9
$MEASUREMENT
 70
     1
  0
ENDSEC
  0
SECTION
  2
TABLES
  0
TABLE
  2
VPORT
  5
8
330
0
100
AcDbSymbolTable
 70
     4
  0
VPORT
  5
2E
330
8
100
AcDbSymbolTableRecord
100
AcDbViewportTableRecord
  2
*ACTIVE
 70
     0
 10
0.0
 20
0.0
 11
1.0
 21
1.0
 12
210.0
 22
148.5
 13
0.0
 23
0.0
 14
10.0
 24
10.0
 15
10.0
 25
10.0
 16
0.0
 26
0.0
 36
1.0
 17
0.0
 27
0.0
 37
0.0
 40
341.0
 41
1.24
 42
50.0
 43
0.0
 44
0.0
 50
0.0
 51
0.0
 71
     0
 72
   100
 73
     1
 74
     3
 75
     0
 76
     0
 77
     0
 78
     0
  0
ENDTAB
  0
TABLE
  2
LTYPE
  5
5
330
0
100
AcDbSymbolTable
 70
     1
  0
LTYPE
  5
14
330
5
100
AcDbSymbolTableRecord
100
AcDbLinetypeTableRecord
  2
BYBLOCK
 70
     0
  3

 72
    65
 73
     0
 40
0.0
  0
LTYPE
  5
15
330
5
100
AcDbSymbolTableRecord
100
AcDbLinetypeTableRecord
  2
BYLAYER
 70
     0
  3

 72
    65
 73
     0
 40
0.0
  0
LTYPE
  5
16
330
5
100
AcDbSymbolTableRecord
100
AcDbLinetypeTableRecord
  2
CONTINUOUS
 70
     0
  3
Solid line
 72
    65
 73
     0
 40
0.0
  0
ENDTAB
  0
TABLE
  2
LAYER
  5
2
100
AcDbSymbolTable
 70
2
  0
LAYER
  5
50
100
AcDbSymbolTableRecord
100
AcDbLayerTableRecord
  2
0
 70
0
  6
CONTINUOUS
  0
LAYER
  5
51
100
AcDbSymbolTableRecord
100
AcDbLayerTableRecord
  2
Kamloops_spec
 70
0
  6
CONTINUOUS
  0
ENDTAB
  0
TABLE
  2
STYLE
  5
3
330
0
100
AcDbSymbolTable
 70
     1
  0
STYLE
  5
11
330
3
100
AcDbSymbolTableRecord
100
AcDbTextStyleTableRecord
  2
STANDARD
 70
     0
 40
0.0
 41
1.0
 50
0.0
 71
     0
 42
2.5
  3
txt
  4

  0
ENDTAB
  0
TABLE
  2
VIEW
  5
6
330
0
100
AcDbSymbolTable
 70
     0
  0
ENDTAB
  0
TABLE
  2
UCS
  5
7
330
0
100
AcDbSymbolTable
 70
     0
  0
ENDTAB
  0
TABLE
  2
APPID
  5
9
330
0
100
AcDbSymbolTable
 70
     2
  0
APPID
  5
12
330
9
100
AcDbSymbolTableRecord
100
AcDbRegAppTableRecord
  2
ACAD
 70
     0
  0
ENDTAB
  0
TABLE
  2
DIMSTYLE
  5
A
330
0
100
AcDbSymbolTable
 70
     1
  0
DIMSTYLE
105
27
330
A
100
AcDbSymbolTableRecord
100
AcDbDimStyleTableRecord
  2
ISO-25
 70
     0
  3

  4

  5

  6

  7

 40
1.0
 41
2.5
 42
0.625
 43
3.75
 44
1.25
 45
0.0
 46
0.0
 47
0.0
 48
0.0
140
2.5
141
2.5
142
0.0
143
0.03937007874016
144
1.0
145
0.0
146
1.0
147
0.625
 71
     0
 72
     0
 73
     0
 74
     0
 75
     0
 76
     0
 77
     1
 78
     8
170
     0
171
     3
172
     1
173
     0
174
     0
175
     0
176
     0
177
     0
178
     0
270
     2
271
     2
272
     2
273
     2
274
     3
340
11
275
     0
280
     0
281
     0
282
     0
283
     0
284
     8
285
     0
286
     0
287
     3
288
     0
  0
ENDTAB
  0
TABLE
  2
BLOCK_RECORD
  5
1
330
0
100
AcDbSymbolTable
 70
     1
  0
BLOCK_RECORD
  5
1F
330
1
100
AcDbSymbolTableRecord
100
AcDbBlockTableRecord
  2
*MODEL_SPACE
  0
BLOCK_RECORD
  5
1B
330
1
100
AcDbSymbolTableRecord
100
AcDbBlockTableRecord
  2
*PAPER_SPACE
  0
ENDTAB
  0
ENDSEC
  0
SECTION
  2
BLOCKS
  0
BLOCK
  5
20
330
1F
100
AcDbEntity
  8
0
100
AcDbBlockBegin
  2
*MODEL_SPACE
 70
     0
 10
0.0
 20
0.0
 30
0.0
  3
*MODEL_SPACE
  1

  0
ENDBLK
  5
21
330
1F
100
AcDbEntity
  8
0
100
AcDbBlockEnd
  0
BLOCK
  5
1C
330
1B
100
AcDbEntity
 67
     1
  8
0
100
AcDbBlockBegin
  2
*PAPER_SPACE
  1

  0
ENDBLK
  5
1D
330
1B
100
AcDbEntity
 67
     1
  8
0
100
AcDbBlockEnd
  0
ENDSEC
  0
SECTION
  2
ENTITIES
  0
SPLINE
  5
100
100
AcDbEntity
  8
Kamloops_spec
 62
7
100
AcDbSpline
 70
8
 71
3
 72
8
 73
4
 74
0
 40
0
 40
0
 40
0
 40
0
 40
1
 40
1
 40
1
 40
1
 10
5.034318
 20
5.942966
 30
0.0
 10
5.030071
 20
5.942088
 30
0.0
 10
5.030918
 20
5.935785
 30
0.0
 10
5.031265
 20
5.930375
 30
0.0
  0
LINE
  5
101
100
AcDbEntity
  8
Kamloops_spec
 62
7
100
AcDbLine
 10
5.031265
 20
5.930375
 30
0.0
 11
5.041185
 21
5.931901
 31
0.0
  0
SPLINE
  5
102
100
AcDbEntity
  8
Kamloops_spec
 62
7
100
AcDbSpline
 70
8
 71
3
 72
8
 73
4
 74
0
 40
0
 40
0
 40
0
 40
0
 40
1
 40
1
 40
1
 40
1
 10
5.041185
 20
5.931901
 30
0.0
 10
5.040094
 20
5.936132
 30
0.0
 10
5.038639
 20
5.940155
 30
0.0
 10
5.036225
 20
5.942965
 30
0.0
  0
SPLINE
  5
103
100
AcDbEntity
  8
Kamloops_spec
 62
7
100
AcDbSpline
 70
8
 71
3
 72
8
 73
4
 74
0
 40
0
 40
0
 40
0
 40
0
 40
1
 40
1
 40
1
 40
1
 10
5.036225
 20
5.942965
 30
0.0
 10
5.035390
 20
5.943056
 30
0.0
 10
5.034924
 20
5.943086
 30
0.0
 10
5.034318
 20
5.942965
 30
0.0
  0
LINE
  5
104
100
AcDbEntity
  8
Kamloops_spec
 62
7
100
AcDbLine
 10
5.034318
 20
5.942965
 30
0.0
 11
5.034318
 21
5.942966
 31
0.0
  0
LINE
  5
105
100
AcDbEntity
  8
Kamloops_spec
 62
7
100
AcDbLine
 10
6.023667
 20
5.876577
 30
0.0
 11
1.024646
 21
5.198188
 31
0.0
  0
SPLINE
  5
106
100
AcDbEntity
  8
Kamloops_spec
 62
7
100
AcDbSpline
 70
8
 71
3
 72
8
 73
4
 74
0
 40
0
 40
0
 40
0
 40
0
 40
1
 40
1
 40
1
 40
1
 10
1.024646
 20
5.198188
 30
0.0
 10
1.024646
 20
5.198188
 30
0.0
 10
0.617046
 20
5.136933
 30
0.0
 10
0.324127
 20
4.854796
 30
0.0
  0
SPLINE
  5
107
100
AcDbEntity
  8
Kamloops_spec
 62
7
100
AcDbSpline
 70
8
 71
3
 72
8
 73
4
 74
0
 40
0
 40
0
 40
0
 40
0
 40
1
 40
1
 40
1
 40
1
 10
0.324127
 20
4.854796
 30
0.0
 10
-0.039336
 20
4.504711
 30
0.0
 10
0.002865
 20
4.189379
 30
0.0
 10
0.002865
 20
4.189379
 30
0.0
  0
LINE
  5
108
100
AcDbEntity
  8
Kamloops_spec
 62
7
100
AcDbLine
 10
0.002865
 20
4.189379
 30
0.0
 11
0.002865
 21
1.718103
 31
0.0
  0
SPLINE
  5
109
100
AcDbEntity
  8
Kamloops_spec
 62
7
100
AcDbSpline
 70
8
 71
3
 72
8
 73
4
 74
0
 40
0
 40
0
 40
0
 40
0
 40
1
 40
1
 40
1
 40
1
 10
0.002865
 20
1.718103
 30
0.0
 10
0.002865
 20
1.718103
 30
0.0
 10
-0.052556
 20
1.393695
 30
0.0
 10
0.324127
 20
1.045818
 30
0.0
  0
SPLINE
  5
10a
100
AcDbEntity
  8
Kamloops_spec
 62
7
100
AcDbSpline
 70
8
 71
3
 72
8
 73
4
 74
0
 40
0
 40
0
 40
0
 40
0
 40
1
 40
1
 40
1
 40
1
 10
0.324127
 20
1.045818
 30
0.0
 10
0.631200
 20
0.762227
 30
0.0
 10
1.131861
 20
0.681060
 30
0.0
 10
1.131861
 20
0.681060
 30
0.0
  0
LINE
  5
10b
100
AcDbEntity
  8
Kamloops_spec
 62
7
100
AcDbLine
 10
1.131861
 20
0.681060
 30
0.0
 11
5.996578
 21
-0.000001
 31
0.0
  0
LINE
  5
10c
100
AcDbEntity
  8
Kamloops_spec
 62
7
100
AcDbLine
 10
5.996578
 20
-0.000001
 30
0.0
 11
11.015440
 21
0.707386
 31
0.0
  0
SPLINE
  5
10d
100
AcDbEntity
  8
Kamloops_spec
 62
7
100
AcDbSpline
 70
8
 71
3
 72
8
 73
4
 74
0
 40
0
 40
0
 40
0
 40
0
 40
1
 40
1
 40
1
 40
1
 10
11.015440
 20
0.707386
 30
0.0
 10
11.015440
 20
0.707386
 30
0.0
 10
11.425661
 20
0.789746
 30
0.0
 10
11.686961
 20
1.027885
 30
0.0
  0
SPLINE
  5
10e
100
AcDbEntity
  8
Kamloops_spec
 62
7
100
AcDbSpline
 70
8
 71
3
 72
8
 73
4
 74
0
 40
0
 40
0
 40
0
 40
0
 40
1
 40
1
 40
1
 40
1
 10
11.686961
 20
1.027885
 30
0.0
 10
12.017719
 20
1.329326
 30
0.0
 10
11.999829
 20
1.730312
 30
0.0
 10
11.999830
 20
1.730312
 30
0.0
  0
LINE
  5
10f
100
AcDbEntity
  8
Kamloops_spec
 62
7
100
AcDbLine
 10
11.999830
 20
1.730312
 30
0.0
 11
11.990673
 21
4.254624
 31
0.0
  0
SPLINE
  5
110
100
AcDbEntity
  8
Kamloops_spec
 62
7
100
AcDbSpline
 70
8
 71
3
 72
8
 73
4
 74
0
 40
0
 40
0
 40
0
 40
0
 40
1
 40
1
 40
1
 40
1
 10
11.990673
 20
4.254624
 30
0.0
 10
11.990673
 20
4.254624
 30
0.0
 10
12.001494
 20
4.554044
 30
0.0
 10
11.707565
 20
4.836863
 30
0.0
  0
SPLINE
  5
111
100
AcDbEntity
  8
Kamloops_spec
 62
7
100
AcDbSpline
 70
8
 71
3
 72
8
 73
4
 74
0
 40
0
 40
0
 40
0
 40
0
 40
1
 40
1
 40
1
 40
1
 10
11.707565
 20
4.836863
 30
0.0
 10
11.361825
 20
5.169535
 30
0.0
 10
10.802536
 20
5.224515
 30
0.0
 10
10.802536
 20
5.224515
 30
0.0
  0
LINE
  5
112
100
AcDbEntity
  8
Kamloops_spec
 62
7
100
AcDbLine
 10
10.802536
 20
5.224515
 30
0.0
 11
6.023667
 21
5.876577
 31
0.0
  0
LINE
  5
113
100
AcDbEntity
  8
Kamloops_spec
 62
7
100
AcDbLine
 10
6.023667
 20
5.876577
 30
0.0
 11
6.023667
 21
5.876577
 31
0.0
  0
SPLINE
  5
114
100
AcDbEntity
  8
Kamloops_spec
 62
7
100
AcDbSpline
 70
8
 71
3
 72
8
 73
4
 74
0
 40
0
 40
0
 40
0
 40
0
 40
1
 40
1
 40
1
 40
1
 10
6.000012
 20
5.690383
 30
0.0
 10
6.664158
 20
5.690383
 30
0.0
 10
7.202646
 20
5.151894
 30
0.0
 10
7.202646
 20
4.487748
 30
0.0
  0
SPLINE
  5
115
100
AcDbEntity
  8
Kamloops_spec
 62
7
100
AcDbSpline
 70
8
 71
3
 72
8
 73
4
 74
0
 40
0
 40
0
 40
0
 40
0
 40
1
 40
1
 40
1
 40
1
 10
7.202646
 20
4.487748
 30
0.0
 10
7.202646
 20
4.248075
 30
0.0
 10
7.132344
 20
4.024754
 30
0.0
 10
7.011491
 20
3.837212
 30
0.0
  0
LINE
  5
116
100
AcDbEntity
  8
Kamloops_spec
 62
7
100
AcDbLine
 10
7.011491
 20
3.837212
 30
0.0
 11
6.995848
 21
3.847132
 31
0.0
  0
SPLINE
  5
117
100
AcDbEntity
  8
Kamloops_spec
 62
7
100
AcDbSpline
 70
8
 71
3
 72
8
 73
4
 74
0
 40
0
 40
0
 40
0
 40
0
 40
1
 40
1
 40
1
 40
1
 10
6.995848
 20
3.847132
 30
0.0
 10
7.115658
 20
4.032381
 30
0.0
 10
7.185095
 20
4.253024
 30
0.0
 10
7.185095
 20
4.490038
 30
0.0
  0
SPLINE
  5
118
100
AcDbEntity
  8
Kamloops_spec
 62
7
100
AcDbSpline
 70
8
 71
3
 72
8
 73
4
 74
0
 40
0
 40
0
 40
0
 40
0
 40
1
 40
1
 40
1
 40
1
 10
7.185095
 20
4.490038
 30
0.0
 10
7.185095
 20
5.144618
 30
0.0
 10
6.654593
 20
5.675121
 30
0.0
 10
6.000012
 20
5.675121
 30
0.0
  0
SPLINE
  5
119
100
AcDbEntity
  8
Kamloops_spec
 62
7
100
AcDbSpline
 70
8
 71
3
 72
8
 73
4
 74
0
 40
0
 40
0
 40
0
 40
0
 40
1
 40
1
 40
1
 40
1
 10
6.000012
 20
5.675121
 30
0.0
 10
5.620709
 20
5.675121
 30
0.0
 10
5.282888
 20
5.497116
 30
0.0
 10
5.065986
 20
5.219936
 30
0.0
  0
LINE
  5
11a
100
AcDbEntity
  8
Kamloops_spec
 62
7
100
AcDbLine
 10
5.065986
 20
5.219936
 30
0.0
 11
5.052632
 21
5.228712
 31
0.0
  0
SPLINE
  5
11b
100
AcDbEntity
  8
Kamloops_spec
 62
7
100
AcDbSpline
 70
8
 71
3
 72
8
 73
4
 74
0
 40
0
 40
0
 40
0
 40
0
 40
1
 40
1
 40
1
 40
1
 10
5.052632
 20
5.228712
 30
0.0
 10
5.272782
 20
5.509758
 30
0.0
 10
5.615366
 20
5.690383
 30
0.0
 10
6.000012
 20
5.690383
 30
0.0
  0
LINE
  5
11c
100
AcDbEntity
  8
Kamloops_spec
 62
7
100
AcDbLine
 10
6.000012
 20
5.690383
 30
0.0
 11
6.000012
 21
5.690383
 31
0.0
  0
SPLINE
  5
11d
100
AcDbEntity
  8
Kamloops_spec
 62
7
100
AcDbSpline
 70
8
 71
3
 72
8
 73
4
 74
0
 40
0
 40
0
 40
0
 40
0
 40
1
 40
1
 40
1
 40
1
 10
0.524820
 20
5.522884
 30
0.0
 10
0.520225
 20
5.521199
 30
0.0
 10
0.516062
 20
5.519261
 30
0.0
 10
0.511466
 20
5.517542
 30
0.0
  0
SPLINE
  5
11e
100
AcDbEntity
  8
Kamloops_spec
 62
7
100
AcDbSpline
 70
8
 71
3
 72
8
 73
4
 74
0
 40
0
 40
0
 40
0
 40
0
 40
1
 40
1
 40
1
 40
1
 10
0.511466
 20
5.517542
 30
0.0
 10
0.513847
 20
5.515890
 30
0.0
 10
0.516173
 20
5.514487
 30
0.0
 10
0.519479
 20
5.513727
 30
0.0
  0
SPLINE
  5
11f
100
AcDbEntity
  8
Kamloops_spec
 62
7
100
AcDbSpline
 70
8
 71
3
 72
8
 73
4
 74
0
 40
0
 40
0
 40
0
 40
0
 40
1
 40
1
 40
1
 40
1
 10
0.519479
 20
5.513727
 30
0.0
 10
0.522157
 20
5.515908
 30
0.0
 10
0.523597
 20
5.519313
 30
0.0
 10
0.524820
 20
5.522884
 30
0.0
  0
LINE
  5
120
100
AcDbEntity
  8
Kamloops_spec
 62
7
100
AcDbLine
 10
0.524820
 20
5.522884
 30
0.0
 11
0.524820
 21
5.522884
 31
0.0
  0
SPLINE
  5
121
100
AcDbEntity
  8
Kamloops_spec
 62
7
100
AcDbSpline
 70
8
 71
3
 72
8
 73
4
 74
0
 40
0
 40
0
 40
0
 40
0
 40
1
 40
1
 40
1
 40
1
 10
5.974066
 20
5.488163
 30
0.0
 10
5.982630
 20
5.488374
 30
0.0
 10
5.991396
 20
5.488163
 30
0.0
 10
6.000012
 20
5.488163
 30
0.0
  0
SPLINE
  5
122
100
AcDbEntity
  8
Kamloops_spec
 62
7
100
AcDbSpline
 70
8
 71
3
 72
8
 73
4
 74
0
 40
0
 40
0
 40
0
 40
0
 40
1
 40
1
 40
1
 40
1
 10
6.000012
 20
5.488163
 30
0.0
 10
6.226849
 20
5.488163
 30
0.0
 10
6.435948
 20
5.412191
 30
0.0
 10
6.603618
 20
5.284799
 30
0.0
  0
LINE
  5
123
100
AcDbEntity
  8
Kamloops_spec
 62
7
100
AcDbLine
 10
6.603618
 20
5.284799
 30
0.0
 11
6.587975
 21
5.266485
 31
0.0
  0
SPLINE
  5
124
100
AcDbEntity
  8
Kamloops_spec
 62
7
100
AcDbSpline
 70
8
 71
3
 72
8
 73
4
 74
0
 40
0
 40
0
 40
0
 40
0
 40
1
 40
1
 40
1
 40
1
 10
6.587975
 20
5.266485
 30
0.0
 10
6.424971
 20
5.391377
 30
0.0
 10
6.221301
 20
5.465652
 30
0.0
 10
6.000012
 20
5.465652
 30
0.0
  0
SPLINE
  5
125
100
AcDbEntity
  8
Kamloops_spec
 62
7
100
AcDbSpline
 70
8
 71
3
 72
8
 73
4
 74
0
 40
0
 40
0
 40
0
 40
0
 40
1
 40
1
 40
1
 40
1
 10
6.000012
 20
5.465652
 30
0.0
 10
5.465577
 20
5.465652
 30
0.0
 10
5.032410
 20
5.032866
 30
0.0
 10
5.032410
 20
4.498432
 30
0.0
  0
SPLINE
  5
126
100
AcDbEntity
  8
Kamloops_spec
 62
7
100
AcDbSpline
 70
8
 71
3
 72
8
 73
4
 74
0
 40
0
 40
0
 40
0
 40
0
 40
1
 40
1
 40
1
 40
1
 10
5.032410
 20
4.498432
 30
0.0
 10
5.032410
 20
4.193231
 30
0.0
 10
5.173778
 20
3.920794
 30
0.0
 10
5.394497
 20
3.743351
 30
0.0
  0
LINE
  5
127
100
AcDbEntity
  8
Kamloops_spec
 62
7
100
AcDbLine
 10
5.394497
 20
3.743351
 30
0.0
 11
5.370841
 21
3.715117
 31
0.0
  0
SPLINE
  5
128
100
AcDbEntity
  8
Kamloops_spec
 62
7
100
AcDbSpline
 70
8
 71
3
 72
8
 73
4
 74
0
 40
0
 40
0
 40
0
 40
0
 40
1
 40
1
 40
1
 40
1
 10
5.370841
 20
3.715117
 30
0.0
 10
5.145538
 20
3.898206
 30
0.0
 10
5.001505
 20
4.177143
 30
0.0
 10
5.001505
 20
4.490038
 30
0.0
  0
SPLINE
  5
129
100
AcDbEntity
  8
Kamloops_spec
 62
7
100
AcDbSpline
 70
8
 71
3
 72
8
 73
4
 74
0
 40
0
 40
0
 40
0
 40
0
 40
1
 40
1
 40
1
 40
1
 10
5.001505
 20
4.490038
 30
0.0
 10
5.001505
 20
5.032819
 30
0.0
 10
5.434584
 20
5.474500
 30
0.0
 10
5.974066
 20
5.488163
 30
0.0
  0
LINE
  5
12a
100
AcDbEntity
  8
Kamloops_spec
 62
7
100
AcDbLine
 10
5.974066
 20
5.488163
 30
0.0
 11
5.974066
 21
5.488163
 31
0.0
  0
SPLINE
  5
12b
100
AcDbEntity
  8
Kamloops_spec
 62
7
100
AcDbSpline
 70
8
 71
3
 72
8
 73
4
 74
0
 40
0
 40
0
 40
0
 40
0
 40
1
 40
1
 40
1
 40
1
 10
6.000012
 20
5.313415
 30
0.0
 10
6.441504
 20
5.313415
 30
0.0
 10
6.800511
 20
4.962531
 30
0.0
 10
6.814232
 20
4.524377
 30
0.0
  0
LINE
  5
12c
100
AcDbEntity
  8
Kamloops_spec
 62
7
100
AcDbLine
 10
6.814232
 20
4.524377
 30
0.0
 11
6.785616
 21
4.525140
 31
0.0
  0
SPLINE
  5
12d
100
AcDbEntity
  8
Kamloops_spec
 62
7
100
AcDbSpline
 70
8
 71
3
 72
8
 73
4
 74
0
 40
0
 40
0
 40
0
 40
0
 40
1
 40
1
 40
1
 40
1
 10
6.785616
 20
4.525140
 30
0.0
 10
6.771294
 20
4.947439
 30
0.0
 10
6.425035
 20
5.285562
 30
0.0
 10
5.999248
 20
5.285562
 30
0.0
  0
SPLINE
  5
12e
100
AcDbEntity
  8
Kamloops_spec
 62
7
100
AcDbSpline
 70
8
 71
3
 72
8
 73
4
 74
0
 40
0
 40
0
 40
0
 40
0
 40
1
 40
1
 40
1
 40
1
 10
5.999248
 20
5.285562
 30
0.0
 10
5.992453
 20
5.285562
 30
0.0
 10
5.985399
 20
5.285743
 30
0.0
 10
5.978645
 20
5.285562
 30
0.0
  0
SPLINE
  5
12f
100
AcDbEntity
  8
Kamloops_spec
 62
7
100
AcDbSpline
 70
8
 71
3
 72
8
 73
4
 74
0
 40
0
 40
0
 40
0
 40
0
 40
1
 40
1
 40
1
 40
1
 10
5.978645
 20
5.285562
 30
0.0
 10
5.898864
 20
5.283543
 30
0.0
 10
5.822290
 20
5.269560
 30
0.0
 10
5.750099
 20
5.245500
 30
0.0
  0
SPLINE
  5
130
100
AcDbEntity
  8
Kamloops_spec
 62
7
100
AcDbSpline
 70
8
 71
3
 72
8
 73
4
 74
0
 40
0
 40
0
 40
0
 40
0
 40
1
 40
1
 40
1
 40
1
 10
5.750099
 20
5.245500
 30
0.0
 10
5.739889
 20
5.242097
 30
0.0
 10
5.729594
 20
5.238240
 30
0.0
 10
5.719575
 20
5.234435
 30
0.0
  0
SPLINE
  5
131
100
AcDbEntity
  8
Kamloops_spec
 62
7
100
AcDbSpline
 70
8
 71
3
 72
8
 73
4
 74
0
 40
0
 40
0
 40
0
 40
0
 40
1
 40
1
 40
1
 40
1
 10
5.719575
 20
5.234435
 30
0.0
 10
5.715535
 20
5.232900
 30
0.0
 10
5.711374
 20
5.231453
 30
0.0
 10
5.707365
 20
5.229856
 30
0.0
  0
SPLINE
  5
132
100
AcDbEntity
  8
Kamloops_spec
 62
7
100
AcDbSpline
 70
8
 71
3
 72
8
 73
4
 74
0
 40
0
 40
0
 40
0
 40
0
 40
1
 40
1
 40
1
 40
1
 10
5.707365
 20
5.229856
 30
0.0
 10
5.700034
 20
5.226932
 30
0.0
 10
5.692839
 20
5.223835
 30
0.0
 10
5.685617
 20
5.220699
 30
0.0
  0
SPLINE
  5
133
100
AcDbEntity
  8
Kamloops_spec
 62
7
100
AcDbSpline
 70
8
 71
3
 72
8
 73
4
 74
0
 40
0
 40
0
 40
0
 40
0
 40
1
 40
1
 40
1
 40
1
 10
5.685617
 20
5.220699
 30
0.0
 10
5.680836
 20
5.218623
 30
0.0
 10
5.676232
 20
5.216381
 30
0.0
 10
5.671500
 20
5.214213
 30
0.0
  0
SPLINE
  5
134
100
AcDbEntity
  8
Kamloops_spec
 62
7
100
AcDbSpline
 70
8
 71
3
 72
8
 73
4
 74
0
 40
0
 40
0
 40
0
 40
0
 40
1
 40
1
 40
1
 40
1
 10
5.671500
 20
5.214213
 30
0.0
 10
5.665978
 20
5.211683
 30
0.0
 10
5.660546
 20
5.209235
 30
0.0
 10
5.655094
 20
5.206582
 30
0.0
  0
SPLINE
  5
135
100
AcDbEntity
  8
Kamloops_spec
 62
7
100
AcDbSpline
 70
8
 71
3
 72
8
 73
4
 74
0
 40
0
 40
0
 40
0
 40
0
 40
1
 40
1
 40
1
 40
1
 10
5.655094
 20
5.206582
 30
0.0
 10
5.645594
 20
5.201907
 30
0.0
 10
5.636138
 20
5.196743
 30
0.0
 10
5.626859
 20
5.191702
 30
0.0
  0
SPLINE
  5
136
100
AcDbEntity
  8
Kamloops_spec
 62
7
100
AcDbSpline
 70
8
 71
3
 72
8
 73
4
 74
0
 40
0
 40
0
 40
0
 40
0
 40
1
 40
1
 40
1
 40
1
 10
5.626859
 20
5.191702
 30
0.0
 10
5.615676
 20
5.185627
 30
0.0
 10
5.604894
 20
5.179597
 30
0.0
 10
5.594046
 20
5.173006
 30
0.0
  0
SPLINE
  5
137
100
AcDbEntity
  8
Kamloops_spec
 62
7
100
AcDbSpline
 70
8
 71
3
 72
8
 73
4
 74
0
 40
0
 40
0
 40
0
 40
0
 40
1
 40
1
 40
1
 40
1
 10
5.594046
 20
5.173006
 30
0.0
 10
5.583198
 20
5.166414
 30
0.0
 10
5.572112
 20
5.159494
 30
0.0
 10
5.561615
 20
5.152402
 30
0.0
  0
SPLINE
  5
138
100
AcDbEntity
  8
Kamloops_spec
 62
7
100
AcDbSpline
 70
8
 71
3
 72
8
 73
4
 74
0
 40
0
 40
0
 40
0
 40
0
 40
1
 40
1
 40
1
 40
1
 10
5.561615
 20
5.152402
 30
0.0
 10
5.361717
 20
5.017354
 30
0.0
 10
5.227218
 20
4.793277
 30
0.0
 10
5.214789
 20
4.536968
 30
0.0
  0
LINE
  5
139
100
AcDbEntity
  8
Kamloops_spec
 62
7
100
AcDbLine
 10
5.214789
 20
4.536968
 30
0.0
 11
5.186173
 21
4.537731
 31
0.0
  0
SPLINE
  5
13a
100
AcDbEntity
  8
Kamloops_spec
 62
7
100
AcDbSpline
 70
8
 71
3
 72
8
 73
4
 74
0
 40
0
 40
0
 40
0
 40
0
 40
1
 40
1
 40
1
 40
1
 10
5.186173
 20
4.537731
 30
0.0
 10
5.206666
 20
4.969663
 30
0.0
 10
5.562995
 20
5.313415
 30
0.0
 10
6.000012
 20
5.313415
 30
0.0
  0
LINE
  5
13b
100
AcDbEntity
  8
Kamloops_spec
 62
7
100
AcDbLine
 10
6.000012
 20
5.313415
 30
0.0
 11
6.000012
 21
5.313415
 31
0.0
  0
SPLINE
  5
13c
100
AcDbEntity
  8
Kamloops_spec
 62
7
100
AcDbSpline
 70
8
 71
3
 72
8
 73
4
 74
0
 40
0
 40
0
 40
0
 40
0
 40
1
 40
1
 40
1
 40
1
 10
6.653601
 20
5.244736
 30
0.0
 10
6.864903
 20
5.061745
 30
0.0
 10
6.998519
 20
4.791531
 30
0.0
 10
6.998519
 20
4.490038
 30
0.0
  0
SPLINE
  5
13d
100
AcDbEntity
  8
Kamloops_spec
 62
7
100
AcDbSpline
 70
8
 71
3
 72
8
 73
4
 74
0
 40
0
 40
0
 40
0
 40
0
 40
1
 40
1
 40
1
 40
1
 10
6.998519
 20
4.490038
 30
0.0
 10
6.998519
 20
3.938640
 30
0.0
 10
6.551409
 20
3.491531
 30
0.0
 10
6.000012
 20
3.491531
 30
0.0
  0
SPLINE
  5
13e
100
AcDbEntity
  8
Kamloops_spec
 62
7
100
AcDbSpline
 70
8
 71
3
 72
8
 73
4
 74
0
 40
0
 40
0
 40
0
 40
0
 40
1
 40
1
 40
1
 40
1
 10
6.000012
 20
3.491531
 30
0.0
 10
5.784527
 20
3.491531
 30
0.0
 10
5.585138
 20
3.560092
 30
0.0
 10
5.421969
 20
3.676199
 30
0.0
  0
LINE
  5
13f
100
AcDbEntity
  8
Kamloops_spec
 62
7
100
AcDbLine
 10
5.421969
 20
3.676199
 30
0.0
 11
5.446006
 21
3.704815
 31
0.0
  0
SPLINE
  5
140
100
AcDbEntity
  8
Kamloops_spec
 62
7
100
AcDbSpline
 70
8
 71
3
 72
8
 73
4
 74
0
 40
0
 40
0
 40
0
 40
0
 40
1
 40
1
 40
1
 40
1
 10
5.446006
 20
3.704815
 30
0.0
 10
5.602958
 20
3.594923
 30
0.0
 10
5.793894
 20
3.530448
 30
0.0
 10
6.000012
 20
3.530448
 30
0.0
  0
SPLINE
  5
141
100
AcDbEntity
  8
Kamloops_spec
 62
7
100
AcDbSpline
 70
8
 71
3
 72
8
 73
4
 74
0
 40
0
 40
0
 40
0
 40
0
 40
1
 40
1
 40
1
 40
1
 10
6.000012
 20
3.530448
 30
0.0
 10
6.534446
 20
3.530448
 30
0.0
 10
6.967613
 20
3.963997
 30
0.0
 10
6.967613
 20
4.498432
 30
0.0
  0
SPLINE
  5
142
100
AcDbEntity
  8
Kamloops_spec
 62
7
100
AcDbSpline
 70
8
 71
3
 72
8
 73
4
 74
0
 40
0
 40
0
 40
0
 40
0
 40
1
 40
1
 40
1
 40
1
 10
6.967613
 20
4.498432
 30
0.0
 10
6.967613
 20
4.788504
 30
0.0
 10
6.839724
 20
5.048424
 30
0.0
 10
6.637576
 20
5.225659
 30
0.0
  0
LINE
  5
143
100
AcDbEntity
  8
Kamloops_spec
 62
7
100
AcDbLine
 10
6.637576
 20
5.225659
 30
0.0
 11
6.653601
 21
5.244736
 31
0.0
  0
LINE
  5
144
100
AcDbEntity
  8
Kamloops_spec
 62
7
100
AcDbLine
 10
6.653601
 20
5.244736
 30
0.0
 11
6.653601
 21
5.244736
 31
0.0
  0
LINE
  5
145
100
AcDbEntity
  8
Kamloops_spec
 62
7
100
AcDbLine
 10
5.014096
 20
5.176440
 30
0.0
 11
5.027831
 21
5.168046
 31
0.0
  0
SPLINE
  5
146
100
AcDbEntity
  8
Kamloops_spec
 62
7
100
AcDbSpline
 70
8
 71
3
 72
8
 73
4
 74
0
 40
0
 40
0
 40
0
 40
0
 40
1
 40
1
 40
1
 40
1
 10
5.027831
 20
5.168046
 30
0.0
 10
4.893616
 20
4.975946
 30
0.0
 10
4.814928
 20
4.742196
 30
0.0
 10
4.814928
 20
4.490038
 30
0.0
  0
SPLINE
  5
147
100
AcDbEntity
  8
Kamloops_spec
 62
7
100
AcDbSpline
 70
8
 71
3
 72
8
 73
4
 74
0
 40
0
 40
0
 40
0
 40
0
 40
1
 40
1
 40
1
 40
1
 10
4.814928
 20
4.490038
 30
0.0
 10
4.814928
 20
3.835457
 30
0.0
 10
5.345431
 20
3.304573
 30
0.0
 10
6.000012
 20
3.304573
 30
0.0
  0
SPLINE
  5
148
100
AcDbEntity
  8
Kamloops_spec
 62
7
100
AcDbSpline
 70
8
 71
3
 72
8
 73
4
 74
0
 40
0
 40
0
 40
0
 40
0
 40
1
 40
1
 40
1
 40
1
 10
6.000012
 20
3.304573
 30
0.0
 10
6.394518
 20
3.304573
 30
0.0
 10
6.743823
 20
3.497570
 30
0.0
 10
6.959219
 20
3.794097
 30
0.0
  0
LINE
  5
149
100
AcDbEntity
  8
Kamloops_spec
 62
7
100
AcDbLine
 10
6.959219
 20
3.794097
 30
0.0
 11
6.975244
 21
3.784177
 31
0.0
  0
SPLINE
  5
14a
100
AcDbEntity
  8
Kamloops_spec
 62
7
100
AcDbSpline
 70
8
 71
3
 72
8
 73
4
 74
0
 40
0
 40
0
 40
0
 40
0
 40
1
 40
1
 40
1
 40
1
 10
6.975244
 20
3.784177
 30
0.0
 10
6.756794
 20
3.481844
 30
0.0
 10
6.401469
 20
3.285114
 30
0.0
 10
6.000012
 20
3.285114
 30
0.0
  0
SPLINE
  5
14b
100
AcDbEntity
  8
Kamloops_spec
 62
7
100
AcDbSpline
 70
8
 71
3
 72
8
 73
4
 74
0
 40
0
 40
0
 40
0
 40
0
 40
1
 40
1
 40
1
 40
1
 10
6.000012
 20
3.285114
 30
0.0
 10
5.335866
 20
3.285114
 30
0.0
 10
4.797377
 20
3.823602
 30
0.0
 10
4.797377
 20
4.487748
 30
0.0
  0
SPLINE
  5
14c
100
AcDbEntity
  8
Kamloops_spec
 62
7
100
AcDbSpline
 70
8
 71
3
 72
8
 73
4
 74
0
 40
0
 40
0
 40
0
 40
0
 40
1
 40
1
 40
1
 40
1
 10
4.797377
 20
4.487748
 30
0.0
 10
4.797377
 20
4.743884
 30
0.0
 10
4.877593
 20
4.981364
 30
0.0
 10
5.014096
 20
5.176440
 30
0.0
  0
LINE
  5
14d
100
AcDbEntity
  8
Kamloops_spec
 62
7
100
AcDbLine
 10
5.014096
 20
5.176440
 30
0.0
 11
5.014096
 21
5.176440
 31
0.0
  0
LINE
  5
14e
100
AcDbEntity
  8
Kamloops_spec
 62
7
100
AcDbLine
 10
8.093175
 20
4.890280
 30
0.0
 11
8.220993
 21
4.636933
 31
0.0
  0
LINE
  5
14f
100
AcDbEntity
  8
Kamloops_spec
 62
7
100
AcDbLine
 10
8.220993
 20
4.636933
 30
0.0
 11
8.487313
 21
4.593437
 31
0.0
  0
LINE
  5
150
100
AcDbEntity
  8
Kamloops_spec
 62
7
100
AcDbLine
 10
8.487313
 20
4.593437
 30
0.0
 11
8.303026
 21
4.391599
 31
0.0
  0
LINE
  5
151
100
AcDbEntity
  8
Kamloops_spec
 62
7
100
AcDbLine
 10
8.303026
 20
4.391599
 30
0.0
 11
8.340417
 21
4.122608
 31
0.0
  0
LINE
  5
152
100
AcDbEntity
  8
Kamloops_spec
 62
7
100
AcDbLine
 10
8.340417
 20
4.122608
 30
0.0
 11
8.096991
 21
4.241651
 31
0.0
  0
LINE
  5
153
100
AcDbEntity
  8
Kamloops_spec
 62
7
100
AcDbLine
 10
8.096991
 20
4.241651
 30
0.0
 11
7.845170
 21
4.122227
 31
0.0
  0
LINE
  5
154
100
AcDbEntity
  8
Kamloops_spec
 62
7
100
AcDbLine
 10
7.845170
 20
4.122227
 30
0.0
 11
7.890574
 21
4.391980
 31
0.0
  0
LINE
  5
155
100
AcDbEntity
  8
Kamloops_spec
 62
7
100
AcDbLine
 10
7.890574
 20
4.391980
 30
0.0
 11
7.697512
 21
4.590003
 31
0.0
  0
LINE
  5
156
100
AcDbEntity
  8
Kamloops_spec
 62
7
100
AcDbLine
 10
7.697512
 20
4.590003
 30
0.0
 11
7.975659
 21
4.633881
 31
0.0
  0
LINE
  5
157
100
AcDbEntity
  8
Kamloops_spec
 62
7
100
AcDbLine
 10
7.975659
 20
4.633881
 30
0.0
 11
8.093175
 21
4.890280
 31
0.0
  0
LINE
  5
158
100
AcDbEntity
  8
Kamloops_spec
 62
7
100
AcDbLine
 10
8.093175
 20
4.890280
 30
0.0
 11
8.093175
 21
4.890280
 31
0.0
  0
LINE
  5
159
100
AcDbEntity
  8
Kamloops_spec
 62
7
100
AcDbLine
 10
4.001090
 20
4.889135
 30
0.0
 11
4.134249
 21
4.634644
 31
0.0
  0
LINE
  5
15a
100
AcDbEntity
  8
Kamloops_spec
 62
7
100
AcDbLine
 10
4.134249
 20
4.634644
 30
0.0
 11
4.398661
 21
4.592292
 31
0.0
  0
LINE
  5
15b
100
AcDbEntity
  8
Kamloops_spec
 62
7
100
AcDbLine
 10
4.398661
 20
4.592292
 30
0.0
 11
4.206743
 21
4.386257
 31
0.0
  0
LINE
  5
15c
100
AcDbEntity
  8
Kamloops_spec
 62
7
100
AcDbLine
 10
4.206743
 20
4.386257
 30
0.0
 11
4.248332
 21
4.127569
 31
0.0
  0
LINE
  5
15d
100
AcDbEntity
  8
Kamloops_spec
 62
7
100
AcDbLine
 10
4.248332
 20
4.127569
 30
0.0
 11
4.000708
 21
4.237073
 31
0.0
  0
LINE
  5
15e
100
AcDbEntity
  8
Kamloops_spec
 62
7
100
AcDbLine
 10
4.000708
 20
4.237073
 30
0.0
 11
3.747361
 21
4.110399
 31
0.0
  0
LINE
  5
15f
100
AcDbEntity
  8
Kamloops_spec
 62
7
100
AcDbLine
 10
3.747361
 20
4.110399
 30
0.0
 11
3.739349
 21
4.118412
 31
0.0
  0
LINE
  5
160
100
AcDbEntity
  8
Kamloops_spec
 62
7
100
AcDbLine
 10
3.739349
 20
4.118412
 30
0.0
 11
3.743164
 21
4.129858
 31
0.0
  0
LINE
  5
161
100
AcDbEntity
  8
Kamloops_spec
 62
7
100
AcDbLine
 10
3.743164
 20
4.129858
 30
0.0
 11
3.794673
 21
4.389691
 31
0.0
  0
LINE
  5
162
100
AcDbEntity
  8
Kamloops_spec
 62
7
100
AcDbLine
 10
3.794673
 20
4.389691
 30
0.0
 11
3.605426
 21
4.590766
 31
0.0
  0
LINE
  5
163
100
AcDbEntity
  8
Kamloops_spec
 62
7
100
AcDbLine
 10
3.605426
 20
4.590766
 30
0.0
 11
3.857247
 21
4.631973
 31
0.0
  0
LINE
  5
164
100
AcDbEntity
  8
Kamloops_spec
 62
7
100
AcDbLine
 10
3.857247
 20
4.631973
 30
0.0
 11
4.001090
 21
4.889135
 31
0.0
  0
LINE
  5
165
100
AcDbEntity
  8
Kamloops_spec
 62
7
100
AcDbLine
 10
4.001090
 20
4.889135
 30
0.0
 11
4.001090
 21
4.889135
 31
0.0
  0
LINE
  5
166
100
AcDbEntity
  8
Kamloops_spec
 62
7
100
AcDbLine
 10
6.048086
 20
4.821983
 30
0.0
 11
6.653601
 21
4.821983
 31
0.0
  0
LINE
  5
167
100
AcDbEntity
  8
Kamloops_spec
 62
7
100
AcDbLine
 10
6.653601
 20
4.821983
 30
0.0
 11
6.673060
 21
4.821983
 31
0.0
  0
LINE
  5
168
100
AcDbEntity
  8
Kamloops_spec
 62
7
100
AcDbLine
 10
6.673060
 20
4.821983
 30
0.0
 11
6.673060
 21
4.803669
 31
0.0
  0
LINE
  5
169
100
AcDbEntity
  8
Kamloops_spec
 62
7
100
AcDbLine
 10
6.673060
 20
4.803669
 30
0.0
 11
6.673060
 21
4.705993
 31
0.0
  0
LINE
  5
16a
100
AcDbEntity
  8
Kamloops_spec
 62
7
100
AcDbLine
 10
6.673060
 20
4.705993
 30
0.0
 11
6.673060
 21
4.695310
 31
0.0
  0
LINE
  5
16b
100
AcDbEntity
  8
Kamloops_spec
 62
7
100
AcDbLine
 10
6.673060
 20
4.695310
 30
0.0
 11
6.663521
 21
4.689968
 31
0.0
  0
LINE
  5
16c
100
AcDbEntity
  8
Kamloops_spec
 62
7
100
AcDbLine
 10
6.663521
 20
4.689968
 30
0.0
 11
6.375072
 21
4.507970
 31
0.0
  0
LINE
  5
16d
100
AcDbEntity
  8
Kamloops_spec
 62
7
100
AcDbLine
 10
6.375072
 20
4.507970
 30
0.0
 11
6.663521
 21
4.324065
 31
0.0
  0
LINE
  5
16e
100
AcDbEntity
  8
Kamloops_spec
 62
7
100
AcDbLine
 10
6.663521
 20
4.324065
 30
0.0
 11
6.673060
 21
4.318723
 31
0.0
  0
LINE
  5
16f
100
AcDbEntity
  8
Kamloops_spec
 62
7
100
AcDbLine
 10
6.673060
 20
4.318723
 30
0.0
 11
6.673060
 21
4.194721
 31
0.0
  0
LINE
  5
170
100
AcDbEntity
  8
Kamloops_spec
 62
7
100
AcDbLine
 10
6.673060
 20
4.194721
 30
0.0
 11
6.653601
 21
4.194721
 31
0.0
  0
LINE
  5
171
100
AcDbEntity
  8
Kamloops_spec
 62
7
100
AcDbLine
 10
6.653601
 20
4.194721
 30
0.0
 11
6.093872
 21
4.194721
 31
0.0
  0
LINE
  5
172
100
AcDbEntity
  8
Kamloops_spec
 62
7
100
AcDbLine
 10
6.093872
 20
4.194721
 30
0.0
 11
6.046560
 21
4.194721
 31
0.0
  0
LINE
  5
173
100
AcDbEntity
  8
Kamloops_spec
 62
7
100
AcDbLine
 10
6.046560
 20
4.194721
 30
0.0
 11
6.046560
 21
4.332841
 31
0.0
  0
LINE
  5
174
100
AcDbEntity
  8
Kamloops_spec
 62
7
100
AcDbLine
 10
6.046560
 20
4.332841
 30
0.0
 11
6.067545
 21
4.332841
 31
0.0
  0
LINE
  5
175
100
AcDbEntity
  8
Kamloops_spec
 62
7
100
AcDbLine
 10
6.067545
 20
4.332841
 30
0.0
 11
6.344548
 21
4.332841
 31
0.0
  0
LINE
  5
176
100
AcDbEntity
  8
Kamloops_spec
 62
7
100
AcDbLine
 10
6.344548
 20
4.332841
 30
0.0
 11
6.057243
 21
4.508352
 31
0.0
  0
LINE
  5
177
100
AcDbEntity
  8
Kamloops_spec
 62
7
100
AcDbLine
 10
6.057243
 20
4.508352
 30
0.0
 11
6.343785
 21
4.681956
 31
0.0
  0
LINE
  5
178
100
AcDbEntity
  8
Kamloops_spec
 62
7
100
AcDbLine
 10
6.343785
 20
4.681956
 30
0.0
 11
6.048086
 21
4.681956
 31
0.0
  0
LINE
  5
179
100
AcDbEntity
  8
Kamloops_spec
 62
7
100
AcDbLine
 10
6.048086
 20
4.681956
 30
0.0
 11
6.048086
 21
4.821983
 31
0.0
  0
LINE
  5
17a
100
AcDbEntity
  8
Kamloops_spec
 62
7
100
AcDbLine
 10
6.048086
 20
4.821983
 30
0.0
 11
6.048086
 21
4.821983
 31
0.0
  0
LINE
  5
17b
100
AcDbEntity
  8
Kamloops_spec
 62
7
100
AcDbLine
 10
5.346423
 20
4.817786
 30
0.0
 11
5.495989
 21
4.817786
 31
0.0
  0
LINE
  5
17c
100
AcDbEntity
  8
Kamloops_spec
 62
7
100
AcDbLine
 10
5.495989
 20
4.817786
 30
0.0
 11
5.495989
 21
4.589240
 31
0.0
  0
LINE
  5
17d
100
AcDbEntity
  8
Kamloops_spec
 62
7
100
AcDbLine
 10
5.495989
 20
4.589240
 30
0.0
 11
5.705839
 21
4.811300
 31
0.0
  0
LINE
  5
17e
100
AcDbEntity
  8
Kamloops_spec
 62
7
100
AcDbLine
 10
5.705839
 20
4.811300
 30
0.0
 11
5.711562
 21
4.817786
 31
0.0
  0
LINE
  5
17f
100
AcDbEntity
  8
Kamloops_spec
 62
7
100
AcDbLine
 10
5.711562
 20
4.817786
 30
0.0
 11
5.719956
 21
4.817786
 31
0.0
  0
LINE
  5
180
100
AcDbEntity
  8
Kamloops_spec
 62
7
100
AcDbLine
 10
5.719956
 20
4.817786
 30
0.0
 11
5.759637
 21
4.817786
 31
0.0
  0
LINE
  5
181
100
AcDbEntity
  8
Kamloops_spec
 62
7
100
AcDbLine
 10
5.759637
 20
4.817786
 30
0.0
 11
5.868760
 21
4.817786
 31
0.0
  0
LINE
  5
182
100
AcDbEntity
  8
Kamloops_spec
 62
7
100
AcDbLine
 10
5.868760
 20
4.817786
 30
0.0
 11
5.912638
 21
4.817786
 31
0.0
  0
LINE
  5
183
100
AcDbEntity
  8
Kamloops_spec
 62
7
100
AcDbLine
 10
5.912638
 20
4.817786
 30
0.0
 11
5.882877
 21
4.784973
 31
0.0
  0
SPLINE
  5
184
100
AcDbEntity
  8
Kamloops_spec
 62
7
100
AcDbSpline
 70
8
 71
3
 72
8
 73
4
 74
0
 40
0
 40
0
 40
0
 40
0
 40
1
 40
1
 40
1
 40
1
 10
5.882877
 20
4.784973
 30
0.0
 10
5.825303
 20
4.702042
 30
0.0
 10
5.765089
 20
4.656352
 30
0.0
 10
5.708892
 20
4.594582
 30
0.0
  0
LINE
  5
185
100
AcDbEntity
  8
Kamloops_spec
 62
7
100
AcDbLine
 10
5.708892
 20
4.594582
 30
0.0
 11
5.957278
 21
4.336656
 31
0.0
  0
LINE
  5
186
100
AcDbEntity
  8
Kamloops_spec
 62
7
100
AcDbLine
 10
5.957278
 20
4.336656
 30
0.0
 11
5.957278
 21
4.194721
 31
0.0
  0
LINE
  5
187
100
AcDbEntity
  8
Kamloops_spec
 62
7
100
AcDbLine
 10
5.957278
 20
4.194721
 30
0.0
 11
5.884784
 21
4.194721
 31
0.0
  0
LINE
  5
188
100
AcDbEntity
  8
Kamloops_spec
 62
7
100
AcDbLine
 10
5.884784
 20
4.194721
 30
0.0
 11
5.599006
 21
4.480118
 31
0.0
  0
LINE
  5
189
100
AcDbEntity
  8
Kamloops_spec
 62
7
100
AcDbLine
 10
5.599006
 20
4.480118
 30
0.0
 11
5.495989
 21
4.370995
 31
0.0
  0
LINE
  5
18a
100
AcDbEntity
  8
Kamloops_spec
 62
7
100
AcDbLine
 10
5.495989
 20
4.370995
 30
0.0
 11
5.495989
 21
4.215324
 31
0.0
  0
LINE
  5
18b
100
AcDbEntity
  8
Kamloops_spec
 62
7
100
AcDbLine
 10
5.495989
 20
4.215324
 30
0.0
 11
5.495989
 21
4.195866
 31
0.0
  0
LINE
  5
18c
100
AcDbEntity
  8
Kamloops_spec
 62
7
100
AcDbLine
 10
5.495989
 20
4.195866
 30
0.0
 11
5.476530
 21
4.195866
 31
0.0
  0
LINE
  5
18d
100
AcDbEntity
  8
Kamloops_spec
 62
7
100
AcDbLine
 10
5.476530
 20
4.195866
 30
0.0
 11
5.365881
 21
4.195866
 31
0.0
  0
LINE
  5
18e
100
AcDbEntity
  8
Kamloops_spec
 62
7
100
AcDbLine
 10
5.365881
 20
4.195866
 30
0.0
 11
5.346423
 21
4.195866
 31
0.0
  0
LINE
  5
18f
100
AcDbEntity
  8
Kamloops_spec
 62
7
100
AcDbLine
 10
5.346423
 20
4.195866
 30
0.0
 11
5.346423
 21
4.215324
 31
0.0
  0
LINE
  5
190
100
AcDbEntity
  8
Kamloops_spec
 62
7
100
AcDbLine
 10
5.346423
 20
4.215324
 30
0.0
 11
5.346423
 21
4.817786
 31
0.0
  0
LINE
  5
191
100
AcDbEntity
  8
Kamloops_spec
 62
7
100
AcDbLine
 10
5.346423
 20
4.817786
 30
0.0
 11
5.346423
 21
4.817786
 31
0.0
  0
LINE
  5
192
100
AcDbEntity
  8
Kamloops_spec
 62
7
100
AcDbLine
 10
2.784338
 20
4.662497
 30
0.0
 11
2.883540
 21
4.490801
 31
0.0
  0
LINE
  5
193
100
AcDbEntity
  8
Kamloops_spec
 62
7
100
AcDbLine
 10
2.883540
 20
4.490801
 30
0.0
 11
3.073169
 21
4.457225
 31
0.0
  0
LINE
  5
194
100
AcDbEntity
  8
Kamloops_spec
 62
7
100
AcDbLine
 10
3.073169
 20
4.457225
 30
0.0
 11
2.934286
 21
4.310329
 31
0.0
  0
LINE
  5
195
100
AcDbEntity
  8
Kamloops_spec
 62
7
100
AcDbLine
 10
2.934286
 20
4.310329
 30
0.0
 11
2.967481
 21
4.108491
 31
0.0
  0
LINE
  5
196
100
AcDbEntity
  8
Kamloops_spec
 62
7
100
AcDbLine
 10
2.967481
 20
4.108491
 30
0.0
 11
2.784720
 21
4.205404
 31
0.0
  0
LINE
  5
197
100
AcDbEntity
  8
Kamloops_spec
 62
7
100
AcDbLine
 10
2.784720
 20
4.205404
 30
0.0
 11
2.600051
 21
4.107347
 31
0.0
  0
LINE
  5
198
100
AcDbEntity
  8
Kamloops_spec
 62
7
100
AcDbLine
 10
2.600051
 20
4.107347
 30
0.0
 11
2.633246
 21
4.316816
 31
0.0
  0
LINE
  5
199
100
AcDbEntity
  8
Kamloops_spec
 62
7
100
AcDbLine
 10
2.633246
 20
4.316816
 30
0.0
 11
2.493981
 21
4.453791
 31
0.0
  0
LINE
  5
19a
100
AcDbEntity
  8
Kamloops_spec
 62
7
100
AcDbLine
 10
2.493981
 20
4.453791
 30
0.0
 11
2.688570
 21
4.485841
 31
0.0
  0
LINE
  5
19b
100
AcDbEntity
  8
Kamloops_spec
 62
7
100
AcDbLine
 10
2.688570
 20
4.485841
 30
0.0
 11
2.784338
 21
4.662497
 31
0.0
  0
LINE
  5
19c
100
AcDbEntity
  8
Kamloops_spec
 62
7
100
AcDbLine
 10
2.784338
 20
4.662497
 30
0.0
 11
2.784338
 21
4.662497
 31
0.0
  0
LINE
  5
19d
100
AcDbEntity
  8
Kamloops_spec
 62
7
100
AcDbLine
 10
9.312216
 20
4.662497
 30
0.0
 11
9.411418
 21
4.490801
 31
0.0
  0
LINE
  5
19e
100
AcDbEntity
  8
Kamloops_spec
 62
7
100
AcDbLine
 10
9.411418
 20
4.490801
 30
0.0
 11
9.601047
 21
4.457225
 31
0.0
  0
LINE
  5
19f
100
AcDbEntity
  8
Kamloops_spec
 62
7
100
AcDbLine
 10
9.601047
 20
4.457225
 30
0.0
 11
9.462927
 21
4.310711
 31
0.0
  0
LINE
  5
1a0
100
AcDbEntity
  8
Kamloops_spec
 62
7
100
AcDbLine
 10
9.462927
 20
4.310711
 30
0.0
 11
9.493069
 21
4.119556
 31
0.0
  0
LINE
  5
1a1
100
AcDbEntity
  8
Kamloops_spec
 62
7
100
AcDbLine
 10
9.493069
 20
4.119556
 30
0.0
 11
9.312598
 21
4.205404
 31
0.0
  0
LINE
  5
1a2
100
AcDbEntity
  8
Kamloops_spec
 62
7
100
AcDbLine
 10
9.312598
 20
4.205404
 30
0.0
 11
9.130982
 21
4.121082
 31
0.0
  0
LINE
  5
1a3
100
AcDbEntity
  8
Kamloops_spec
 62
7
100
AcDbLine
 10
9.130982
 20
4.121082
 30
0.0
 11
9.165321
 21
4.313763
 31
0.0
  0
LINE
  5
1a4
100
AcDbEntity
  8
Kamloops_spec
 62
7
100
AcDbLine
 10
9.165321
 20
4.313763
 30
0.0
 11
9.022241
 21
4.456462
 31
0.0
  0
LINE
  5
1a5
100
AcDbEntity
  8
Kamloops_spec
 62
7
100
AcDbLine
 10
9.022241
 20
4.456462
 30
0.0
 11
9.216829
 21
4.485841
 31
0.0
  0
LINE
  5
1a6
100
AcDbEntity
  8
Kamloops_spec
 62
7
100
AcDbLine
 10
9.216829
 20
4.485841
 30
0.0
 11
9.312216
 21
4.662497
 31
0.0
  0
LINE
  5
1a7
100
AcDbEntity
  8
Kamloops_spec
 62
7
100
AcDbLine
 10
9.312216
 20
4.662497
 30
0.0
 11
9.312216
 21
4.662497
 31
0.0
  0
LINE
  5
1a8
100
AcDbEntity
  8
Kamloops_spec
 62
7
100
AcDbLine
 10
10.300421
 20
4.494998
 30
0.0
 11
10.365284
 21
4.365272
 31
0.0
  0
LINE
  5
1a9
100
AcDbEntity
  8
Kamloops_spec
 62
7
100
AcDbLine
 10
10.365284
 20
4.365272
 30
0.0
 11
10.485853
 21
4.346195
 31
0.0
  0
LINE
  5
1aa
100
AcDbEntity
  8
Kamloops_spec
 62
7
100
AcDbLine
 10
10.485853
 20
4.346195
 30
0.0
 11
10.404965
 21
4.247374
 31
0.0
  0
LINE
  5
1ab
100
AcDbEntity
  8
Kamloops_spec
 62
7
100
AcDbLine
 10
10.404965
 20
4.247374
 30
0.0
 11
10.427858
 21
4.121464
 31
0.0
  0
LINE
  5
1ac
100
AcDbEntity
  8
Kamloops_spec
 62
7
100
AcDbLine
 10
10.427858
 20
4.121464
 30
0.0
 11
10.297369
 21
4.174499
 31
0.0
  0
LINE
  5
1ad
100
AcDbEntity
  8
Kamloops_spec
 62
7
100
AcDbLine
 10
10.297369
 20
4.174499
 30
0.0
 11
10.180997
 21
4.126424
 31
0.0
  0
LINE
  5
1ae
100
AcDbEntity
  8
Kamloops_spec
 62
7
100
AcDbLine
 10
10.180997
 20
4.126424
 30
0.0
 11
10.201982
 21
4.247374
 31
0.0
  0
LINE
  5
1af
100
AcDbEntity
  8
Kamloops_spec
 62
7
100
AcDbLine
 10
10.201982
 20
4.247374
 30
0.0
 11
10.117661
 21
4.341235
 31
0.0
  0
LINE
  5
1b0
100
AcDbEntity
  8
Kamloops_spec
 62
7
100
AcDbLine
 10
10.117661
 20
4.341235
 30
0.0
 11
10.242426
 21
4.365654
 31
0.0
  0
LINE
  5
1b1
100
AcDbEntity
  8
Kamloops_spec
 62
7
100
AcDbLine
 10
10.242426
 20
4.365654
 30
0.0
 11
10.300421
 21
4.494998
 31
0.0
  0
LINE
  5
1b2
100
AcDbEntity
  8
Kamloops_spec
 62
7
100
AcDbLine
 10
10.300421
 20
4.494998
 30
0.0
 11
10.300421
 21
4.494998
 31
0.0
  0
LINE
  5
1b3
100
AcDbEntity
  8
Kamloops_spec
 62
7
100
AcDbLine
 10
1.796896
 20
4.481262
 30
0.0
 11
1.859088
 21
4.365654
 31
0.0
  0
LINE
  5
1b4
100
AcDbEntity
  8
Kamloops_spec
 62
7
100
AcDbLine
 10
1.859088
 20
4.365654
 30
0.0
 11
1.977368
 21
4.343142
 31
0.0
  0
LINE
  5
1b5
100
AcDbEntity
  8
Kamloops_spec
 62
7
100
AcDbLine
 10
1.977368
 20
4.343142
 30
0.0
 11
1.894953
 21
4.248519
 31
0.0
  0
LINE
  5
1b6
100
AcDbEntity
  8
Kamloops_spec
 62
7
100
AcDbLine
 10
1.894953
 20
4.248519
 30
0.0
 11
1.917846
 21
4.110399
 31
0.0
  0
LINE
  5
1b7
100
AcDbEntity
  8
Kamloops_spec
 62
7
100
AcDbLine
 10
1.917846
 20
4.110399
 30
0.0
 11
1.798422
 21
4.174499
 31
0.0
  0
LINE
  5
1b8
100
AcDbEntity
  8
Kamloops_spec
 62
7
100
AcDbLine
 10
1.798422
 20
4.174499
 30
0.0
 11
1.670223
 21
4.112307
 31
0.0
  0
LINE
  5
1b9
100
AcDbEntity
  8
Kamloops_spec
 62
7
100
AcDbLine
 10
1.670223
 20
4.112307
 30
0.0
 11
1.695023
 21
4.244322
 31
0.0
  0
LINE
  5
1ba
100
AcDbEntity
  8
Kamloops_spec
 62
7
100
AcDbLine
 10
1.695023
 20
4.244322
 30
0.0
 11
1.609557
 21
4.342761
 31
0.0
  0
LINE
  5
1bb
100
AcDbEntity
  8
Kamloops_spec
 62
7
100
AcDbLine
 10
1.609557
 20
4.342761
 30
0.0
 11
1.734704
 21
4.365654
 31
0.0
  0
LINE
  5
1bc
100
AcDbEntity
  8
Kamloops_spec
 62
7
100
AcDbLine
 10
1.734704
 20
4.365654
 30
0.0
 11
1.796896
 21
4.481262
 31
0.0
  0
LINE
  5
1bd
100
AcDbEntity
  8
Kamloops_spec
 62
7
100
AcDbLine
 10
1.796896
 20
4.481262
 30
0.0
 11
1.796896
 21
4.481262
 31
0.0
  0
LINE
  5
1be
100
AcDbEntity
  8
Kamloops_spec
 62
7
100
AcDbLine
 10
5.185791
 20
4.473631
 30
0.0
 11
5.214026
 21
4.472868
 31
0.0
  0
SPLINE
  5
1bf
100
AcDbEntity
  8
Kamloops_spec
 62
7
100
AcDbSpline
 70
8
 71
3
 72
8
 73
4
 74
0
 40
0
 40
0
 40
0
 40
0
 40
1
 40
1
 40
1
 40
1
 10
5.214026
 20
4.472868
 30
0.0
 10
5.222688
 20
4.197346
 30
0.0
 10
5.372945
 20
3.957439
 30
0.0
 10
5.594046
 20
3.823095
 30
0.0
  0
SPLINE
  5
1c0
100
AcDbEntity
  8
Kamloops_spec
 62
7
100
AcDbSpline
 70
8
 71
3
 72
8
 73
4
 74
0
 40
0
 40
0
 40
0
 40
0
 40
1
 40
1
 40
1
 40
1
 10
5.594046
 20
3.823095
 30
0.0
 10
5.603929
 20
3.817147
 30
0.0
 10
5.613648
 20
3.811063
 30
0.0
 10
5.623807
 20
3.805544
 30
0.0
  0
SPLINE
  5
1c1
100
AcDbEntity
  8
Kamloops_spec
 62
7
100
AcDbSpline
 70
8
 71
3
 72
8
 73
4
 74
0
 40
0
 40
0
 40
0
 40
0
 40
1
 40
1
 40
1
 40
1
 10
5.623807
 20
3.805544
 30
0.0
 10
5.624806
 20
3.804996
 30
0.0
 10
5.625856
 20
3.804562
 30
0.0
 10
5.626859
 20
3.804017
 30
0.0
  0
SPLINE
  5
1c2
100
AcDbEntity
  8
Kamloops_spec
 62
7
100
AcDbSpline
 70
8
 71
3
 72
8
 73
4
 74
0
 40
0
 40
0
 40
0
 40
0
 40
1
 40
1
 40
1
 40
1
 10
5.626859
 20
3.804017
 30
0.0
 10
5.637335
 20
3.798384
 30
0.0
 10
5.647775
 20
3.792777
 30
0.0
 10
5.658528
 20
3.787611
 30
0.0
  0
SPLINE
  5
1c3
100
AcDbEntity
  8
Kamloops_spec
 62
7
100
AcDbSpline
 70
8
 71
3
 72
8
 73
4
 74
0
 40
0
 40
0
 40
0
 40
0
 40
1
 40
1
 40
1
 40
1
 10
5.658528
 20
3.787611
 30
0.0
 10
5.659262
 20
3.787256
 30
0.0
 10
5.660083
 20
3.786822
 30
0.0
 10
5.660817
 20
3.786466
 30
0.0
  0
SPLINE
  5
1c4
100
AcDbEntity
  8
Kamloops_spec
 62
7
100
AcDbSpline
 70
8
 71
3
 72
8
 73
4
 74
0
 40
0
 40
0
 40
0
 40
0
 40
1
 40
1
 40
1
 40
1
 10
5.660817
 20
3.786466
 30
0.0
 10
5.671303
 20
3.781469
 30
0.0
 10
5.681750
 20
3.776891
 30
0.0
 10
5.692485
 20
3.772349
 30
0.0
  0
SPLINE
  5
1c5
100
AcDbEntity
  8
Kamloops_spec
 62
7
100
AcDbSpline
 70
8
 71
3
 72
8
 73
4
 74
0
 40
0
 40
0
 40
0
 40
0
 40
1
 40
1
 40
1
 40
1
 10
5.692485
 20
3.772349
 30
0.0
 10
5.786707
 20
3.732488
 30
0.0
 10
5.890526
 20
3.710539
 30
0.0
 10
5.999249
 20
3.710539
 30
0.0
  0
SPLINE
  5
1c6
100
AcDbEntity
  8
Kamloops_spec
 62
7
100
AcDbSpline
 70
8
 71
3
 72
8
 73
4
 74
0
 40
0
 40
0
 40
0
 40
0
 40
1
 40
1
 40
1
 40
1
 10
5.999249
 20
3.710539
 30
0.0
 10
6.421573
 20
3.710539
 30
0.0
 10
6.765686
 20
4.043170
 30
0.0
 10
6.785234
 20
4.460659
 30
0.0
  0
LINE
  5
1c7
100
AcDbEntity
  8
Kamloops_spec
 62
7
100
AcDbLine
 10
6.785234
 20
4.460659
 30
0.0
 11
6.813850
 21
4.459896
 31
0.0
  0
SPLINE
  5
1c8
100
AcDbEntity
  8
Kamloops_spec
 62
7
100
AcDbSpline
 70
8
 71
3
 72
8
 73
4
 74
0
 40
0
 40
0
 40
0
 40
0
 40
1
 40
1
 40
1
 40
1
 10
6.813850
 20
4.459896
 30
0.0
 10
6.793739
 20
4.027587
 30
0.0
 10
6.437283
 20
3.683067
 30
0.0
 10
6.000012
 20
3.683067
 30
0.0
  0
SPLINE
  5
1c9
100
AcDbEntity
  8
Kamloops_spec
 62
7
100
AcDbSpline
 70
8
 71
3
 72
8
 73
4
 74
0
 40
0
 40
0
 40
0
 40
0
 40
1
 40
1
 40
1
 40
1
 10
6.000012
 20
3.683067
 30
0.0
 10
5.558136
 20
3.683067
 30
0.0
 10
5.198923
 20
4.034931
 30
0.0
 10
5.185792
 20
4.473632
 30
0.0
  0
LINE
  5
1ca
100
AcDbEntity
  8
Kamloops_spec
 62
7
100
AcDbLine
 10
5.185792
 20
4.473632
 30
0.0
 11
5.185791
 21
4.473631
 31
0.0
  0
LINE
  5
1cb
100
AcDbEntity
  8
Kamloops_spec
 62
7
100
AcDbLine
 10
0.460720
 20
3.718932
 30
0.0
 11
0.902933
 21
3.642623
 31
0.0
  0
LINE
  5
1cc
100
AcDbEntity
  8
Kamloops_spec
 62
7
100
AcDbLine
 10
0.902933
 20
3.642623
 30
0.0
 11
0.932312
 21
2.821535
 31
0.0
  0
LINE
  5
1cd
100
AcDbEntity
  8
Kamloops_spec
 62
7
100
AcDbLine
 10
0.932312
 20
2.821535
 30
0.0
 11
1.235260
 21
3.533119
 31
0.0
  0
LINE
  5
1ce
100
AcDbEntity
  8
Kamloops_spec
 62
7
100
AcDbLine
 10
1.235260
 20
3.533119
 30
0.0
 11
1.711048
 21
3.465585
 31
0.0
  0
LINE
  5
1cf
100
AcDbEntity
  8
Kamloops_spec
 62
7
100
AcDbLine
 10
1.711048
 20
3.465585
 30
0.0
 11
1.392838
 21
2.711268
 31
0.0
  0
LINE
  5
1d0
100
AcDbEntity
  8
Kamloops_spec
 62
7
100
AcDbLine
 10
1.392838
 20
2.711268
 30
0.0
 11
1.760649
 21
1.805477
 31
0.0
  0
LINE
  5
1d1
100
AcDbEntity
  8
Kamloops_spec
 62
7
100
AcDbLine
 10
1.760649
 20
1.805477
 30
0.0
 11
1.246706
 21
1.805477
 31
0.0
  0
LINE
  5
1d2
100
AcDbEntity
  8
Kamloops_spec
 62
7
100
AcDbLine
 10
1.246706
 20
1.805477
 30
0.0
 11
0.936127
 21
2.571241
 31
0.0
  0
LINE
  5
1d3
100
AcDbEntity
  8
Kamloops_spec
 62
7
100
AcDbLine
 10
0.936127
 20
2.571241
 30
0.0
 11
0.935364
 21
2.571241
 31
0.0
  0
LINE
  5
1d4
100
AcDbEntity
  8
Kamloops_spec
 62
7
100
AcDbLine
 10
0.935364
 20
2.571241
 30
0.0
 11
0.934220
 21
2.567044
 31
0.0
  0
LINE
  5
1d5
100
AcDbEntity
  8
Kamloops_spec
 62
7
100
AcDbLine
 10
0.934220
 20
2.567044
 30
0.0
 11
0.928496
 21
2.581924
 31
0.0
  0
LINE
  5
1d6
100
AcDbEntity
  8
Kamloops_spec
 62
7
100
AcDbLine
 10
0.928496
 20
2.581924
 30
0.0
 11
0.926970
 21
1.800135
 31
0.0
  0
LINE
  5
1d7
100
AcDbEntity
  8
Kamloops_spec
 62
7
100
AcDbLine
 10
0.926970
 20
1.800135
 30
0.0
 11
0.712541
 21
1.799372
 31
0.0
  0
LINE
  5
1d8
100
AcDbEntity
  8
Kamloops_spec
 62
7
100
AcDbLine
 10
0.712541
 20
1.799372
 30
0.0
 11
0.456905
 21
1.801662
 31
0.0
  0
LINE
  5
1d9
100
AcDbEntity
  8
Kamloops_spec
 62
7
100
AcDbLine
 10
0.456905
 20
1.801662
 30
0.0
 11
0.460720
 21
3.718932
 31
0.0
  0
LINE
  5
1da
100
AcDbEntity
  8
Kamloops_spec
 62
7
100
AcDbLine
 10
0.460720
 20
3.718932
 30
0.0
 11
0.460720
 21
3.718932
 31
0.0
  0
SPLINE
  5
1db
100
AcDbEntity
  8
Kamloops_spec
 62
7
100
AcDbSpline
 70
8
 71
3
 72
8
 73
4
 74
0
 40
0
 40
0
 40
0
 40
0
 40
1
 40
1
 40
1
 40
1
 10
11.420642
 20
3.697184
 30
0.0
 10
11.576800
 20
3.698151
 30
0.0
 10
11.675133
 20
3.659030
 30
0.0
 10
11.675133
 20
3.659030
 30
0.0
  0
SPLINE
  5
1dc
100
AcDbEntity
  8
Kamloops_spec
 62
7
100
AcDbSpline
 70
8
 71
3
 72
8
 73
4
 74
0
 40
0
 40
0
 40
0
 40
0
 40
1
 40
1
 40
1
 40
1
 10
11.675133
 20
3.659030
 30
0.0
 10
11.675133
 20
3.659030
 30
0.0
 10
11.634469
 20
3.244097
 30
0.0
 10
11.630111
 20
3.238947
 30
0.0
  0
SPLINE
  5
1dd
100
AcDbEntity
  8
Kamloops_spec
 62
7
100
AcDbSpline
 70
8
 71
3
 72
8
 73
4
 74
0
 40
0
 40
0
 40
0
 40
0
 40
1
 40
1
 40
1
 40
1
 10
11.630111
 20
3.238947
 30
0.0
 10
11.444661
 20
3.273195
 30
0.0
 10
11.119454
 20
3.340627
 30
0.0
 10
11.090223
 20
3.117997
 30
0.0
  0
SPLINE
  5
1de
100
AcDbEntity
  8
Kamloops_spec
 62
7
100
AcDbSpline
 70
8
 71
3
 72
8
 73
4
 74
0
 40
0
 40
0
 40
0
 40
0
 40
1
 40
1
 40
1
 40
1
 10
11.090223
 20
3.117997
 30
0.0
 10
11.052951
 20
2.834132
 30
0.0
 10
11.422122
 20
2.891932
 30
0.0
 10
11.598061
 20
2.737976
 30
0.0
  0
SPLINE
  5
1df
100
AcDbEntity
  8
Kamloops_spec
 62
7
100
AcDbSpline
 70
8
 71
3
 72
8
 73
4
 74
0
 40
0
 40
0
 40
0
 40
0
 40
1
 40
1
 40
1
 40
1
 10
11.598061
 20
2.737976
 30
0.0
 10
11.715638
 20
2.635090
 30
0.0
 10
11.755942
 20
2.465096
 30
0.0
 10
11.738852
 20
2.331248
 30
0.0
  0
SPLINE
  5
1e0
100
AcDbEntity
  8
Kamloops_spec
 62
7
100
AcDbSpline
 70
8
 71
3
 72
8
 73
4
 74
0
 40
0
 40
0
 40
0
 40
0
 40
1
 40
1
 40
1
 40
1
 10
11.738852
 20
2.331248
 30
0.0
 10
11.704107
 20
2.059135
 30
0.0
 10
11.655535
 20
1.898575
 30
0.0
 10
11.358068
 20
1.810819
 30
0.0
  0
SPLINE
  5
1e1
100
AcDbEntity
  8
Kamloops_spec
 62
7
100
AcDbSpline
 70
8
 71
3
 72
8
 73
4
 74
0
 40
0
 40
0
 40
0
 40
0
 40
1
 40
1
 40
1
 40
1
 10
11.358068
 20
1.810819
 30
0.0
 10
11.093118
 20
1.765610
 30
0.0
 10
10.642669
 20
1.876063
 30
0.0
 10
10.642669
 20
1.876063
 30
0.0
  0
LINE
  5
1e2
100
AcDbEntity
  8
Kamloops_spec
 62
7
100
AcDbLine
 10
10.642669
 20
1.876063
 30
0.0
 11
10.691506
 21
2.247308
 31
0.0
  0
SPLINE
  5
1e3
100
AcDbEntity
  8
Kamloops_spec
 62
7
100
AcDbSpline
 70
8
 71
3
 72
8
 73
4
 74
0
 40
0
 40
0
 40
0
 40
0
 40
1
 40
1
 40
1
 40
1
 10
10.691506
 20
2.247308
 30
0.0
 10
10.691506
 20
2.247308
 30
0.0
 10
10.927528
 20
2.189475
 30
0.0
 10
11.032228
 20
2.172143
 30
0.0
  0
SPLINE
  5
1e4
100
AcDbEntity
  8
Kamloops_spec
 62
7
100
AcDbSpline
 70
8
 71
3
 72
8
 73
4
 74
0
 40
0
 40
0
 40
0
 40
0
 40
1
 40
1
 40
1
 40
1
 10
11.032228
 20
2.172143
 30
0.0
 10
11.210724
 20
2.144517
 30
0.0
 10
11.302527
 20
2.189308
 30
0.0
 10
11.311138
 20
2.308355
 30
0.0
  0
SPLINE
  5
1e5
100
AcDbEntity
  8
Kamloops_spec
 62
7
100
AcDbSpline
 70
8
 71
3
 72
8
 73
4
 74
0
 40
0
 40
0
 40
0
 40
0
 40
1
 40
1
 40
1
 40
1
 10
11.311138
 20
2.308355
 30
0.0
 10
11.317438
 20
2.395456
 30
0.0
 10
11.284791
 20
2.425766
 30
0.0
 10
11.127232
 20
2.480433
 30
0.0
  0
SPLINE
  5
1e6
100
AcDbEntity
  8
Kamloops_spec
 62
7
100
AcDbSpline
 70
8
 71
3
 72
8
 73
4
 74
0
 40
0
 40
0
 40
0
 40
0
 40
1
 40
1
 40
1
 40
1
 10
11.127232
 20
2.480433
 30
0.0
 10
10.786826
 20
2.598540
 30
0.0
 10
10.675099
 20
2.731940
 30
0.0
 10
10.676245
 20
3.019176
 30
0.0
  0
SPLINE
  5
1e7
100
AcDbEntity
  8
Kamloops_spec
 62
7
100
AcDbSpline
 70
8
 71
3
 72
8
 73
4
 74
0
 40
0
 40
0
 40
0
 40
0
 40
1
 40
1
 40
1
 40
1
 10
10.676245
 20
3.019176
 30
0.0
 10
10.677562
 20
3.349506
 30
0.0
 10
10.824334
 20
3.569583
 30
0.0
 10
11.175689
 20
3.663608
 30
0.0
  0
SPLINE
  5
1e8
100
AcDbEntity
  8
Kamloops_spec
 62
7
100
AcDbSpline
 70
8
 71
3
 72
8
 73
4
 74
0
 40
0
 40
0
 40
0
 40
0
 40
1
 40
1
 40
1
 40
1
 10
11.175689
 20
3.663608
 30
0.0
 10
11.266793
 20
3.687988
 30
0.0
 10
11.349661
 20
3.696745
 30
0.0
 10
11.420642
 20
3.697184
 30
0.0
  0
LINE
  5
1e9
100
AcDbEntity
  8
Kamloops_spec
 62
7
100
AcDbLine
 10
11.420642
 20
3.697184
 30
0.0
 11
11.420642
 21
3.697184
 31
0.0
  0
SPLINE
  5
1ea
100
AcDbEntity
  8
Kamloops_spec
 62
7
100
AcDbSpline
 70
8
 71
3
 72
8
 73
4
 74
0
 40
0
 40
0
 40
0
 40
0
 40
1
 40
1
 40
1
 40
1
 10
9.833790
 20
3.457573
 30
0.0
 10
9.907128
 20
3.457796
 30
0.0
 10
9.987782
 20
3.453216
 30
0.0
 10
10.077598
 20
3.442311
 30
0.0
  0
SPLINE
  5
1eb
100
AcDbEntity
  8
Kamloops_spec
 62
7
100
AcDbSpline
 70
8
 71
3
 72
8
 73
4
 74
0
 40
0
 40
0
 40
0
 40
0
 40
1
 40
1
 40
1
 40
1
 10
10.077598
 20
3.442311
 30
0.0
 10
10.422938
 20
3.400383
 30
0.0
 10
10.507465
 20
3.142003
 30
0.0
 10
10.515995
 20
2.929131
 30
0.0
  0
LINE
  5
1ec
100
AcDbEntity
  8
Kamloops_spec
 62
7
100
AcDbLine
 10
10.515995
 20
2.929131
 30
0.0
 11
10.138646
 21
2.929131
 31
0.0
  0
SPLINE
  5
1ed
100
AcDbEntity
  8
Kamloops_spec
 62
7
100
AcDbSpline
 70
8
 71
3
 72
8
 73
4
 74
0
 40
0
 40
0
 40
0
 40
0
 40
1
 40
1
 40
1
 40
1
 10
10.138646
 20
2.929131
 30
0.0
 10
10.113102
 20
3.015338
 30
0.0
 10
10.033847
 20
3.084450
 30
0.0
 10
9.896364
 20
3.085947
 30
0.0
  0
SPLINE
  5
1ee
100
AcDbEntity
  8
Kamloops_spec
 62
7
100
AcDbSpline
 70
8
 71
3
 72
8
 73
4
 74
0
 40
0
 40
0
 40
0
 40
0
 40
1
 40
1
 40
1
 40
1
 10
9.896364
 20
3.085947
 30
0.0
 10
9.855468
 20
3.086392
 30
0.0
 10
9.809576
 20
3.080846
 30
0.0
 10
9.758244
 20
3.068014
 30
0.0
  0
LINE
  5
1ef
100
AcDbEntity
  8
Kamloops_spec
 62
7
100
AcDbLine
 10
9.758244
 20
3.068014
 30
0.0
 11
9.758244
 21
3.066106
 31
0.0
  0
SPLINE
  5
1f0
100
AcDbEntity
  8
Kamloops_spec
 62
7
100
AcDbSpline
 70
8
 71
3
 72
8
 73
4
 74
0
 40
0
 40
0
 40
0
 40
0
 40
1
 40
1
 40
1
 40
1
 10
9.758244
 20
3.066106
 30
0.0
 10
9.757477
 20
3.066034
 30
0.0
 10
9.756718
 20
3.065796
 30
0.0
 10
9.755954
 20
3.065725
 30
0.0
  0
SPLINE
  5
1f1
100
AcDbEntity
  8
Kamloops_spec
 62
7
100
AcDbSpline
 70
8
 71
3
 72
8
 73
4
 74
0
 40
0
 40
0
 40
0
 40
0
 40
1
 40
1
 40
1
 40
1
 10
9.755954
 20
3.065725
 30
0.0
 10
9.754513
 20
3.020584
 30
0.0
 10
9.753418
 20
2.974892
 30
0.0
 10
9.752139
 20
2.929131
 30
0.0
  0
LINE
  5
1f2
100
AcDbEntity
  8
Kamloops_spec
 62
7
100
AcDbLine
 10
9.752139
 20
2.929131
 30
0.0
 11
9.321755
 21
2.929131
 31
0.0
  0
LINE
  5
1f3
100
AcDbEntity
  8
Kamloops_spec
 62
7
100
AcDbLine
 10
9.321755
 20
2.929131
 30
0.0
 11
9.325570
 21
3.372488
 31
0.0
  0
SPLINE
  5
1f4
100
AcDbEntity
  8
Kamloops_spec
 62
7
100
AcDbSpline
 70
8
 71
3
 72
8
 73
4
 74
0
 40
0
 40
0
 40
0
 40
0
 40
1
 40
1
 40
1
 40
1
 10
9.325570
 20
3.372488
 30
0.0
 10
9.460020
 20
3.413584
 30
0.0
 10
9.613776
 20
3.456912
 30
0.0
 10
9.833790
 20
3.457573
 30
0.0
  0
LINE
  5
1f5
100
AcDbEntity
  8
Kamloops_spec
 62
7
100
AcDbLine
 10
9.833790
 20
3.457573
 30
0.0
 11
9.833790
 21
3.457573
 31
0.0
  0
LINE
  5
1f6
100
AcDbEntity
  8
Kamloops_spec
 62
7
100
AcDbLine
 10
2.312747
 20
3.427049
 30
0.0
 11
2.858358
 21
3.368291
 31
0.0
  0
LINE
  5
1f7
100
AcDbEntity
  8
Kamloops_spec
 62
7
100
AcDbLine
 10
2.858358
 20
3.368291
 30
0.0
 11
3.152149
 21
2.437699
 31
0.0
  0
LINE
  5
1f8
100
AcDbEntity
  8
Kamloops_spec
 62
7
100
AcDbLine
 10
3.152149
 20
2.437699
 30
0.0
 11
2.709555
 21
2.446475
 31
0.0
  0
SPLINE
  5
1f9
100
AcDbEntity
  8
Kamloops_spec
 62
7
100
AcDbSpline
 70
8
 71
3
 72
8
 73
4
 74
0
 40
0
 40
0
 40
0
 40
0
 40
1
 40
1
 40
1
 40
1
 10
2.709555
 20
2.446475
 30
0.0
 10
2.674660
 20
2.605712
 30
0.0
 10
2.632314
 20
2.764813
 30
0.0
 10
2.593947
 20
2.923026
 30
0.0
  0
LINE
  5
1fa
100
AcDbEntity
  8
Kamloops_spec
 62
7
100
AcDbLine
 10
2.593947
 20
2.923026
 30
0.0
 11
2.593183
 21
2.926842
 31
0.0
  0
LINE
  5
1fb
100
AcDbEntity
  8
Kamloops_spec
 62
7
100
AcDbLine
 10
2.593183
 20
2.926842
 30
0.0
 11
2.592420
 21
2.923790
 31
0.0
  0
LINE
  5
1fc
100
AcDbEntity
  8
Kamloops_spec
 62
7
100
AcDbLine
 10
2.592420
 20
2.923790
 30
0.0
 11
2.519927
 21
2.679600
 31
0.0
  0
SPLINE
  5
1fd
100
AcDbEntity
  8
Kamloops_spec
 62
7
100
AcDbSpline
 70
8
 71
3
 72
8
 73
4
 74
0
 40
0
 40
0
 40
0
 40
0
 40
1
 40
1
 40
1
 40
1
 10
2.519927
 20
2.679600
 30
0.0
 10
2.501835
 20
2.603266
 30
0.0
 10
2.480558
 20
2.527770
 30
0.0
 10
2.460787
 20
2.451817
 30
0.0
  0
LINE
  5
1fe
100
AcDbEntity
  8
Kamloops_spec
 62
7
100
AcDbLine
 10
2.460787
 20
2.451817
 30
0.0
 11
2.038796
 21
2.460211
 31
0.0
  0
LINE
  5
1ff
100
AcDbEntity
  8
Kamloops_spec
 62
7
100
AcDbLine
 10
2.038796
 20
2.460211
 30
0.0
 11
2.305497
 21
3.425905
 31
0.0
  0
LINE
  5
200
100
AcDbEntity
  8
Kamloops_spec
 62
7
100
AcDbLine
 10
2.305497
 20
3.425905
 30
0.0
 11
2.312747
 21
3.427049
 31
0.0
  0
LINE
  5
201
100
AcDbEntity
  8
Kamloops_spec
 62
7
100
AcDbLine
 10
2.312747
 20
3.427049
 30
0.0
 11
2.312747
 21
3.427049
 31
0.0
  0
SPLINE
  5
202
100
AcDbEntity
  8
Kamloops_spec
 62
7
100
AcDbSpline
 70
8
 71
3
 72
8
 73
4
 74
0
 40
0
 40
0
 40
0
 40
0
 40
1
 40
1
 40
1
 40
1
 10
8.596054
 20
3.322124
 30
0.0
 10
8.765424
 20
3.319207
 30
0.0
 10
8.937713
 20
3.278368
 30
0.0
 10
9.037884
 20
3.181333
 30
0.0
  0
SPLINE
  5
203
100
AcDbEntity
  8
Kamloops_spec
 62
7
100
AcDbSpline
 70
8
 71
3
 72
8
 73
4
 74
0
 40
0
 40
0
 40
0
 40
0
 40
1
 40
1
 40
1
 40
1
 10
9.037884
 20
3.181333
 30
0.0
 10
9.131558
 20
3.087921
 30
0.0
 10
9.184286
 20
2.951572
 30
0.0
 10
9.203094
 20
2.753238
 30
0.0
  0
SPLINE
  5
204
100
AcDbEntity
  8
Kamloops_spec
 62
7
100
AcDbSpline
 70
8
 71
3
 72
8
 73
4
 74
0
 40
0
 40
0
 40
0
 40
0
 40
1
 40
1
 40
1
 40
1
 10
9.203094
 20
2.753238
 30
0.0
 10
9.207934
 20
2.702193
 30
0.0
 10
9.210726
 20
2.651970
 30
0.0
 10
9.211488
 20
2.602909
 30
0.0
  0
LINE
  5
205
100
AcDbEntity
  8
Kamloops_spec
 62
7
100
AcDbLine
 10
9.211488
 20
2.602909
 30
0.0
 11
8.759737
 21
2.602909
 31
0.0
  0
SPLINE
  5
206
100
AcDbEntity
  8
Kamloops_spec
 62
7
100
AcDbSpline
 70
8
 71
3
 72
8
 73
4
 74
0
 40
0
 40
0
 40
0
 40
0
 40
1
 40
1
 40
1
 40
1
 10
8.759737
 20
2.602909
 30
0.0
 10
8.758097
 20
2.713810
 30
0.0
 10
8.746054
 20
2.816466
 30
0.0
 10
8.723490
 20
2.860453
 30
0.0
  0
SPLINE
  5
207
100
AcDbEntity
  8
Kamloops_spec
 62
7
100
AcDbSpline
 70
8
 71
3
 72
8
 73
4
 74
0
 40
0
 40
0
 40
0
 40
0
 40
1
 40
1
 40
1
 40
1
 10
8.723490
 20
2.860453
 30
0.0
 10
8.689107
 20
2.927484
 30
0.0
 10
8.629844
 20
2.960418
 30
0.0
 10
8.543782
 20
2.960418
 30
0.0
  0
SPLINE
  5
208
100
AcDbEntity
  8
Kamloops_spec
 62
7
100
AcDbSpline
 70
8
 71
3
 72
8
 73
4
 74
0
 40
0
 40
0
 40
0
 40
0
 40
1
 40
1
 40
1
 40
1
 10
8.543782
 20
2.960418
 30
0.0
 10
8.438129
 20
2.960418
 30
0.0
 10
8.375357
 20
2.923664
 30
0.0
 10
8.332405
 20
2.836415
 30
0.0
  0
SPLINE
  5
209
100
AcDbEntity
  8
Kamloops_spec
 62
7
100
AcDbSpline
 70
8
 71
3
 72
8
 73
4
 74
0
 40
0
 40
0
 40
0
 40
0
 40
1
 40
1
 40
1
 40
1
 10
8.332405
 20
2.836415
 30
0.0
 10
8.310330
 20
2.787835
 30
0.0
 10
8.298369
 20
2.676243
 30
0.0
 10
8.294250
 20
2.580398
 30
0.0
  0
LINE
  5
20a
100
AcDbEntity
  8
Kamloops_spec
 62
7
100
AcDbLine
 10
8.294250
 20
2.580398
 30
0.0
 11
7.839065
 21
2.580398
 31
0.0
  0
SPLINE
  5
20b
100
AcDbEntity
  8
Kamloops_spec
 62
7
100
AcDbSpline
 70
8
 71
3
 72
8
 73
4
 74
0
 40
0
 40
0
 40
0
 40
0
 40
1
 40
1
 40
1
 40
1
 10
7.839065
 20
2.580398
 30
0.0
 10
7.840509
 20
2.607226
 30
0.0
 10
7.842595
 20
2.655527
 30
0.0
 10
7.845552
 20
2.679600
 30
0.0
  0
SPLINE
  5
20c
100
AcDbEntity
  8
Kamloops_spec
 62
7
100
AcDbSpline
 70
8
 71
3
 72
8
 73
4
 74
0
 40
0
 40
0
 40
0
 40
0
 40
1
 40
1
 40
1
 40
1
 10
7.845552
 20
2.679600
 30
0.0
 10
7.875218
 20
2.927950
 30
0.0
 10
7.991943
 20
3.142632
 30
0.0
 10
8.190470
 20
3.235513
 30
0.0
  0
SPLINE
  5
20d
100
AcDbEntity
  8
Kamloops_spec
 62
7
100
AcDbSpline
 70
8
 71
3
 72
8
 73
4
 74
0
 40
0
 40
0
 40
0
 40
0
 40
1
 40
1
 40
1
 40
1
 10
8.190470
 20
3.235513
 30
0.0
 10
8.313847
 20
3.292746
 30
0.0
 10
8.436741
 20
3.319166
 30
0.0
 10
8.596054
 20
3.322124
 30
0.0
  0
LINE
  5
20e
100
AcDbEntity
  8
Kamloops_spec
 62
7
100
AcDbLine
 10
8.596054
 20
3.322124
 30
0.0
 11
8.596054
 21
3.322124
 31
0.0
  0
LINE
  5
20f
100
AcDbEntity
  8
Kamloops_spec
 62
7
100
AcDbLine
 10
3.508132
 20
3.309151
 30
0.0
 11
3.989643
 21
3.272523
 31
0.0
  0
LINE
  5
210
100
AcDbEntity
  8
Kamloops_spec
 62
7
100
AcDbLine
 10
3.989643
 20
3.272523
 30
0.0
 11
4.300222
 21
2.426635
 31
0.0
  0
LINE
  5
211
100
AcDbEntity
  8
Kamloops_spec
 62
7
100
AcDbLine
 10
4.300222
 20
2.426635
 30
0.0
 11
4.363559
 21
2.426253
 31
0.0
  0
LINE
  5
212
100
AcDbEntity
  8
Kamloops_spec
 62
7
100
AcDbLine
 10
4.363559
 20
2.426253
 30
0.0
 11
4.671467
 21
3.233605
 31
0.0
  0
LINE
  5
213
100
AcDbEntity
  8
Kamloops_spec
 62
7
100
AcDbLine
 10
4.671467
 20
3.233605
 30
0.0
 11
5.152978
 21
3.211857
 31
0.0
  0
SPLINE
  5
214
100
AcDbEntity
  8
Kamloops_spec
 62
7
100
AcDbSpline
 70
8
 71
3
 72
8
 73
4
 74
0
 40
0
 40
0
 40
0
 40
0
 40
1
 40
1
 40
1
 40
1
 10
5.152978
 20
3.211857
 30
0.0
 10
5.159634
 20
2.687525
 30
0.0
 10
5.165188
 20
2.280511
 30
0.0
 10
5.165188
 20
1.792504
 30
0.0
  0
LINE
  5
215
100
AcDbEntity
  8
Kamloops_spec
 62
7
100
AcDbLine
 10
5.165188
 20
1.792504
 30
0.0
 11
4.775248
 21
1.792504
 31
0.0
  0
LINE
  5
216
100
AcDbEntity
  8
Kamloops_spec
 62
7
100
AcDbLine
 10
4.775248
 20
1.792504
 30
0.0
 11
4.777155
 21
2.457158
 31
0.0
  0
LINE
  5
217
100
AcDbEntity
  8
Kamloops_spec
 62
7
100
AcDbLine
 10
4.777155
 20
2.457158
 30
0.0
 11
4.744342
 21
2.468605
 31
0.0
  0
LINE
  5
218
100
AcDbEntity
  8
Kamloops_spec
 62
7
100
AcDbLine
 10
4.744342
 20
2.468605
 30
0.0
 11
4.463524
 21
1.792123
 31
0.0
  0
SPLINE
  5
219
100
AcDbEntity
  8
Kamloops_spec
 62
7
100
AcDbSpline
 70
8
 71
3
 72
8
 73
4
 74
0
 40
0
 40
0
 40
0
 40
0
 40
1
 40
1
 40
1
 40
1
 10
4.463524
 20
1.792123
 30
0.0
 10
4.372965
 20
1.793497
 30
0.0
 10
4.282415
 20
1.795303
 30
0.0
 10
4.191863
 20
1.797083
 30
0.0
  0
LINE
  5
21a
100
AcDbEntity
  8
Kamloops_spec
 62
7
100
AcDbLine
 10
4.191863
 20
1.797083
 30
0.0
 11
3.943095
 21
2.492642
 31
0.0
  0
LINE
  5
21b
100
AcDbEntity
  8
Kamloops_spec
 62
7
100
AcDbLine
 10
3.943095
 20
2.492642
 30
0.0
 11
3.879377
 21
2.470894
 31
0.0
  0
LINE
  5
21c
100
AcDbEntity
  8
Kamloops_spec
 62
7
100
AcDbLine
 10
3.879377
 20
2.470894
 30
0.0
 11
3.879377
 21
1.792504
 31
0.0
  0
LINE
  5
21d
100
AcDbEntity
  8
Kamloops_spec
 62
7
100
AcDbLine
 10
3.879377
 20
1.792504
 30
0.0
 11
3.508132
 21
1.792504
 31
0.0
  0
SPLINE
  5
21e
100
AcDbEntity
  8
Kamloops_spec
 62
7
100
AcDbSpline
 70
8
 71
3
 72
8
 73
4
 74
0
 40
0
 40
0
 40
0
 40
0
 40
1
 40
1
 40
1
 40
1
 10
3.508132
 20
1.792504
 30
0.0
 10
3.508132
 20
2.298053
 30
0.0
 10
3.508131
 20
2.803603
 30
0.0
 10
3.508132
 20
3.309151
 30
0.0
  0
LINE
  5
21f
100
AcDbEntity
  8
Kamloops_spec
 62
7
100
AcDbLine
 10
3.508132
 20
3.309151
 30
0.0
 11
3.508132
 21
3.309151
 31
0.0
  0
SPLINE
  5
220
100
AcDbEntity
  8
Kamloops_spec
 62
7
100
AcDbSpline
 70
8
 71
3
 72
8
 73
4
 74
0
 40
0
 40
0
 40
0
 40
0
 40
1
 40
1
 40
1
 40
1
 10
7.127481
 20
3.236658
 30
0.0
 10
7.213373
 20
3.235916
 30
0.0
 10
7.297958
 20
3.228898
 30
0.0
 10
7.350686
 20
3.215673
 30
0.0
  0
SPLINE
  5
221
100
AcDbEntity
  8
Kamloops_spec
 62
7
100
AcDbSpline
 70
8
 71
3
 72
8
 73
4
 74
0
 40
0
 40
0
 40
0
 40
0
 40
1
 40
1
 40
1
 40
1
 10
7.350686
 20
3.215673
 30
0.0
 10
7.581875
 20
3.157687
 30
0.0
 10
7.705374
 20
3.011570
 30
0.0
 10
7.750165
 20
2.743700
 30
0.0
  0
SPLINE
  5
222
100
AcDbEntity
  8
Kamloops_spec
 62
7
100
AcDbSpline
 70
8
 71
3
 72
8
 73
4
 74
0
 40
0
 40
0
 40
0
 40
0
 40
1
 40
1
 40
1
 40
1
 10
7.750165
 20
2.743700
 30
0.0
 10
7.758529
 20
2.693679
 30
0.0
 10
7.762864
 20
2.641291
 30
0.0
 10
7.763519
 20
2.571622
 30
0.0
  0
LINE
  5
223
100
AcDbEntity
  8
Kamloops_spec
 62
7
100
AcDbLine
 10
7.763519
 20
2.571622
 30
0.0
 11
7.309479
 21
2.571622
 31
0.0
  0
SPLINE
  5
224
100
AcDbEntity
  8
Kamloops_spec
 62
7
100
AcDbSpline
 70
8
 71
3
 72
8
 73
4
 74
0
 40
0
 40
0
 40
0
 40
0
 40
1
 40
1
 40
1
 40
1
 10
7.309479
 20
2.571622
 30
0.0
 10
7.309001
 20
2.609465
 30
0.0
 10
7.307207
 20
2.632893
 30
0.0
 10
7.304137
 20
2.669298
 30
0.0
  0
SPLINE
  5
225
100
AcDbEntity
  8
Kamloops_spec
 62
7
100
AcDbSpline
 70
8
 71
3
 72
8
 73
4
 74
0
 40
0
 40
0
 40
0
 40
0
 40
1
 40
1
 40
1
 40
1
 10
7.304137
 20
2.669298
 30
0.0
 10
7.296914
 20
2.815511
 30
0.0
 10
7.221297
 20
2.895937
 30
0.0
 10
7.083222
 20
2.897081
 30
0.0
  0
SPLINE
  5
226
100
AcDbEntity
  8
Kamloops_spec
 62
7
100
AcDbSpline
 70
8
 71
3
 72
8
 73
4
 74
0
 40
0
 40
0
 40
0
 40
0
 40
1
 40
1
 40
1
 40
1
 10
7.083222
 20
2.897081
 30
0.0
 10
6.982528
 20
2.897181
 30
0.0
 10
6.914159
 20
2.854185
 30
0.0
 10
6.874516
 20
2.766592
 30
0.0
  0
SPLINE
  5
227
100
AcDbEntity
  8
Kamloops_spec
 62
7
100
AcDbSpline
 70
8
 71
3
 72
8
 73
4
 74
0
 40
0
 40
0
 40
0
 40
0
 40
1
 40
1
 40
1
 40
1
 10
6.874516
 20
2.766592
 30
0.0
 10
6.862823
 20
2.720205
 30
0.0
 10
6.854860
 20
2.641807
 30
0.0
 10
6.851623
 20
2.557887
 30
0.0
  0
LINE
  5
228
100
AcDbEntity
  8
Kamloops_spec
 62
7
100
AcDbLine
 10
6.851623
 20
2.557887
 30
0.0
 11
6.390715
 21
2.557887
 31
0.0
  0
SPLINE
  5
229
100
AcDbEntity
  8
Kamloops_spec
 62
7
100
AcDbSpline
 70
8
 71
3
 72
8
 73
4
 74
0
 40
0
 40
0
 40
0
 40
0
 40
1
 40
1
 40
1
 40
1
 10
6.390715
 20
2.557887
 30
0.0
 10
6.390775
 20
2.559295
 30
0.0
 10
6.390655
 20
2.560672
 30
0.0
 10
6.390715
 20
2.562084
 30
0.0
  0
SPLINE
  5
22a
100
AcDbEntity
  8
Kamloops_spec
 62
7
100
AcDbSpline
 70
8
 71
3
 72
8
 73
4
 74
0
 40
0
 40
0
 40
0
 40
0
 40
1
 40
1
 40
1
 40
1
 10
6.390715
 20
2.562084
 30
0.0
 10
6.411201
 20
2.956280
 30
0.0
 10
6.559631
 20
3.149410
 30
0.0
 10
6.895501
 20
3.219488
 30
0.0
  0
SPLINE
  5
22b
100
AcDbEntity
  8
Kamloops_spec
 62
7
100
AcDbSpline
 70
8
 71
3
 72
8
 73
4
 74
0
 40
0
 40
0
 40
0
 40
0
 40
1
 40
1
 40
1
 40
1
 10
6.895501
 20
3.219488
 30
0.0
 10
6.954273
 20
3.231751
 30
0.0
 10
7.041590
 20
3.237399
 30
0.0
 10
7.127481
 20
3.236658
 30
0.0
  0
LINE
  5
22c
100
AcDbEntity
  8
Kamloops_spec
 62
7
100
AcDbLine
 10
7.127481
 20
3.236658
 30
0.0
 11
7.127481
 21
3.236658
 31
0.0
  0
SPLINE
  5
22d
100
AcDbEntity
  8
Kamloops_spec
 62
7
100
AcDbSpline
 70
8
 71
3
 72
8
 73
4
 74
0
 40
0
 40
0
 40
0
 40
0
 40
1
 40
1
 40
1
 40
1
 10
5.328108
 20
3.216436
 30
0.0
 10
5.328108
 20
3.216436
 30
0.0
 10
5.611594
 20
3.204989
 30
0.0
 10
5.771465
 20
3.204989
 30
0.0
  0
LINE
  5
22e
100
AcDbEntity
  8
Kamloops_spec
 62
7
100
AcDbLine
 10
5.771465
 20
3.204989
 30
0.0
 11
5.776044
 21
2.132081
 31
0.0
  0
SPLINE
  5
22f
100
AcDbEntity
  8
Kamloops_spec
 62
7
100
AcDbSpline
 70
8
 71
3
 72
8
 73
4
 74
0
 40
0
 40
0
 40
0
 40
0
 40
1
 40
1
 40
1
 40
1
 10
5.776044
 20
2.132081
 30
0.0
 10
5.955622
 20
2.130148
 30
0.0
 10
6.135205
 20
2.128647
 30
0.0
 10
6.314787
 20
2.127121
 30
0.0
  0
LINE
  5
230
100
AcDbEntity
  8
Kamloops_spec
 62
7
100
AcDbLine
 10
6.314787
 20
2.127121
 30
0.0
 11
6.314787
 21
1.792504
 31
0.0
  0
LINE
  5
231
100
AcDbEntity
  8
Kamloops_spec
 62
7
100
AcDbLine
 10
6.314787
 20
1.792504
 30
0.0
 11
5.328108
 21
1.792504
 31
0.0
  0
LINE
  5
232
100
AcDbEntity
  8
Kamloops_spec
 62
7
100
AcDbLine
 10
5.328108
 20
1.792504
 30
0.0
 11
5.328108
 21
3.216436
 31
0.0
  0
LINE
  5
233
100
AcDbEntity
  8
Kamloops_spec
 62
7
100
AcDbLine
 10
5.328108
 20
3.216436
 30
0.0
 11
5.328108
 21
3.216436
 31
0.0
  0
LINE
  5
234
100
AcDbEntity
  8
Kamloops_spec
 62
7
100
AcDbLine
 10
9.320610
 20
2.797498
 30
0.0
 11
9.748705
 21
2.797498
 31
0.0
  0
SPLINE
  5
235
100
AcDbEntity
  8
Kamloops_spec
 62
7
100
AcDbSpline
 70
8
 71
3
 72
8
 73
4
 74
0
 40
0
 40
0
 40
0
 40
0
 40
1
 40
1
 40
1
 40
1
 10
9.748705
 20
2.797498
 30
0.0
 10
9.747351
 20
2.730041
 30
0.0
 10
9.746416
 20
2.662434
 30
0.0
 10
9.746416
 20
2.595278
 30
0.0
  0
SPLINE
  5
236
100
AcDbEntity
  8
Kamloops_spec
 62
7
100
AcDbSpline
 70
8
 71
3
 72
8
 73
4
 74
0
 40
0
 40
0
 40
0
 40
0
 40
1
 40
1
 40
1
 40
1
 10
9.746416
 20
2.595278
 30
0.0
 10
9.968443
 20
2.558321
 30
0.0
 10
10.103414
 20
2.670832
 30
0.0
 10
10.138645
 20
2.797498
 30
0.0
  0
LINE
  5
237
100
AcDbEntity
  8
Kamloops_spec
 62
7
100
AcDbLine
 10
10.138645
 20
2.797498
 30
0.0
 11
10.505693
 21
2.797498
 31
0.0
  0
SPLINE
  5
238
100
AcDbEntity
  8
Kamloops_spec
 62
7
100
AcDbSpline
 70
8
 71
3
 72
8
 73
4
 74
0
 40
0
 40
0
 40
0
 40
0
 40
1
 40
1
 40
1
 40
1
 10
10.505693
 20
2.797498
 30
0.0
 10
10.446756
 20
2.387332
 30
0.0
 10
10.196655
 20
2.273060
 30
0.0
 10
9.747942
 20
2.242729
 30
0.0
  0
LINE
  5
239
100
AcDbEntity
  8
Kamloops_spec
 62
7
100
AcDbLine
 10
9.747942
 20
2.242729
 30
0.0
 11
9.746417
 21
1.801280
 31
0.0
  0
LINE
  5
23a
100
AcDbEntity
  8
Kamloops_spec
 62
7
100
AcDbLine
 10
9.746417
 20
1.801280
 30
0.0
 11
9.311835
 21
1.801280
 31
0.0
  0
LINE
  5
23b
100
AcDbEntity
  8
Kamloops_spec
 62
7
100
AcDbLine
 10
9.311835
 20
1.801280
 30
0.0
 11
9.320611
 21
2.797498
 31
0.0
  0
LINE
  5
23c
100
AcDbEntity
  8
Kamloops_spec
 62
7
100
AcDbLine
 10
9.320611
 20
2.797498
 30
0.0
 11
9.320610
 21
2.797498
 31
0.0
  0
LINE
  5
23d
100
AcDbEntity
  8
Kamloops_spec
 62
7
100
AcDbLine
 10
8.756685
 20
2.471275
 30
0.0
 11
9.208435
 21
2.471275
 31
0.0
  0
SPLINE
  5
23e
100
AcDbEntity
  8
Kamloops_spec
 62
7
100
AcDbSpline
 70
8
 71
3
 72
8
 73
4
 74
0
 40
0
 40
0
 40
0
 40
0
 40
1
 40
1
 40
1
 40
1
 10
9.208435
 20
2.471275
 30
0.0
 10
9.199134
 20
2.320904
 30
0.0
 10
9.169433
 20
2.187718
 30
0.0
 10
9.121061
 20
2.086677
 30
0.0
  0
SPLINE
  5
23f
100
AcDbEntity
  8
Kamloops_spec
 62
7
100
AcDbSpline
 70
8
 71
3
 72
8
 73
4
 74
0
 40
0
 40
0
 40
0
 40
0
 40
1
 40
1
 40
1
 40
1
 10
9.121061
 20
2.086677
 30
0.0
 10
9.010950
 20
1.856668
 30
0.0
 10
8.784978
 20
1.758570
 30
0.0
 10
8.424358
 20
1.784110
 30
0.0
  0
SPLINE
  5
240
100
AcDbEntity
  8
Kamloops_spec
 62
7
100
AcDbSpline
 70
8
 71
3
 72
8
 73
4
 74
0
 40
0
 40
0
 40
0
 40
0
 40
1
 40
1
 40
1
 40
1
 10
8.424358
 20
1.784110
 30
0.0
 10
8.121293
 20
1.805574
 30
0.0
 10
7.937474
 20
1.950876
 30
0.0
 10
7.866537
 20
2.224796
 30
0.0
  0
SPLINE
  5
241
100
AcDbEntity
  8
Kamloops_spec
 62
7
100
AcDbSpline
 70
8
 71
3
 72
8
 73
4
 74
0
 40
0
 40
0
 40
0
 40
0
 40
1
 40
1
 40
1
 40
1
 10
7.866537
 20
2.224796
 30
0.0
 10
7.850247
 20
2.287696
 30
0.0
 10
7.840571
 20
2.356127
 30
0.0
 10
7.837921
 20
2.448764
 30
0.0
  0
LINE
  5
242
100
AcDbEntity
  8
Kamloops_spec
 62
7
100
AcDbLine
 10
7.837921
 20
2.448764
 30
0.0
 11
8.293487
 21
2.448764
 31
0.0
  0
SPLINE
  5
243
100
AcDbEntity
  8
Kamloops_spec
 62
7
100
AcDbSpline
 70
8
 71
3
 72
8
 73
4
 74
0
 40
0
 40
0
 40
0
 40
0
 40
1
 40
1
 40
1
 40
1
 10
8.293487
 20
2.448764
 30
0.0
 10
8.302034
 20
2.327918
 30
0.0
 10
8.313364
 20
2.186349
 30
0.0
 10
8.434659
 20
2.139712
 30
0.0
  0
SPLINE
  5
244
100
AcDbEntity
  8
Kamloops_spec
 62
7
100
AcDbSpline
 70
8
 71
3
 72
8
 73
4
 74
0
 40
0
 40
0
 40
0
 40
0
 40
1
 40
1
 40
1
 40
1
 10
8.434659
 20
2.139712
 30
0.0
 10
8.472311
 20
2.126086
 30
0.0
 10
8.559864
 20
2.125257
 30
0.0
 10
8.601777
 20
2.140856
 30
0.0
  0
SPLINE
  5
245
100
AcDbEntity
  8
Kamloops_spec
 62
7
100
AcDbSpline
 70
8
 71
3
 72
8
 73
4
 74
0
 40
0
 40
0
 40
0
 40
0
 40
1
 40
1
 40
1
 40
1
 10
8.601777
 20
2.140856
 30
0.0
 10
8.744801
 20
2.194090
 30
0.0
 10
8.749256
 20
2.352771
 30
0.0
 10
8.756685
 20
2.471275
 30
0.0
  0
LINE
  5
246
100
AcDbEntity
  8
Kamloops_spec
 62
7
100
AcDbLine
 10
8.756685
 20
2.471275
 30
0.0
 11
8.756685
 21
2.471275
 31
0.0
  0
LINE
  5
247
100
AcDbEntity
  8
Kamloops_spec
 62
7
100
AcDbLine
 10
7.305663
 20
2.439989
 30
0.0
 11
7.760467
 21
2.439989
 31
0.0
  0
SPLINE
  5
248
100
AcDbEntity
  8
Kamloops_spec
 62
7
100
AcDbSpline
 70
8
 71
3
 72
8
 73
4
 74
0
 40
0
 40
0
 40
0
 40
0
 40
1
 40
1
 40
1
 40
1
 10
7.760467
 20
2.439989
 30
0.0
 10
7.760467
 20
2.439989
 30
0.0
 10
7.746816
 20
2.266932
 30
0.0
 10
7.733377
 20
2.215639
 30
0.0
  0
SPLINE
  5
249
100
AcDbEntity
  8
Kamloops_spec
 62
7
100
AcDbSpline
 70
8
 71
3
 72
8
 73
4
 74
0
 40
0
 40
0
 40
0
 40
0
 40
1
 40
1
 40
1
 40
1
 10
7.733377
 20
2.215639
 30
0.0
 10
7.675334
 20
1.994100
 30
0.0
 10
7.549732
 20
1.863450
 30
0.0
 10
7.342673
 20
1.808911
 30
0.0
  0
SPLINE
  5
24a
100
AcDbEntity
  8
Kamloops_spec
 62
7
100
AcDbSpline
 70
8
 71
3
 72
8
 73
4
 74
0
 40
0
 40
0
 40
0
 40
0
 40
1
 40
1
 40
1
 40
1
 10
7.342673
 20
1.808911
 30
0.0
 10
7.264761
 20
1.788389
 30
0.0
 10
7.112652
 20
1.775065
 30
0.0
 10
7.012254
 20
1.780295
 30
0.0
  0
SPLINE
  5
24b
100
AcDbEntity
  8
Kamloops_spec
 62
7
100
AcDbSpline
 70
8
 71
3
 72
8
 73
4
 74
0
 40
0
 40
0
 40
0
 40
0
 40
1
 40
1
 40
1
 40
1
 10
7.012254
 20
1.780295
 30
0.0
 10
6.810463
 20
1.790806
 30
0.0
 10
6.644441
 20
1.856794
 30
0.0
 10
6.547531
 20
1.964582
 30
0.0
  0
SPLINE
  5
24c
100
AcDbEntity
  8
Kamloops_spec
 62
7
100
AcDbSpline
 70
8
 71
3
 72
8
 73
4
 74
0
 40
0
 40
0
 40
0
 40
0
 40
1
 40
1
 40
1
 40
1
 10
6.547531
 20
1.964582
 30
0.0
 10
6.454275
 20
2.068304
 30
0.0
 10
6.399811
 20
2.230218
 30
0.0
 10
6.390334
 20
2.426253
 30
0.0
  0
LINE
  5
24d
100
AcDbEntity
  8
Kamloops_spec
 62
7
100
AcDbLine
 10
6.390334
 20
2.426253
 30
0.0
 11
6.850479
 21
2.426253
 31
0.0
  0
SPLINE
  5
24e
100
AcDbEntity
  8
Kamloops_spec
 62
7
100
AcDbSpline
 70
8
 71
3
 72
8
 73
4
 74
0
 40
0
 40
0
 40
0
 40
0
 40
1
 40
1
 40
1
 40
1
 10
6.850479
 20
2.426253
 30
0.0
 10
6.852831
 20
2.340418
 30
0.0
 10
6.861400
 20
2.263548
 30
0.0
 10
6.877568
 20
2.225941
 30
0.0
  0
SPLINE
  5
24f
100
AcDbEntity
  8
Kamloops_spec
 62
7
100
AcDbSpline
 70
8
 71
3
 72
8
 73
4
 74
0
 40
0
 40
0
 40
0
 40
0
 40
1
 40
1
 40
1
 40
1
 10
6.877568
 20
2.225941
 30
0.0
 10
6.902007
 20
2.173822
 30
0.0
 10
6.940580
 20
2.137305
 30
0.0
 10
6.989361
 20
2.120253
 30
0.0
  0
SPLINE
  5
250
100
AcDbEntity
  8
Kamloops_spec
 62
7
100
AcDbSpline
 70
8
 71
3
 72
8
 73
4
 74
0
 40
0
 40
0
 40
0
 40
0
 40
1
 40
1
 40
1
 40
1
 10
6.989361
 20
2.120253
 30
0.0
 10
7.025490
 20
2.107624
 30
0.0
 10
7.116624
 20
2.106982
 30
0.0
 10
7.160294
 20
2.119108
 30
0.0
  0
SPLINE
  5
251
100
AcDbEntity
  8
Kamloops_spec
 62
7
100
AcDbSpline
 70
8
 71
3
 72
8
 73
4
 74
0
 40
0
 40
0
 40
0
 40
0
 40
1
 40
1
 40
1
 40
1
 10
7.160294
 20
2.119108
 30
0.0
 10
7.298612
 20
2.177969
 30
0.0
 10
7.294890
 20
2.306547
 30
0.0
 10
7.305663
 20
2.439989
 30
0.0
  0
LINE
  5
252
100
AcDbEntity
  8
Kamloops_spec
 62
7
100
AcDbLine
 10
7.305663
 20
2.439989
 30
0.0
 11
7.305663
 21
2.439989
 31
0.0
  0
LINE
  5
253
100
AcDbEntity
  8
Kamloops_spec
 62
7
100
AcDbLine
 10
2.002931
 20
2.329340
 30
0.0
 11
3.193738
 21
2.305303
 31
0.0
  0
LINE
  5
254
100
AcDbEntity
  8
Kamloops_spec
 62
7
100
AcDbLine
 10
3.193738
 20
2.305303
 30
0.0
 11
3.352079
 21
1.803569
 31
0.0
  0
LINE
  5
255
100
AcDbEntity
  8
Kamloops_spec
 62
7
100
AcDbLine
 10
3.352079
 20
1.803569
 30
0.0
 11
2.861411
 21
1.805858
 31
0.0
  0
LINE
  5
256
100
AcDbEntity
  8
Kamloops_spec
 62
7
100
AcDbLine
 10
2.861411
 20
1.805858
 30
0.0
 11
2.814862
 21
2.041273
 31
0.0
  0
LINE
  5
257
100
AcDbEntity
  8
Kamloops_spec
 62
7
100
AcDbLine
 10
2.814862
 20
2.041273
 30
0.0
 11
2.358914
 21
2.055008
 31
0.0
  0
LINE
  5
258
100
AcDbEntity
  8
Kamloops_spec
 62
7
100
AcDbLine
 10
2.358914
 20
2.055008
 30
0.0
 11
2.307405
 21
1.817305
 31
0.0
  0
LINE
  5
259
100
AcDbEntity
  8
Kamloops_spec
 62
7
100
AcDbLine
 10
2.307405
 20
1.817305
 30
0.0
 11
1.860233
 21
1.812726
 31
0.0
  0
LINE
  5
25a
100
AcDbEntity
  8
Kamloops_spec
 62
7
100
AcDbLine
 10
1.860233
 20
1.812726
 30
0.0
 11
2.002931
 21
2.329340
 31
0.0
  0
LINE
  5
25b
100
AcDbEntity
  8
Kamloops_spec
 62
7
100
AcDbLine
 10
2.002931
 20
2.329340
 30
0.0
 11
2.002931
 21
2.329340
 31
0.0
  0
SPLINE
  5
25c
100
AcDbEntity
  8
Kamloops_spec
 62
7
100
AcDbSpline
 70
8
 71
3
 72
8
 73
4
 74
0
 40
0
 40
0
 40
0
 40
0
 40
1
 40
1
 40
1
 40
1
 10
6.246109
 20
1.367462
 30
0.0
 10
6.305791
 20
1.369415
 30
0.0
 10
6.347600
 20
1.354108
 30
0.0
 10
6.347600
 20
1.354108
 30
0.0
  0
LINE
  5
25d
100
AcDbEntity
  8
Kamloops_spec
 62
7
100
AcDbLine
 10
6.347600
 20
1.354108
 30
0.0
 11
6.333865
 21
1.253379
 31
0.0
  0
SPLINE
  5
25e
100
AcDbEntity
  8
Kamloops_spec
 62
7
100
AcDbSpline
 70
8
 71
3
 72
8
 73
4
 74
0
 40
0
 40
0
 40
0
 40
0
 40
1
 40
1
 40
1
 40
1
 10
6.333865
 20
1.253379
 30
0.0
 10
6.333865
 20
1.253379
 30
0.0
 10
6.275546
 20
1.261681
 30
0.0
 10
6.254885
 20
1.264444
 30
0.0
  0
SPLINE
  5
25f
100
AcDbEntity
  8
Kamloops_spec
 62
7
100
AcDbSpline
 70
8
 71
3
 72
8
 73
4
 74
0
 40
0
 40
0
 40
0
 40
0
 40
1
 40
1
 40
1
 40
1
 10
6.254885
 20
1.264444
 30
0.0
 10
6.156905
 20
1.258592
 30
0.0
 10
6.207476
 20
1.167903
 30
0.0
 10
6.256410
 20
1.164097
 30
0.0
  0
SPLINE
  5
260
100
AcDbEntity
  8
Kamloops_spec
 62
7
100
AcDbSpline
 70
8
 71
3
 72
8
 73
4
 74
0
 40
0
 40
0
 40
0
 40
0
 40
1
 40
1
 40
1
 40
1
 10
6.256410
 20
1.164097
 30
0.0
 10
6.387429
 20
1.123439
 30
0.0
 10
6.365683
 20
0.981613
 30
0.0
 10
6.326996
 20
0.924868
 30
0.0
  0
SPLINE
  5
261
100
AcDbEntity
  8
Kamloops_spec
 62
7
100
AcDbSpline
 70
8
 71
3
 72
8
 73
4
 74
0
 40
0
 40
0
 40
0
 40
0
 40
1
 40
1
 40
1
 40
1
 10
6.326996
 20
0.924868
 30
0.0
 10
6.289669
 20
0.873937
 30
0.0
 10
6.208332
 20
0.855237
 30
0.0
 10
6.133933
 20
0.880608
 30
0.0
  0
SPLINE
  5
262
100
AcDbEntity
  8
Kamloops_spec
 62
7
100
AcDbSpline
 70
8
 71
3
 72
8
 73
4
 74
0
 40
0
 40
0
 40
0
 40
0
 40
1
 40
1
 40
1
 40
1
 10
6.133933
 20
0.880608
 30
0.0
 10
6.104618
 20
0.890606
 30
0.0
 10
6.101776
 20
0.894425
 30
0.0
 10
6.099594
 20
0.932117
 30
0.0
  0
SPLINE
  5
263
100
AcDbEntity
  8
Kamloops_spec
 62
7
100
AcDbSpline
 70
8
 71
3
 72
8
 73
4
 74
0
 40
0
 40
0
 40
0
 40
0
 40
1
 40
1
 40
1
 40
1
 10
6.099594
 20
0.932117
 30
0.0
 10
6.096268
 20
0.989577
 30
0.0
 10
6.105805
 20
1.001158
 30
0.0
 10
6.141183
 20
0.982863
 30
0.0
  0
SPLINE
  5
264
100
AcDbEntity
  8
Kamloops_spec
 62
7
100
AcDbSpline
 70
8
 71
3
 72
8
 73
4
 74
0
 40
0
 40
0
 40
0
 40
0
 40
1
 40
1
 40
1
 40
1
 10
6.141183
 20
0.982863
 30
0.0
 10
6.180084
 20
0.968389
 30
0.0
 10
6.255565
 20
0.953839
 30
0.0
 10
6.249924
 20
1.010334
 30
0.0
  0
SPLINE
  5
265
100
AcDbEntity
  8
Kamloops_spec
 62
7
100
AcDbSpline
 70
8
 71
3
 72
8
 73
4
 74
0
 40
0
 40
0
 40
0
 40
0
 40
1
 40
1
 40
1
 40
1
 10
6.249924
 20
1.010334
 30
0.0
 10
6.247433
 20
1.032146
 30
0.0
 10
6.237321
 20
1.041208
 30
0.0
 10
6.189639
 20
1.066422
 30
0.0
  0
SPLINE
  5
266
100
AcDbEntity
  8
Kamloops_spec
 62
7
100
AcDbSpline
 70
8
 71
3
 72
8
 73
4
 74
0
 40
0
 40
0
 40
0
 40
0
 40
1
 40
1
 40
1
 40
1
 10
6.189639
 20
1.066422
 30
0.0
 10
6.127167
 20
1.099456
 30
0.0
 10
6.102960
 20
1.130150
 30
0.0
 10
6.093871
 20
1.186990
 30
0.0
  0
SPLINE
  5
267
100
AcDbEntity
  8
Kamloops_spec
 62
7
100
AcDbSpline
 70
8
 71
3
 72
8
 73
4
 74
0
 40
0
 40
0
 40
0
 40
0
 40
1
 40
1
 40
1
 40
1
 10
6.093871
 20
1.186990
 30
0.0
 10
6.081016
 20
1.267386
 30
0.0
 10
6.126928
 20
1.348111
 30
0.0
 10
6.202230
 20
1.362883
 30
0.0
  0
SPLINE
  5
268
100
AcDbEntity
  8
Kamloops_spec
 62
7
100
AcDbSpline
 70
8
 71
3
 72
8
 73
4
 74
0
 40
0
 40
0
 40
0
 40
0
 40
1
 40
1
 40
1
 40
1
 10
6.202230
 20
1.362883
 30
0.0
 10
6.217634
 20
1.365547
 30
0.0
 10
6.232335
 20
1.367011
 30
0.0
 10
6.246108
 20
1.367462
 30
0.0
  0
LINE
  5
269
100
AcDbEntity
  8
Kamloops_spec
 62
7
100
AcDbLine
 10
6.246108
 20
1.367462
 30
0.0
 11
6.246109
 21
1.367462
 31
0.0
  0
SPLINE
  5
26a
100
AcDbEntity
  8
Kamloops_spec
 62
7
100
AcDbSpline
 70
8
 71
3
 72
8
 73
4
 74
0
 40
0
 40
0
 40
0
 40
0
 40
1
 40
1
 40
1
 40
1
 10
7.367474
 20
1.362502
 30
0.0
 10
7.361567
 20
1.301664
 30
0.0
 10
7.363003
 20
1.276650
 30
0.0
 10
7.362132
 20
1.258339
 30
0.0
  0
SPLINE
  5
26b
100
AcDbEntity
  8
Kamloops_spec
 62
7
100
AcDbSpline
 70
8
 71
3
 72
8
 73
4
 74
0
 40
0
 40
0
 40
0
 40
0
 40
1
 40
1
 40
1
 40
1
 10
7.362132
 20
1.258339
 30
0.0
 10
7.303385
 20
1.260117
 30
0.0
 10
7.231310
 20
1.253617
 30
0.0
 10
7.229354
 20
1.117930
 30
0.0
  0
SPLINE
  5
26c
100
AcDbEntity
  8
Kamloops_spec
 62
7
100
AcDbSpline
 70
8
 71
3
 72
8
 73
4
 74
0
 40
0
 40
0
 40
0
 40
0
 40
1
 40
1
 40
1
 40
1
 10
7.229354
 20
1.117930
 30
0.0
 10
7.227751
 20
1.006837
 30
0.0
 10
7.260801
 20
0.975524
 30
0.0
 10
7.365185
 20
0.982100
 30
0.0
  0
SPLINE
  5
26d
100
AcDbEntity
  8
Kamloops_spec
 62
7
100
AcDbSpline
 70
8
 71
3
 72
8
 73
4
 74
0
 40
0
 40
0
 40
0
 40
0
 40
1
 40
1
 40
1
 40
1
 10
7.365185
 20
0.982100
 30
0.0
 10
7.364715
 20
0.946428
 30
0.0
 10
7.364421
 20
0.874504
 30
0.0
 10
7.364421
 20
0.874504
 30
0.0
  0
SPLINE
  5
26e
100
AcDbEntity
  8
Kamloops_spec
 62
7
100
AcDbSpline
 70
8
 71
3
 72
8
 73
4
 74
0
 40
0
 40
0
 40
0
 40
0
 40
1
 40
1
 40
1
 40
1
 10
7.364421
 20
0.874504
 30
0.0
 10
7.224891
 20
0.861461
 30
0.0
 10
7.117576
 20
0.922643
 30
0.0
 10
7.115652
 20
1.119838
 30
0.0
  0
SPLINE
  5
26f
100
AcDbEntity
  8
Kamloops_spec
 62
7
100
AcDbSpline
 70
8
 71
3
 72
8
 73
4
 74
0
 40
0
 40
0
 40
0
 40
0
 40
1
 40
1
 40
1
 40
1
 10
7.115652
 20
1.119838
 30
0.0
 10
7.127503
 20
1.301034
 30
0.0
 10
7.209570
 20
1.362464
 30
0.0
 10
7.367473
 20
1.362502
 30
0.0
  0
LINE
  5
270
100
AcDbEntity
  8
Kamloops_spec
 62
7
100
AcDbLine
 10
7.367473
 20
1.362502
 30
0.0
 11
7.367474
 21
1.362502
 31
0.0
  0
SPLINE
  5
271
100
AcDbEntity
  8
Kamloops_spec
 62
7
100
AcDbSpline
 70
8
 71
3
 72
8
 73
4
 74
0
 40
0
 40
0
 40
0
 40
0
 40
1
 40
1
 40
1
 40
1
 10
5.731021
 20
1.359831
 30
0.0
 10
5.868203
 20
1.353018
 30
0.0
 10
5.975737
 20
1.370176
 30
0.0
 10
6.004590
 20
1.259866
 30
0.0
  0
SPLINE
  5
272
100
AcDbEntity
  8
Kamloops_spec
 62
7
100
AcDbSpline
 70
8
 71
3
 72
8
 73
4
 74
0
 40
0
 40
0
 40
0
 40
0
 40
1
 40
1
 40
1
 40
1
 10
6.004590
 20
1.259866
 30
0.0
 10
6.009471
 20
1.242398
 30
0.0
 10
6.011891
 20
1.226260
 30
0.0
 10
6.012603
 20
1.211409
 30
0.0
  0
LINE
  5
273
100
AcDbEntity
  8
Kamloops_spec
 62
7
100
AcDbLine
 10
6.012603
 20
1.211409
 30
0.0
 11
5.919887
 21
1.211409
 31
0.0
  0
SPLINE
  5
274
100
AcDbEntity
  8
Kamloops_spec
 62
7
100
AcDbSpline
 70
8
 71
3
 72
8
 73
4
 74
0
 40
0
 40
0
 40
0
 40
0
 40
1
 40
1
 40
1
 40
1
 10
5.919887
 20
1.211409
 30
0.0
 10
5.913565
 20
1.268693
 30
0.0
 10
5.867275
 20
1.255229
 30
0.0
 10
5.827934
 20
1.254906
 30
0.0
  0
SPLINE
  5
275
100
AcDbEntity
  8
Kamloops_spec
 62
7
100
AcDbSpline
 70
8
 71
3
 72
8
 73
4
 74
0
 40
0
 40
0
 40
0
 40
0
 40
1
 40
1
 40
1
 40
1
 10
5.827934
 20
1.254906
 30
0.0
 10
5.828927
 20
1.241570
 30
0.0
 10
5.829652
 20
1.226443
 30
0.0
 10
5.830224
 20
1.211409
 30
0.0
  0
LINE
  5
276
100
AcDbEntity
  8
Kamloops_spec
 62
7
100
AcDbLine
 10
5.830224
 20
1.211409
 30
0.0
 11
5.731022
 21
1.211409
 31
0.0
  0
LINE
  5
277
100
AcDbEntity
  8
Kamloops_spec
 62
7
100
AcDbLine
 10
5.731022
 20
1.211409
 30
0.0
 11
5.731022
 21
1.359831
 31
0.0
  0
LINE
  5
278
100
AcDbEntity
  8
Kamloops_spec
 62
7
100
AcDbLine
 10
5.731022
 20
1.359831
 30
0.0
 11
5.731021
 21
1.359831
 31
0.0
  0
SPLINE
  5
279
100
AcDbEntity
  8
Kamloops_spec
 62
7
100
AcDbSpline
 70
8
 71
3
 72
8
 73
4
 74
0
 40
0
 40
0
 40
0
 40
0
 40
1
 40
1
 40
1
 40
1
 10
6.517389
 20
1.358686
 30
0.0
 10
6.555511
 20
1.359042
 30
0.0
 10
6.592563
 20
1.356484
 30
0.0
 10
6.622695
 20
1.341898
 30
0.0
  0
SPLINE
  5
27a
100
AcDbEntity
  8
Kamloops_spec
 62
7
100
AcDbSpline
 70
8
 71
3
 72
8
 73
4
 74
0
 40
0
 40
0
 40
0
 40
0
 40
1
 40
1
 40
1
 40
1
 10
6.622695
 20
1.341898
 30
0.0
 10
6.669667
 20
1.318298
 30
0.0
 10
6.697314
 20
1.269481
 30
0.0
 10
6.701675
 20
1.206831
 30
0.0
  0
LINE
  5
27b
100
AcDbEntity
  8
Kamloops_spec
 62
7
100
AcDbLine
 10
6.701675
 20
1.206831
 30
0.0
 11
6.592553
 21
1.206831
 31
0.0
  0
SPLINE
  5
27c
100
AcDbEntity
  8
Kamloops_spec
 62
7
100
AcDbSpline
 70
8
 71
3
 72
8
 73
4
 74
0
 40
0
 40
0
 40
0
 40
0
 40
1
 40
1
 40
1
 40
1
 10
6.592553
 20
1.206831
 30
0.0
 10
6.590306
 20
1.219392
 30
0.0
 10
6.586699
 20
1.230678
 30
0.0
 10
6.581488
 20
1.238117
 30
0.0
  0
SPLINE
  5
27d
100
AcDbEntity
  8
Kamloops_spec
 62
7
100
AcDbSpline
 70
8
 71
3
 72
8
 73
4
 74
0
 40
0
 40
0
 40
0
 40
0
 40
1
 40
1
 40
1
 40
1
 10
6.581488
 20
1.238117
 30
0.0
 10
6.557340
 20
1.262142
 30
0.0
 10
6.537023
 20
1.258339
 30
0.0
 10
6.505179
 20
1.258339
 30
0.0
  0
LINE
  5
27e
100
AcDbEntity
  8
Kamloops_spec
 62
7
100
AcDbLine
 10
6.505179
 20
1.258339
 30
0.0
 11
6.505179
 21
1.206831
 31
0.0
  0
LINE
  5
27f
100
AcDbEntity
  8
Kamloops_spec
 62
7
100
AcDbLine
 10
6.505179
 20
1.206831
 30
0.0
 11
6.405595
 21
1.206831
 31
0.0
  0
LINE
  5
280
100
AcDbEntity
  8
Kamloops_spec
 62
7
100
AcDbLine
 10
6.405595
 20
1.206831
 30
0.0
 11
6.405595
 21
1.357923
 31
0.0
  0
SPLINE
  5
281
100
AcDbEntity
  8
Kamloops_spec
 62
7
100
AcDbSpline
 70
8
 71
3
 72
8
 73
4
 74
0
 40
0
 40
0
 40
0
 40
0
 40
1
 40
1
 40
1
 40
1
 10
6.405595
 20
1.357923
 30
0.0
 10
6.440075
 20
1.355061
 30
0.0
 10
6.479266
 20
1.358330
 30
0.0
 10
6.517389
 20
1.358686
 30
0.0
  0
LINE
  5
282
100
AcDbEntity
  8
Kamloops_spec
 62
7
100
AcDbLine
 10
6.517389
 20
1.358686
 30
0.0
 11
6.517389
 21
1.358686
 31
0.0
  0
SPLINE
  5
283
100
AcDbEntity
  8
Kamloops_spec
 62
7
100
AcDbSpline
 70
8
 71
3
 72
8
 73
4
 74
0
 40
0
 40
0
 40
0
 40
0
 40
1
 40
1
 40
1
 40
1
 10
6.955022
 20
1.358305
 30
0.0
 10
6.975368
 20
1.278712
 30
0.0
 10
7.001519
 20
1.174329
 30
0.0
 10
7.019122
 20
1.104958
 30
0.0
  0
LINE
  5
284
100
AcDbEntity
  8
Kamloops_spec
 62
7
100
AcDbLine
 10
7.019122
 20
1.104958
 30
0.0
 11
6.920301
 21
1.104958
 31
0.0
  0
SPLINE
  5
285
100
AcDbEntity
  8
Kamloops_spec
 62
7
100
AcDbSpline
 70
8
 71
3
 72
8
 73
4
 74
0
 40
0
 40
0
 40
0
 40
0
 40
1
 40
1
 40
1
 40
1
 10
6.920301
 20
1.104958
 30
0.0
 10
6.909261
 20
1.153572
 30
0.0
 10
6.903959
 20
1.197899
 30
0.0
 10
6.889778
 20
1.247275
 30
0.0
  0
SPLINE
  5
286
100
AcDbEntity
  8
Kamloops_spec
 62
7
100
AcDbSpline
 70
8
 71
3
 72
8
 73
4
 74
0
 40
0
 40
0
 40
0
 40
0
 40
1
 40
1
 40
1
 40
1
 10
6.889778
 20
1.247275
 30
0.0
 10
6.887040
 20
1.250218
 30
0.0
 10
6.864162
 20
1.156529
 30
0.0
 10
6.853912
 20
1.104958
 30
0.0
  0
LINE
  5
287
100
AcDbEntity
  8
Kamloops_spec
 62
7
100
AcDbLine
 10
6.853912
 20
1.104958
 30
0.0
 11
6.758907
 21
1.104958
 31
0.0
  0
SPLINE
  5
288
100
AcDbEntity
  8
Kamloops_spec
 62
7
100
AcDbSpline
 70
8
 71
3
 72
8
 73
4
 74
0
 40
0
 40
0
 40
0
 40
0
 40
1
 40
1
 40
1
 40
1
 10
6.758907
 20
1.104958
 30
0.0
 10
6.776843
 20
1.180744
 30
0.0
 10
6.798001
 20
1.269240
 30
0.0
 10
6.818047
 20
1.353344
 30
0.0
  0
SPLINE
  5
289
100
AcDbEntity
  8
Kamloops_spec
 62
7
100
AcDbSpline
 70
8
 71
3
 72
8
 73
4
 74
0
 40
0
 40
0
 40
0
 40
0
 40
1
 40
1
 40
1
 40
1
 10
6.818047
 20
1.353344
 30
0.0
 10
6.863695
 20
1.355287
 30
0.0
 10
6.909359
 20
1.356782
 30
0.0
 10
6.955022
 20
1.358305
 30
0.0
  0
LINE
  5
28a
100
AcDbEntity
  8
Kamloops_spec
 62
7
100
AcDbLine
 10
6.955022
 20
1.358305
 30
0.0
 11
6.955022
 21
1.358305
 31
0.0
  0
LINE
  5
28b
100
AcDbEntity
  8
Kamloops_spec
 62
7
100
AcDbLine
 10
4.178127
 20
1.357923
 30
0.0
 11
4.300985
 21
1.357923
 31
0.0
  0
LINE
  5
28c
100
AcDbEntity
  8
Kamloops_spec
 62
7
100
AcDbLine
 10
4.300985
 20
1.357923
 30
0.0
 11
4.379202
 21
1.083210
 31
0.0
  0
LINE
  5
28d
100
AcDbEntity
  8
Kamloops_spec
 62
7
100
AcDbLine
 10
4.379202
 20
1.083210
 30
0.0
 11
4.478023
 21
1.357923
 31
0.0
  0
LINE
  5
28e
100
AcDbEntity
  8
Kamloops_spec
 62
7
100
AcDbLine
 10
4.478023
 20
1.357923
 30
0.0
 11
4.594776
 21
1.357923
 31
0.0
  0
LINE
  5
28f
100
AcDbEntity
  8
Kamloops_spec
 62
7
100
AcDbLine
 10
4.594776
 20
1.357923
 30
0.0
 11
4.594776
 21
0.877938
 31
0.0
  0
LINE
  5
290
100
AcDbEntity
  8
Kamloops_spec
 62
7
100
AcDbLine
 10
4.594776
 20
0.877938
 30
0.0
 11
4.503968
 21
0.877938
 31
0.0
  0
LINE
  5
291
100
AcDbEntity
  8
Kamloops_spec
 62
7
100
AcDbLine
 10
4.503968
 20
0.877938
 30
0.0
 11
4.491759
 21
1.104195
 31
0.0
  0
LINE
  5
292
100
AcDbEntity
  8
Kamloops_spec
 62
7
100
AcDbLine
 10
4.491759
 20
1.104195
 30
0.0
 11
4.420028
 21
0.877938
 31
0.0
  0
LINE
  5
293
100
AcDbEntity
  8
Kamloops_spec
 62
7
100
AcDbLine
 10
4.420028
 20
0.877938
 30
0.0
 11
4.352876
 21
0.877938
 31
0.0
  0
LINE
  5
294
100
AcDbEntity
  8
Kamloops_spec
 62
7
100
AcDbLine
 10
4.352876
 20
0.877938
 30
0.0
 11
4.283053
 21
1.101524
 31
0.0
  0
LINE
  5
295
100
AcDbEntity
  8
Kamloops_spec
 62
7
100
AcDbLine
 10
4.283053
 20
1.101524
 30
0.0
 11
4.268172
 21
0.877938
 31
0.0
  0
LINE
  5
296
100
AcDbEntity
  8
Kamloops_spec
 62
7
100
AcDbLine
 10
4.268172
 20
0.877938
 30
0.0
 11
4.178127
 21
0.877938
 31
0.0
  0
LINE
  5
297
100
AcDbEntity
  8
Kamloops_spec
 62
7
100
AcDbLine
 10
4.178127
 20
0.877938
 30
0.0
 11
4.178127
 21
1.357923
 31
0.0
  0
LINE
  5
298
100
AcDbEntity
  8
Kamloops_spec
 62
7
100
AcDbLine
 10
4.178127
 20
1.357923
 30
0.0
 11
4.178127
 21
1.357923
 31
0.0
  0
LINE
  5
299
100
AcDbEntity
  8
Kamloops_spec
 62
7
100
AcDbLine
 10
4.742816
 20
1.357923
 30
0.0
 11
4.880173
 21
1.357923
 31
0.0
  0
LINE
  5
29a
100
AcDbEntity
  8
Kamloops_spec
 62
7
100
AcDbLine
 10
4.880173
 20
1.357923
 30
0.0
 11
4.943128
 21
1.104958
 31
0.0
  0
LINE
  5
29b
100
AcDbEntity
  8
Kamloops_spec
 62
7
100
AcDbLine
 10
4.943128
 20
1.104958
 30
0.0
 11
4.840110
 21
1.104958
 31
0.0
  0
SPLINE
  5
29c
100
AcDbEntity
  8
Kamloops_spec
 62
7
100
AcDbSpline
 70
8
 71
3
 72
8
 73
4
 74
0
 40
0
 40
0
 40
0
 40
0
 40
1
 40
1
 40
1
 40
1
 10
4.840110
 20
1.104958
 30
0.0
 10
4.831022
 20
1.153176
 30
0.0
 10
4.821006
 20
1.200499
 30
0.0
 10
4.812639
 20
1.241933
 30
0.0
  0
LINE
  5
29d
100
AcDbEntity
  8
Kamloops_spec
 62
7
100
AcDbLine
 10
4.812639
 20
1.241933
 30
0.0
 11
4.812258
 21
1.244222
 31
0.0
  0
LINE
  5
29e
100
AcDbEntity
  8
Kamloops_spec
 62
7
100
AcDbLine
 10
4.812258
 20
1.244222
 30
0.0
 11
4.811876
 21
1.242696
 31
0.0
  0
LINE
  5
29f
100
AcDbEntity
  8
Kamloops_spec
 62
7
100
AcDbLine
 10
4.811876
 20
1.242696
 30
0.0
 11
4.811495
 21
1.242696
 31
0.0
  0
LINE
  5
2a0
100
AcDbEntity
  8
Kamloops_spec
 62
7
100
AcDbLine
 10
4.811495
 20
1.242696
 30
0.0
 11
4.780971
 21
1.104958
 31
0.0
  0
LINE
  5
2a1
100
AcDbEntity
  8
Kamloops_spec
 62
7
100
AcDbLine
 10
4.780971
 20
1.104958
 30
0.0
 11
4.694741
 21
1.104958
 31
0.0
  0
LINE
  5
2a2
100
AcDbEntity
  8
Kamloops_spec
 62
7
100
AcDbLine
 10
4.694741
 20
1.104958
 30
0.0
 11
4.742816
 21
1.357923
 31
0.0
  0
LINE
  5
2a3
100
AcDbEntity
  8
Kamloops_spec
 62
7
100
AcDbLine
 10
4.742816
 20
1.357923
 30
0.0
 11
4.742816
 21
1.357923
 31
0.0
  0
LINE
  5
2a4
100
AcDbEntity
  8
Kamloops_spec
 62
7
100
AcDbLine
 10
5.047290
 20
1.357923
 30
0.0
 11
5.164425
 21
1.357923
 31
0.0
  0
LINE
  5
2a5
100
AcDbEntity
  8
Kamloops_spec
 62
7
100
AcDbLine
 10
5.164425
 20
1.357923
 30
0.0
 11
5.169385
 21
1.135863
 31
0.0
  0
LINE
  5
2a6
100
AcDbEntity
  8
Kamloops_spec
 62
7
100
AcDbLine
 10
5.169385
 20
1.135863
 30
0.0
 11
5.248365
 21
1.355634
 31
0.0
  0
LINE
  5
2a7
100
AcDbEntity
  8
Kamloops_spec
 62
7
100
AcDbLine
 10
5.248365
 20
1.355634
 30
0.0
 11
5.363974
 21
1.357160
 31
0.0
  0
LINE
  5
2a8
100
AcDbEntity
  8
Kamloops_spec
 62
7
100
AcDbLine
 10
5.363974
 20
1.357160
 30
0.0
 11
5.280415
 21
1.141205
 31
0.0
  0
LINE
  5
2a9
100
AcDbEntity
  8
Kamloops_spec
 62
7
100
AcDbLine
 10
5.280415
 20
1.141205
 30
0.0
 11
5.372749
 21
0.877938
 31
0.0
  0
LINE
  5
2aa
100
AcDbEntity
  8
Kamloops_spec
 62
7
100
AcDbLine
 10
5.372749
 20
0.877938
 30
0.0
 11
5.249128
 21
0.877938
 31
0.0
  0
LINE
  5
2ab
100
AcDbEntity
  8
Kamloops_spec
 62
7
100
AcDbLine
 10
5.249128
 20
0.877938
 30
0.0
 11
5.169385
 21
1.081684
 31
0.0
  0
LINE
  5
2ac
100
AcDbEntity
  8
Kamloops_spec
 62
7
100
AcDbLine
 10
5.169385
 20
1.081684
 30
0.0
 11
5.164425
 21
0.877938
 31
0.0
  0
LINE
  5
2ad
100
AcDbEntity
  8
Kamloops_spec
 62
7
100
AcDbLine
 10
5.164425
 20
0.877938
 30
0.0
 11
5.047672
 21
0.877938
 31
0.0
  0
LINE
  5
2ae
100
AcDbEntity
  8
Kamloops_spec
 62
7
100
AcDbLine
 10
5.047672
 20
0.877938
 30
0.0
 11
5.047290
 21
1.357923
 31
0.0
  0
LINE
  5
2af
100
AcDbEntity
  8
Kamloops_spec
 62
7
100
AcDbLine
 10
5.047290
 20
1.357923
 30
0.0
 11
5.047290
 21
1.357923
 31
0.0
  0
LINE
  5
2b0
100
AcDbEntity
  8
Kamloops_spec
 62
7
100
AcDbLine
 10
5.419298
 20
1.357923
 30
0.0
 11
5.681039
 21
1.357923
 31
0.0
  0
LINE
  5
2b1
100
AcDbEntity
  8
Kamloops_spec
 62
7
100
AcDbLine
 10
5.681039
 20
1.357923
 30
0.0
 11
5.681039
 21
1.249182
 31
0.0
  0
LINE
  5
2b2
100
AcDbEntity
  8
Kamloops_spec
 62
7
100
AcDbLine
 10
5.681039
 20
1.249182
 30
0.0
 11
5.527276
 21
1.249182
 31
0.0
  0
LINE
  5
2b3
100
AcDbEntity
  8
Kamloops_spec
 62
7
100
AcDbLine
 10
5.527276
 20
1.249182
 30
0.0
 11
5.527276
 21
1.208357
 31
0.0
  0
LINE
  5
2b4
100
AcDbEntity
  8
Kamloops_spec
 62
7
100
AcDbLine
 10
5.527276
 20
1.208357
 30
0.0
 11
5.527276
 21
1.167531
 31
0.0
  0
LINE
  5
2b5
100
AcDbEntity
  8
Kamloops_spec
 62
7
100
AcDbLine
 10
5.527276
 20
1.167531
 30
0.0
 11
5.653949
 21
1.167531
 31
0.0
  0
LINE
  5
2b6
100
AcDbEntity
  8
Kamloops_spec
 62
7
100
AcDbLine
 10
5.653949
 20
1.167531
 30
0.0
 11
5.653949
 21
1.077105
 31
0.0
  0
LINE
  5
2b7
100
AcDbEntity
  8
Kamloops_spec
 62
7
100
AcDbLine
 10
5.653949
 20
1.077105
 30
0.0
 11
5.527276
 21
1.077105
 31
0.0
  0
LINE
  5
2b8
100
AcDbEntity
  8
Kamloops_spec
 62
7
100
AcDbLine
 10
5.527276
 20
1.077105
 30
0.0
 11
5.527276
 21
0.986678
 31
0.0
  0
LINE
  5
2b9
100
AcDbEntity
  8
Kamloops_spec
 62
7
100
AcDbLine
 10
5.527276
 20
0.986678
 30
0.0
 11
5.690959
 21
0.986678
 31
0.0
  0
LINE
  5
2ba
100
AcDbEntity
  8
Kamloops_spec
 62
7
100
AcDbLine
 10
5.690959
 20
0.986678
 30
0.0
 11
5.688287
 21
0.934406
 31
0.0
  0
LINE
  5
2bb
100
AcDbEntity
  8
Kamloops_spec
 62
7
100
AcDbLine
 10
5.688287
 20
0.934406
 30
0.0
 11
5.685616
 21
0.882516
 31
0.0
  0
LINE
  5
2bc
100
AcDbEntity
  8
Kamloops_spec
 62
7
100
AcDbLine
 10
5.685616
 20
0.882516
 30
0.0
 11
5.552456
 21
0.879845
 31
0.0
  0
LINE
  5
2bd
100
AcDbEntity
  8
Kamloops_spec
 62
7
100
AcDbLine
 10
5.552456
 20
0.879845
 30
0.0
 11
5.419296
 21
0.877556
 31
0.0
  0
LINE
  5
2be
100
AcDbEntity
  8
Kamloops_spec
 62
7
100
AcDbLine
 10
5.419296
 20
0.877556
 30
0.0
 11
5.416625
 21
0.961496
 31
0.0
  0
SPLINE
  5
2bf
100
AcDbEntity
  8
Kamloops_spec
 62
7
100
AcDbSpline
 70
8
 71
3
 72
8
 73
4
 74
0
 40
0
 40
0
 40
0
 40
0
 40
1
 40
1
 40
1
 40
1
 10
5.416625
 20
0.961496
 30
0.0
 10
5.415191
 20
1.007691
 30
0.0
 10
5.415154
 20
1.115588
 30
0.0
 10
5.416625
 20
1.201489
 30
0.0
  0
LINE
  5
2c0
100
AcDbEntity
  8
Kamloops_spec
 62
7
100
AcDbLine
 10
5.416625
 20
1.201489
 30
0.0
 11
5.419296
 21
1.357923
 31
0.0
  0
LINE
  5
2c1
100
AcDbEntity
  8
Kamloops_spec
 62
7
100
AcDbLine
 10
5.419296
 20
1.357923
 30
0.0
 11
5.419298
 21
1.357923
 31
0.0
  0
LINE
  5
2c2
100
AcDbEntity
  8
Kamloops_spec
 62
7
100
AcDbLine
 10
7.419364
 20
1.357923
 30
0.0
 11
7.673093
 21
1.357923
 31
0.0
  0
LINE
  5
2c3
100
AcDbEntity
  8
Kamloops_spec
 62
7
100
AcDbLine
 10
7.673093
 20
1.357923
 30
0.0
 11
7.673093
 21
1.249182
 31
0.0
  0
LINE
  5
2c4
100
AcDbEntity
  8
Kamloops_spec
 62
7
100
AcDbLine
 10
7.673093
 20
1.249182
 30
0.0
 11
7.518948
 21
1.249182
 31
0.0
  0
LINE
  5
2c5
100
AcDbEntity
  8
Kamloops_spec
 62
7
100
AcDbLine
 10
7.518948
 20
1.249182
 30
0.0
 11
7.518948
 21
1.167531
 31
0.0
  0
LINE
  5
2c6
100
AcDbEntity
  8
Kamloops_spec
 62
7
100
AcDbLine
 10
7.518948
 20
1.167531
 30
0.0
 11
7.646003
 21
1.167531
 31
0.0
  0
LINE
  5
2c7
100
AcDbEntity
  8
Kamloops_spec
 62
7
100
AcDbLine
 10
7.646003
 20
1.167531
 30
0.0
 11
7.646003
 21
1.077868
 31
0.0
  0
SPLINE
  5
2c8
100
AcDbEntity
  8
Kamloops_spec
 62
7
100
AcDbSpline
 70
8
 71
3
 72
8
 73
4
 74
0
 40
0
 40
0
 40
0
 40
0
 40
1
 40
1
 40
1
 40
1
 10
7.646003
 20
1.077868
 30
0.0
 10
7.605177
 20
1.076099
 30
0.0
 10
7.557865
 20
1.077365
 30
0.0
 10
7.517040
 20
1.075579
 30
0.0
  0
SPLINE
  5
2c9
100
AcDbEntity
  8
Kamloops_spec
 62
7
100
AcDbSpline
 70
8
 71
3
 72
8
 73
4
 74
0
 40
0
 40
0
 40
0
 40
0
 40
1
 40
1
 40
1
 40
1
 10
7.517040
 20
1.075579
 30
0.0
 10
7.515277
 20
1.046962
 30
0.0
 10
7.519974
 20
1.015294
 30
0.0
 10
7.518184
 20
0.986678
 30
0.0
  0
LINE
  5
2ca
100
AcDbEntity
  8
Kamloops_spec
 62
7
100
AcDbLine
 10
7.518184
 20
0.986678
 30
0.0
 11
7.682249
 21
0.986678
 31
0.0
  0
LINE
  5
2cb
100
AcDbEntity
  8
Kamloops_spec
 62
7
100
AcDbLine
 10
7.682249
 20
0.986678
 30
0.0
 11
7.682249
 21
0.877938
 31
0.0
  0
LINE
  5
2cc
100
AcDbEntity
  8
Kamloops_spec
 62
7
100
AcDbLine
 10
7.682249
 20
0.877938
 30
0.0
 11
7.419363
 21
0.877938
 31
0.0
  0
LINE
  5
2cd
100
AcDbEntity
  8
Kamloops_spec
 62
7
100
AcDbLine
 10
7.419363
 20
0.877938
 30
0.0
 11
7.419363
 21
1.357923
 31
0.0
  0
LINE
  5
2ce
100
AcDbEntity
  8
Kamloops_spec
 62
7
100
AcDbLine
 10
7.419363
 20
1.357923
 30
0.0
 11
7.419364
 21
1.357923
 31
0.0
  0
LINE
  5
2cf
100
AcDbEntity
  8
Kamloops_spec
 62
7
100
AcDbLine
 10
7.981001
 20
1.172491
 30
0.0
 11
8.972258
 21
1.090459
 31
0.0
  0
LINE
  5
2d0
100
AcDbEntity
  8
Kamloops_spec
 62
7
100
AcDbLine
 10
8.972258
 20
1.090459
 30
0.0
 11
7.981764
 21
1.004993
 31
0.0
  0
LINE
  5
2d1
100
AcDbEntity
  8
Kamloops_spec
 62
7
100
AcDbLine
 10
7.981764
 20
1.004993
 30
0.0
 11
7.981000
 21
1.172491
 31
0.0
  0
LINE
  5
2d2
100
AcDbEntity
  8
Kamloops_spec
 62
7
100
AcDbLine
 10
7.981000
 20
1.172491
 30
0.0
 11
7.981001
 21
1.172491
 31
0.0
  0
LINE
  5
2d3
100
AcDbEntity
  8
Kamloops_spec
 62
7
100
AcDbLine
 10
3.928978
 20
1.172110
 30
0.0
 11
3.928978
 21
1.009190
 31
0.0
  0
LINE
  5
2d4
100
AcDbEntity
  8
Kamloops_spec
 62
7
100
AcDbLine
 10
3.928978
 20
1.009190
 30
0.0
 11
2.942298
 21
1.090841
 31
0.0
  0
LINE
  5
2d5
100
AcDbEntity
  8
Kamloops_spec
 62
7
100
AcDbLine
 10
2.942298
 20
1.090841
 30
0.0
 11
3.928978
 21
1.172110
 31
0.0
  0
LINE
  5
2d6
100
AcDbEntity
  8
Kamloops_spec
 62
7
100
AcDbLine
 10
3.928978
 20
1.172110
 30
0.0
 11
3.928978
 21
1.172110
 31
0.0
  0
LINE
  5
2d7
100
AcDbEntity
  8
Kamloops_spec
 62
7
100
AcDbLine
 10
5.731021
 20
1.166005
 30
0.0
 11
5.831368
 21
1.166005
 31
0.0
  0
SPLINE
  5
2d8
100
AcDbEntity
  8
Kamloops_spec
 62
7
100
AcDbSpline
 70
8
 71
3
 72
8
 73
4
 74
0
 40
0
 40
0
 40
0
 40
0
 40
1
 40
1
 40
1
 40
1
 10
5.831368
 20
1.166005
 30
0.0
 10
5.831732
 20
1.146176
 30
0.0
 10
5.832132
 20
1.128232
 30
0.0
 10
5.832132
 20
1.128232
 30
0.0
  0
SPLINE
  5
2d9
100
AcDbEntity
  8
Kamloops_spec
 62
7
100
AcDbSpline
 70
8
 71
3
 72
8
 73
4
 74
0
 40
0
 40
0
 40
0
 40
0
 40
1
 40
1
 40
1
 40
1
 10
5.832132
 20
1.128232
 30
0.0
 10
5.863125
 20
1.129801
 30
0.0
 10
5.906203
 20
1.114481
 30
0.0
 10
5.918362
 20
1.166005
 30
0.0
  0
LINE
  5
2da
100
AcDbEntity
  8
Kamloops_spec
 62
7
100
AcDbLine
 10
5.918362
 20
1.166005
 30
0.0
 11
6.009170
 21
1.166005
 31
0.0
  0
SPLINE
  5
2db
100
AcDbEntity
  8
Kamloops_spec
 62
7
100
AcDbSpline
 70
8
 71
3
 72
8
 73
4
 74
0
 40
0
 40
0
 40
0
 40
0
 40
1
 40
1
 40
1
 40
1
 10
6.009170
 20
1.166005
 30
0.0
 10
5.995671
 20
1.104803
 30
0.0
 10
5.951556
 20
1.076342
 30
0.0
 10
5.951556
 20
1.076342
 30
0.0
  0
LINE
  5
2dc
100
AcDbEntity
  8
Kamloops_spec
 62
7
100
AcDbLine
 10
5.951556
 20
1.076342
 30
0.0
 11
6.048088
 21
0.877938
 31
0.0
  0
LINE
  5
2dd
100
AcDbEntity
  8
Kamloops_spec
 62
7
100
AcDbLine
 10
6.048088
 20
0.877938
 30
0.0
 11
5.986659
 21
0.877938
 31
0.0
  0
LINE
  5
2de
100
AcDbEntity
  8
Kamloops_spec
 62
7
100
AcDbLine
 10
5.986659
 20
0.877938
 30
0.0
 11
5.925611
 21
0.877938
 31
0.0
  0
LINE
  5
2df
100
AcDbEntity
  8
Kamloops_spec
 62
7
100
AcDbLine
 10
5.925611
 20
0.877938
 30
0.0
 11
5.884786
 21
0.975232
 31
0.0
  0
LINE
  5
2e0
100
AcDbEntity
  8
Kamloops_spec
 62
7
100
AcDbLine
 10
5.884786
 20
0.975232
 30
0.0
 11
5.843960
 21
1.072526
 31
0.0
  0
LINE
  5
2e1
100
AcDbEntity
  8
Kamloops_spec
 62
7
100
AcDbLine
 10
5.843960
 20
1.072526
 30
0.0
 11
5.841671
 21
0.975232
 31
0.0
  0
LINE
  5
2e2
100
AcDbEntity
  8
Kamloops_spec
 62
7
100
AcDbLine
 10
5.841671
 20
0.975232
 30
0.0
 11
5.838999
 21
0.877938
 31
0.0
  0
LINE
  5
2e3
100
AcDbEntity
  8
Kamloops_spec
 62
7
100
AcDbLine
 10
5.838999
 20
0.877938
 30
0.0
 11
5.784820
 21
0.877938
 31
0.0
  0
LINE
  5
2e4
100
AcDbEntity
  8
Kamloops_spec
 62
7
100
AcDbLine
 10
5.784820
 20
0.877938
 30
0.0
 11
5.731022
 21
0.877938
 31
0.0
  0
LINE
  5
2e5
100
AcDbEntity
  8
Kamloops_spec
 62
7
100
AcDbLine
 10
5.731022
 20
0.877938
 30
0.0
 11
5.731022
 21
1.166005
 31
0.0
  0
LINE
  5
2e6
100
AcDbEntity
  8
Kamloops_spec
 62
7
100
AcDbLine
 10
5.731022
 20
1.166005
 30
0.0
 11
5.731021
 21
1.166005
 31
0.0
  0
LINE
  5
2e7
100
AcDbEntity
  8
Kamloops_spec
 62
7
100
AcDbLine
 10
6.405595
 20
1.161427
 30
0.0
 11
6.505179
 21
1.161427
 31
0.0
  0
LINE
  5
2e8
100
AcDbEntity
  8
Kamloops_spec
 62
7
100
AcDbLine
 10
6.505179
 20
1.161427
 30
0.0
 11
6.505179
 21
1.113352
 31
0.0
  0
SPLINE
  5
2e9
100
AcDbEntity
  8
Kamloops_spec
 62
7
100
AcDbSpline
 70
8
 71
3
 72
8
 73
4
 74
0
 40
0
 40
0
 40
0
 40
0
 40
1
 40
1
 40
1
 40
1
 10
6.505179
 20
1.113352
 30
0.0
 10
6.530783
 20
1.113829
 30
0.0
 10
6.573790
 20
1.109161
 30
0.0
 10
6.586067
 20
1.130903
 30
0.0
  0
SPLINE
  5
2ea
100
AcDbEntity
  8
Kamloops_spec
 62
7
100
AcDbSpline
 70
8
 71
3
 72
8
 73
4
 74
0
 40
0
 40
0
 40
0
 40
0
 40
1
 40
1
 40
1
 40
1
 10
6.586067
 20
1.130903
 30
0.0
 10
6.590261
 20
1.138740
 30
0.0
 10
6.592780
 20
1.149578
 30
0.0
 10
6.594079
 20
1.161427
 30
0.0
  0
LINE
  5
2eb
100
AcDbEntity
  8
Kamloops_spec
 62
7
100
AcDbLine
 10
6.594079
 20
1.161427
 30
0.0
 11
6.701294
 21
1.161427
 31
0.0
  0
SPLINE
  5
2ec
100
AcDbEntity
  8
Kamloops_spec
 62
7
100
AcDbSpline
 70
8
 71
3
 72
8
 73
4
 74
0
 40
0
 40
0
 40
0
 40
0
 40
1
 40
1
 40
1
 40
1
 10
6.701294
 20
1.161427
 30
0.0
 10
6.700912
 20
1.157538
 30
0.0
 10
6.700313
 20
1.153558
 30
0.0
 10
6.699768
 20
1.149599
 30
0.0
  0
SPLINE
  5
2ed
100
AcDbEntity
  8
Kamloops_spec
 62
7
100
AcDbSpline
 70
8
 71
3
 72
8
 73
4
 74
0
 40
0
 40
0
 40
0
 40
0
 40
1
 40
1
 40
1
 40
1
 10
6.699768
 20
1.149599
 30
0.0
 10
6.671103
 20
1.015156
 30
0.0
 10
6.602300
 20
1.015599
 30
0.0
 10
6.505180
 20
1.012624
 30
0.0
  0
LINE
  5
2ee
100
AcDbEntity
  8
Kamloops_spec
 62
7
100
AcDbLine
 10
6.505180
 20
1.012624
 30
0.0
 11
6.505180
 21
0.945090
 31
0.0
  0
LINE
  5
2ef
100
AcDbEntity
  8
Kamloops_spec
 62
7
100
AcDbLine
 10
6.505180
 20
0.945090
 30
0.0
 11
6.505180
 21
0.877938
 31
0.0
  0
LINE
  5
2f0
100
AcDbEntity
  8
Kamloops_spec
 62
7
100
AcDbLine
 10
6.505180
 20
0.877938
 30
0.0
 11
6.455197
 21
0.877938
 31
0.0
  0
LINE
  5
2f1
100
AcDbEntity
  8
Kamloops_spec
 62
7
100
AcDbLine
 10
6.455197
 20
0.877938
 30
0.0
 11
6.405596
 21
0.877938
 31
0.0
  0
LINE
  5
2f2
100
AcDbEntity
  8
Kamloops_spec
 62
7
100
AcDbLine
 10
6.405596
 20
0.877938
 30
0.0
 11
6.405596
 21
1.117930
 31
0.0
  0
LINE
  5
2f3
100
AcDbEntity
  8
Kamloops_spec
 62
7
100
AcDbLine
 10
6.405596
 20
1.117930
 30
0.0
 11
6.405596
 21
1.161427
 31
0.0
  0
LINE
  5
2f4
100
AcDbEntity
  8
Kamloops_spec
 62
7
100
AcDbLine
 10
6.405596
 20
1.161427
 30
0.0
 11
6.405595
 21
1.161427
 31
0.0
  0
LINE
  5
2f5
100
AcDbEntity
  8
Kamloops_spec
 62
7
100
AcDbLine
 10
4.686347
 20
1.059554
 30
0.0
 11
4.954574
 21
1.059554
 31
0.0
  0
LINE
  5
2f6
100
AcDbEntity
  8
Kamloops_spec
 62
7
100
AcDbLine
 10
4.954574
 20
1.059554
 30
0.0
 11
4.999597
 21
0.877938
 31
0.0
  0
LINE
  5
2f7
100
AcDbEntity
  8
Kamloops_spec
 62
7
100
AcDbLine
 10
4.999597
 20
0.877938
 30
0.0
 11
4.891238
 21
0.880227
 31
0.0
  0
LINE
  5
2f8
100
AcDbEntity
  8
Kamloops_spec
 62
7
100
AcDbLine
 10
4.891238
 20
0.880227
 30
0.0
 11
4.870634
 21
0.950813
 31
0.0
  0
LINE
  5
2f9
100
AcDbEntity
  8
Kamloops_spec
 62
7
100
AcDbLine
 10
4.870634
 20
0.950813
 30
0.0
 11
4.751210
 21
0.950432
 31
0.0
  0
LINE
  5
2fa
100
AcDbEntity
  8
Kamloops_spec
 62
7
100
AcDbLine
 10
4.751210
 20
0.950432
 30
0.0
 11
4.739382
 21
0.877938
 31
0.0
  0
LINE
  5
2fb
100
AcDbEntity
  8
Kamloops_spec
 62
7
100
AcDbLine
 10
4.739382
 20
0.877938
 30
0.0
 11
4.651245
 21
0.875648
 31
0.0
  0
LINE
  5
2fc
100
AcDbEntity
  8
Kamloops_spec
 62
7
100
AcDbLine
 10
4.651245
 20
0.875648
 30
0.0
 11
4.686347
 21
1.059554
 31
0.0
  0
LINE
  5
2fd
100
AcDbEntity
  8
Kamloops_spec
 62
7
100
AcDbLine
 10
4.686347
 20
1.059554
 30
0.0
 11
4.686347
 21
1.059554
 31
0.0
  0
SPLINE
  5
2fe
100
AcDbEntity
  8
Kamloops_spec
 62
7
100
AcDbSpline
 70
8
 71
3
 72
8
 73
4
 74
0
 40
0
 40
0
 40
0
 40
0
 40
1
 40
1
 40
1
 40
1
 10
6.747843
 20
1.059554
 30
0.0
 10
6.844569
 20
1.058692
 30
0.0
 10
6.934483
 20
1.059554
 30
0.0
 10
7.030950
 20
1.059554
 30
0.0
  0
SPLINE
  5
2ff
100
AcDbEntity
  8
Kamloops_spec
 62
7
100
AcDbSpline
 70
8
 71
3
 72
8
 73
4
 74
0
 40
0
 40
0
 40
0
 40
0
 40
1
 40
1
 40
1
 40
1
 10
7.030950
 20
1.059554
 30
0.0
 10
7.048660
 20
0.990077
 30
0.0
 10
7.078643
 20
0.879082
 30
0.0
 10
7.078643
 20
0.879082
 30
0.0
  0
LINE
  5
300
100
AcDbEntity
  8
Kamloops_spec
 62
7
100
AcDbLine
 10
7.078643
 20
0.879082
 30
0.0
 11
6.959219
 21
0.877938
 31
0.0
  0
LINE
  5
301
100
AcDbEntity
  8
Kamloops_spec
 62
7
100
AcDbLine
 10
6.959219
 20
0.877938
 30
0.0
 11
6.947010
 21
0.950431
 31
0.0
  0
LINE
  5
302
100
AcDbEntity
  8
Kamloops_spec
 62
7
100
AcDbLine
 10
6.947010
 20
0.950431
 30
0.0
 11
6.824152
 21
0.950431
 31
0.0
  0
LINE
  5
303
100
AcDbEntity
  8
Kamloops_spec
 62
7
100
AcDbLine
 10
6.824152
 20
0.950431
 30
0.0
 11
6.812706
 21
0.877938
 31
0.0
  0
LINE
  5
304
100
AcDbEntity
  8
Kamloops_spec
 62
7
100
AcDbLine
 10
6.812706
 20
0.877938
 30
0.0
 11
6.703965
 21
0.877938
 31
0.0
  0
SPLINE
  5
305
100
AcDbEntity
  8
Kamloops_spec
 62
7
100
AcDbSpline
 70
8
 71
3
 72
8
 73
4
 74
0
 40
0
 40
0
 40
0
 40
0
 40
1
 40
1
 40
1
 40
1
 10
6.703965
 20
0.877938
 30
0.0
 10
6.703965
 20
0.877938
 30
0.0
 10
6.734520
 20
1.004075
 30
0.0
 10
6.747843
 20
1.059554
 30
0.0
  0
LINE
  5
306
100
AcDbEntity
  8
Kamloops_spec
 62
7
100
AcDbLine
 10
6.747843
 20
1.059554
 30
0.0
 11
6.747843
 21
1.059554
 31
0.0
  0
ENDSEC
  0
SECTION
  2
OBJECTS
  0
DICTIONARY
  5
C
330
0
100
AcDbDictionary
  3
ACAD_GROUP
350
D
  3
ACAD_MLINESTYLE
350
17
  0
DICTIONARY
  5
D
330
C
100
AcDbDictionary
  0
DICTIONARY
  5
1A
330
C
100
AcDbDictionary
  0
DICTIONARY
  5
17
330
C
100
AcDbDictionary
  3
STANDARD
350
18
  0
DICTIONARY
  5
19
330
C
100
AcDbDictionary
  0
ENDSEC
  0
EOF
