<?xml version="1.0" encoding="UTF-8" standalone="no"?>
<!-- Created with Inkscape (http://www.inkscape.org/) -->

<svg
   xmlns:dc="http://purl.org/dc/elements/1.1/"
   xmlns:cc="http://creativecommons.org/ns#"
   xmlns:rdf="http://www.w3.org/1999/02/22-rdf-syntax-ns#"
   xmlns:svg="http://www.w3.org/2000/svg"
   xmlns="http://www.w3.org/2000/svg"
   xmlns:sodipodi="http://sodipodi.sourceforge.net/DTD/sodipodi-0.dtd"
   xmlns:inkscape="http://www.inkscape.org/namespaces/inkscape"
   id="svg2"
   version="1.1"
   inkscape:version="0.48.4 r9939"
   width="1080"
   height="534.87408"
   xml:space="preserve"
   sodipodi:docname="KM_full_gyroscope_12in.dxf"><metadata
     id="metadata8"><rdf:RDF><cc:Work
         rdf:about=""><dc:format>image/svg+xml</dc:format><dc:type
           rdf:resource="http://purl.org/dc/dcmitype/StillImage" /><dc:title></dc:title></cc:Work></rdf:RDF></metadata><defs
     id="defs6"><clipPath
       clipPathUnits="userSpaceOnUse"
       id="clipPath18"><path
         d="M 0,792 612,792 612,0 0,0 0,792 z"
         id="path20"
         inkscape:connector-curvature="0" /></clipPath></defs><sodipodi:namedview
     pagecolor="#ffffff"
     bordercolor="#666666"
     borderopacity="1"
     objecttolerance="10"
     gridtolerance="10"
     guidetolerance="10"
     inkscape:pageopacity="0"
     inkscape:pageshadow="2"
     inkscape:window-width="1918"
     inkscape:window-height="1020"
     id="namedview4"
     showgrid="false"
     inkscape:zoom="0.95353537"
     inkscape:cx="596.5452"
     inkscape:cy="277.41515"
     inkscape:window-x="0"
     inkscape:window-y="27"
     inkscape:window-maximized="0"
     inkscape:current-layer="g3308"
     fit-margin-top="0"
     fit-margin-left="0"
     fit-margin-right="0"
     fit-margin-bottom="0"
     showguides="true"
     inkscape:guide-bbox="true" /><g
     id="g10"
     inkscape:groupmode="layer"
     inkscape:label="Kamloops_spec"
     transform="matrix(1.25,0,0,-1.25,36.923489,1172.923)"><g
       id="g14"
       transform="matrix(2.1661969,0,0,2.1661969,-130.02842,-733.55845)"><g
         id="g16"
         clip-path="url(#clipPath18)"><g
           id="g3292"
           transform="translate(260.0693,594.876)" /><g
           id="g3296"
           transform="translate(230.5771,593.3442)" /><g
           id="g3300"
           transform="translate(197.2505,594.876)" /><g
           id="g3304"
           transform="translate(313.9463,635.7412)" /><g
           id="g3312"
           transform="translate(249.5732,595.1743)" /><g
           id="g3316"
           transform="translate(259.5039,640.3477)" /><g
           id="g3320"
           transform="translate(353.0244,643.2485)" /><g
           id="g3328"
           transform="translate(81.1328,612.8979)" /><g
           id="g3336"
           transform="translate(251.8184,560.4102)" /><g
           id="g3348"
           transform="translate(67.5649,724.2886)" /><g
           id="g3352"
           transform="translate(204.0254,736.9946)" /></g><g
         id="g3344"
         transform="translate(-48.416769,681.07519)" /></g><g
       id="g3308"
       transform="matrix(2.1661969,0,0,2.1661969,151.84587,665.30086)"><path
         style="fill:#1f242d;fill-opacity:1;fill-rule:nonzero;stroke:none"
         d="m 83.596372,126.04203 c -0.14116,-0.0292 -0.112984,-0.23869 -0.101455,-0.4185 l 0.329728,0.0507 c -0.03628,0.14065 -0.08465,0.27437 -0.164864,0.36777 -0.02776,0.003 -0.04324,0.004 -0.06341,0 z M 116.48036,123.83539 -49.676991,101.2871 c 0,0 -13.547811,-2.035976 -23.283842,-11.413649 C -85.041614,78.237337 -83.638935,67.756338 -83.638935,67.756338 l 0,-82.14022 c 0,0 -1.842069,-10.782653 10.678102,-22.345387 10.206496,-9.425977 26.847436,-12.12383 26.847436,-12.12383 l 161.693347,-22.637069 166.81681,23.512115 c 0,0 13.63493,2.737465 22.32002,10.652738 10.99373,10.019292 10.39908,23.347251 10.39912,23.347251 l -0.30436,83.902995 c 0,0 0.35967,9.952145 -9.40994,19.352474 -11.49169,11.057345 -30.08131,12.884745 -30.08131,12.884745 l -158.83993,21.67324 z m -0.78627,-6.18873 c 22.07487,0 39.97313,-17.898262 39.97313,-39.973131 0,-7.966243 -2.33669,-15.388986 -6.3536,-21.622522 l -0.51995,0.329728 c 3.98224,6.157319 6.29018,13.491021 6.29018,21.368885 0,21.756917 -17.63281,39.38977 -39.38976,39.38977 -12.60724,0 -23.835743,-5.91654 -31.045126,-15.12943 l -0.443864,0.29169 c 7.317351,9.3414 18.70414,15.34501 31.48899,15.34501 z m -181.98428,-5.56732 c -0.152741,-0.056 -0.291122,-0.12041 -0.443864,-0.17755 0.07912,-0.0549 0.156433,-0.10154 0.266319,-0.12682 0.08901,0.0725 0.136887,0.18569 0.177545,0.30437 z m 181.12191,-1.15405 c 0.28463,0.007 0.576,0 0.86237,0 7.5396,0 14.48964,-2.52516 20.06265,-6.75942 l -0.51995,-0.60872 c -5.41791,4.15118 -12.18749,6.61991 -19.5427,6.61991 -17.763524,0 -32.161127,-14.384928 -32.161127,-32.148439 0,-10.144256 4.698807,-19.199497 12.035057,-25.097344 L 94.781747,51.992821 C 87.29312,58.078335 82.505734,67.349638 82.505734,77.74962 c 0,18.040958 14.394682,32.72154 32.325986,33.17567 z m 0.86237,-5.80828 c 14.67432,0 26.60698,-11.662654 27.06302,-26.226025 l -0.95113,0.02536 c -0.47602,14.036381 -11.98496,25.274895 -26.13726,25.274895 -0.22586,0 -0.46033,0.006 -0.68482,0 -2.65174,-0.0671 -5.19693,-0.53187 -7.59641,-1.33159 -0.33935,-0.1131 -0.68154,-0.24131 -1.01455,-0.36778 -0.13429,-0.051 -0.27259,-0.0991 -0.40582,-0.15218 -0.24369,-0.0972 -0.48284,-0.20012 -0.72286,-0.30436 -0.15893,-0.069 -0.31196,-0.14353 -0.46923,-0.21559 -0.18355,-0.0841 -0.36408,-0.16545 -0.54532,-0.25364 -0.31574,-0.15538 -0.63003,-0.32704 -0.93845,-0.49459 -0.37171,-0.20192 -0.73007,-0.40232 -1.09064,-0.62141 -0.36058,-0.21909 -0.72906,-0.44911 -1.07796,-0.684825 C 94.478467,95.276555 90.007981,87.828673 89.594878,79.309486 l -0.951137,0.02536 c 0.681138,14.356556 12.524809,25.782164 27.050349,25.782164 z m 21.72397,-2.28273 c 7.02328,-6.082254 11.46438,-15.063633 11.46438,-25.08466 0,-18.327331 -14.86101,-33.188352 -33.18835,-33.188352 -7.16228,0 -13.78955,2.278854 -19.212978,6.138007 l 0.798956,0.951137 c 5.216762,-3.652607 11.563072,-5.795597 18.414022,-5.795597 17.76352,0 32.16112,14.410278 32.16112,32.173806 0,9.641431 -4.25078,18.280638 -10.96978,24.171569 l 0.53263,0.63409 z m -54.493825,-2.27005 0.456546,-0.279 c -4.461054,-6.385016 -7.076462,-14.154363 -7.076462,-22.53561 0,-21.756937 17.632842,-39.402449 39.389771,-39.402449 13.11259,0 24.72277,6.414836 31.88212,16.270789 l 0.53264,-0.329727 c -7.26084,-10.048929 -19.07112,-16.587835 -32.41476,-16.587835 -22.074871,0 -39.973135,17.898264 -39.973135,39.973131 0,8.513416 2.666196,16.406788 7.20328,22.890701 z m 102.342375,-9.511369 4.24842,-8.420736 8.85191,-1.445728 -6.12532,-6.708689 1.24282,-8.940691 -8.09101,3.956731 -8.37001,-3.969413 1.50914,8.966055 -6.41701,6.58187 9.24506,1.458411 3.906,8.52219 z m -136.012637,-0.03804 4.425959,-8.458782 8.788509,-1.407683 -6.378961,-6.848189 1.38232,-8.598281 -8.230508,3.639685 -8.420736,-4.210368 -0.266319,0.266319 0.126819,0.380455 1.712047,8.636327 -6.290189,6.683325 8.370009,1.369638 4.78105,8.547554 z m 68.038027,-2.232003 20.12606,0 0.64678,0 0,-0.608727 0,-3.246549 0,-0.355091 -0.31705,-0.177546 -9.58746,-6.049234 9.58746,-6.112642 0.31705,-0.177546 0,-4.121595 -0.64678,0 -18.60424,0 -1.57255,0 0,4.590823 0.6975,0 9.20701,0 -9.54942,5.833642 9.52406,5.770233 -9.82842,0 0,4.654232 z m -23.32189,-0.1395 4.971278,0 0,-7.596417 6.975002,7.380826 0.19023,0.215591 0.279,0 1.31891,0 3.62701,0 1.45841,0 -0.98919,-1.090637 c -1.91363,-2.756451 -3.91503,-4.275092 -5.78291,-6.328234 l 8.25587,-8.572918 0,-4.717641 -2.40955,0 -9.49869,9.48601 -3.424092,-3.627004 0,-5.174187 0,-0.646773 -0.646774,0 -3.677731,0 -0.646773,0 0,0.646773 0,20.024611 z m -85.158496,-5.161505 3.297276,-5.706824 6.30287,-1.116001 -4.616186,-4.882505 1.103319,-6.708689 -6.0745972,3.221185 -6.1380062,-3.25923 1.1033193,6.962325 -4.62886839,4.552777 6.46773389,1.065274 3.1831396,5.871688 z m 216.973446,0 3.29728,-5.706824 6.30287,-1.116001 -4.59082,-4.869823 1.00186,-6.353598 -5.99851,2.853412 -6.03655,-2.802684 1.14137,6.404324 -4.75569,4.743005 6.46773,0.976501 3.17046,5.871688 z m 32.84594,-5.567324 2.15592,-4.311822 4.00745,-0.634092 -2.68854,-3.284594 0.76091,-4.185004 -4.33719,1.762774 -3.86796,-1.597911 0.6975,4.020141 -2.80268,3.11973 4.14696,0.811637 1.92763,4.299141 z m -282.639965,-0.456546 2.067139,-3.842595 3.931367,-0.748228 -2.739275,-3.145094 0.76091,-4.590823 -3.969414,2.130548 -4.261095,-2.067138 0.824319,4.387913 -2.84073,3.271913 4.159641,0.760909 2.067138,3.842595 z m 112.640024,-0.253636 0.938455,-0.02536 c 0.2879,-9.15782 5.28216,-17.131839 12.631106,-21.597158 0.32849,-0.197687 0.65151,-0.399902 0.98918,-0.583365 0.0332,-0.0182 0.0681,-0.03262 0.10146,-0.05073 0.34818,-0.187245 0.69519,-0.373601 1.05259,-0.545319 0.0244,-0.01181 0.0517,-0.02623 0.0761,-0.03804 0.34853,-0.166118 0.69577,-0.31828 1.05259,-0.469228 3.13175,-1.324888 6.58248,-2.054457 10.19619,-2.054457 14.03721,0 25.47483,11.056001 26.12457,24.93248 l 0.95114,-0.02536 C 142.07598,62.378699 130.22812,50.927562 115.6941,50.927562 c -14.68707,0 -26.626569,11.695241 -27.063031,26.276754 z M -68.420737,52.11964 l 14.698242,-2.536366 0.976501,-27.291301 10.069374,23.651615 15.814243,-2.244684 -10.576647,-25.07198 12.225285,-30.106667 -17.082426,0 -10.323011,25.452435 -0.02536,0 -0.03805,-0.1395 -0.190227,0.494591 -0.05073,-25.985072 -7.127189,-0.02536 -8.496827,0.07609 0.126819,63.726201 z M 295.86486,51.396775 c 5.1904,0.03214 8.45878,-1.268183 8.45878,-1.268183 0,0 -1.35158,-13.791517 -1.49645,-13.962696 -6.16398,1.13835 -16.97319,3.379641 -17.94479,-4.02014 -1.23885,-9.43508 11.03167,-7.513918 16.87951,-12.631104 3.90802,-3.419728 5.24764,-9.069977 4.6796,-13.5188319 -1.15483,-9.0444709 -2.76927,-14.3811681 -12.65647,-17.2980181 -8.8064,-1.502652 -23.77843,2.1685936 -23.77843,2.1685936 l 1.62327,12.3394216 c 0,0 7.84488,-1.9222409 11.32488,-2.4983207 5.93287,-0.91824167 8.9842,0.570512 9.27042,4.5274137 0.20941,2.895049 -0.87573,3.9025139 -6.11265,5.7195058 -11.31441,3.925638 -15.028,8.359603 -14.98992,17.906746 0.0438,10.979503 4.9222,18.294399 16.60052,21.419612 3.0281,0.810343 5.78246,1.101388 8.14173,1.116001 z m -52.74373,-7.96419 c 2.43761,0.0074 5.11837,-0.144824 8.10369,-0.507273 11.4784,-1.393597 14.28789,-9.981632 14.57142,-17.057063 l -12.54233,0 c -0.84904,2.865331 -3.4833,5.162467 -8.05296,5.212233 -1.35929,0.01481 -2.88465,-0.169535 -4.59083,-0.596046 l 0,-0.06341 c -0.0255,-0.0024 -0.0507,-0.01033 -0.0761,-0.01268 -0.0479,-1.500401 -0.0843,-3.019088 -0.12682,-4.540096 l -14.3051,0 0.12682,14.736288 c 4.46885,1.365941 9.57938,2.806065 16.8922,2.828048 z M -6.8631293,42.418039 11.271889,40.465037 21.036899,9.5340509 6.3259751,9.8257331 C 5.1661212,15.118464 3.7586327,20.406637 2.4833803,25.66534 L 2.4580166,25.792158 2.4326529,25.690704 0.02310502,17.574332 C -0.57823697,15.037142 -1.2854205,12.527803 -1.9425788,10.003279 l -14.0261052,0.279 8.8645999,32.097714 0.2409548,0.03805 z M 201.98127,38.930535 c 5.62952,-0.09695 11.35606,-1.454352 14.68556,-4.679595 3.11352,-3.104833 4.86608,-7.636816 5.49123,-14.229015 0.16089,-1.69665 0.25366,-3.365961 0.279,-4.996641 l -15.01529,0 c -0.0545,3.686123 -0.4548,7.098205 -1.20477,8.560236 -1.14283,2.227964 -3.11262,3.32264 -5.97315,3.32264 -3.51168,0 -5.59809,-1.22164 -7.02573,-4.121596 -0.73374,-1.614719 -1.1313,-5.323812 -1.26818,-8.509508 l -15.12943,0 c 0.048,0.891725 0.11732,2.497152 0.21559,3.297276 0.98605,8.254667 4.86577,15.390252 11.46438,18.477428 4.10081,1.902295 8.18556,2.780458 13.48079,2.878775 z M 32.869048,38.499353 48.873518,37.281897 59.196529,9.1662778 61.301713,9.153596 71.535951,35.988351 87.540421,35.265486 C 87.761633,17.837761 87.94624,4.3094125 87.94624,-11.910925 l -12.960831,0 0.06341,22.091749 -1.090638,0.380455 -9.333827,-22.484886 c -3.009993,0.04567 -6.019715,0.105687 -9.029464,0.164864 l -8.268554,23.118978 -2.117866,-0.722865 0,-22.548295 -12.339421,0 c -9e-6,16.8034176 -1.3e-5,33.60686 0,50.410278 z M 153.1689,36.089805 c 2.85485,-0.02464 5.66631,-0.257926 7.41887,-0.6975 7.68425,-1.927334 11.78911,-6.783973 13.27788,-15.687426 0.27801,-1.662586 0.42208,-3.40386 0.44386,-5.719505 l -15.09138,0 c -0.0159,1.257834 -0.0755,2.036531 -0.17754,3.246548 -0.2401,4.859828 -2.75346,7.533024 -7.34279,7.571054 -3.34686,0.0033 -5.61929,-1.425787 -6.93696,-4.337187 -0.38866,-1.541826 -0.65333,-4.147604 -0.76091,-6.936961 l -15.31965,0 c 0.002,0.04683 -0.002,0.09258 0,0.1395 0.6809,13.102287 5.61444,19.521546 16.77806,21.850795 1.95345,0.407584 4.85569,0.595324 7.71056,0.570682 z M 93.361382,35.417668 c 0,0 9.422498,-0.380455 14.736288,-0.380455 l 0.15218,-35.66130876 c 5.96883,-0.0642411 11.93778,-0.11413648 17.90675,-0.16486381 l 0,-11.12196543 -32.795218,0 0,47.328593 z m 132.702678,-13.92465 14.22902,0 c -0.045,-2.24212 -0.0761,-4.489235 -0.0761,-6.721371 7.37973,-1.228368 11.86591,2.51125 13.03692,6.721371 l 12.19992,0 C 263.49488,7.8599275 255.18202,4.0617658 240.26771,3.0536353 l -0.0507,-14.6728783 -14.44461,0 0.29168,33.112261 z m -18.74374,-10.842966 15.01528,0 c -0.30915,-4.9980577 -1.29637,-9.424873 -2.90414,-12.7832857 -3.65987,-7.6450176 -11.17072,-10.9055993 -23.15702,-10.0566923 -10.07324,0.713417 -16.18301,5.5429547 -18.54084,14.6475152 -0.54142,2.0906638 -0.86303,4.3651674 -0.95113,7.4442348 l 15.1421,0 c 0.28409,-4.0166991 0.66068,-8.7221535 4.69228,-10.27228314 1.25147,-0.45288544 4.16156,-0.48045269 5.55464,0.0380455 4.75384,1.76938934 4.90191,7.04360664 5.14883,10.98246564 z m -48.22901,-1.0399101 15.11675,0 c 0,0 -0.45374,-5.7520484 -0.90041,-7.4569167 -1.92923,-7.3635215 -6.10398,-11.7060727 -12.9862,-13.5188322 -2.58965,-0.6821 -7.64544,-1.124953 -10.98247,-0.951137 -6.70713,0.349365 -12.22537,2.5426888 -15.44647,6.1253244 -3.09962,3.4475263 -4.9099,8.8292085 -5.22491,15.3450156 l 15.29429,0 c 0.0782,-2.8529778 0.36302,-5.407971 0.90041,-6.6579613 0.8123,-1.73233408 2.09437,-2.94609692 3.71577,-3.5128672 1.20083,-0.4197504 4.22996,-0.4411005 5.68146,-0.038045 4.59739,1.95642708 4.47369,6.2300743 4.83178,10.6654199 z m -176.252086,-3.677731 39.579995,-0.7989553 5.26296,-16.6766076 -16.308835,0.07609 -1.5471835,7.8246894 -15.1547882,0.456546 -1.7120472,-7.9007804 -14.8631061,-0.152182 4.743005,17.1711989 z M 123.87387,-26.038485 c 1.9837,0.06493 3.37336,-0.443864 3.37336,-0.443864 l -0.45654,-3.348004 c 0,0 -1.93839,0.275924 -2.62514,0.367773 -3.25663,-0.1945 -1.57577,-3.208832 0.0507,-3.335321 4.35481,-1.351401 3.63201,-6.06541 2.34614,-7.951508 -1.24068,-1.692848 -3.94415,-2.31438 -6.41701,-1.471093 -0.9744,0.332289 -1.06884,0.459249 -1.14137,1.712047 -0.11056,1.909852 0.20643,2.294763 1.38232,1.686684 1.293,-0.48109 3.80185,-0.964696 3.61433,0.913092 -0.0828,0.724979 -0.4189,1.026189 -2.00373,1.864229 -2.07645,1.098003 -2.88104,2.118203 -3.18314,4.007459 -0.42729,2.672189 1.09875,5.355328 3.60164,5.846324 0.51197,0.08853 1.00062,0.137195 1.45841,0.152182 z m 37.2719,-0.164864 c -0.19634,-2.022101 -0.14862,-2.853534 -0.17755,-3.46214 -1.95264,0.05909 -4.34825,-0.156954 -4.41327,-4.666914 -0.0533,-3.692531 1.04523,-4.733281 4.51473,-4.514732 -0.0156,-1.185647 -0.0254,-3.576276 -0.0254,-3.576276 -4.63769,-0.433495 -8.2046,1.60007 -8.26855,8.154417 0.39388,6.0226 3.12164,8.064407 8.37001,8.065645 z m -54.39237,-0.08877 c 4.55962,-0.22643 8.13386,0.343842 9.09287,-3.32264 0.16224,-0.580588 0.24265,-1.116975 0.26632,-1.610592 l -3.08169,0 c -0.21012,1.904011 -1.7487,1.456483 -3.05632,1.445729 0.033,-0.44326 0.0571,-0.946029 0.0761,-1.445729 l -3.29727,0 0,4.933232 z m 26.13725,-0.03805 c 1.26711,0.01182 2.49866,-0.07319 3.50018,-0.558001 1.56125,-0.784399 2.48017,-2.406999 2.62514,-4.489368 l -3.627,0 c -0.0747,0.417534 -0.19457,0.792633 -0.36777,1.03991 -0.80264,0.798521 -1.47794,0.672137 -2.53637,0.672137 l 0,-1.712047 -3.30996,0 0,5.022005 c 1.14603,-0.09512 2.44868,0.01354 3.71578,0.02536 z m 14.54606,-0.01268 c 0.67624,-2.645479 1.54546,-6.114968 2.13055,-8.420736 l -3.2846,0 c -0.36697,1.615844 -0.54319,3.089193 -1.01454,4.730323 -0.091,0.09782 -0.85142,-3.01619 -1.1921,-4.730323 l -3.15777,0 c 0.59613,2.518993 1.29938,5.460407 1.96568,8.255872 1.51724,0.06458 3.03502,0.11427 4.55278,0.164864 z m -92.298367,-0.01268 4.08355,0 2.599775,-9.130918 3.284594,9.130918 3.880641,0 0,-15.953744 -3.018276,0 -0.405819,7.520326 -2.384184,-7.520326 -2.232002,0 -2.320775,7.431553 -0.494592,-7.431553 -2.992912,0 0,15.953744 z m 18.76911,0 4.565459,0 2.092502,-8.408054 -3.424094,0 c -0.302071,1.602675 -0.634993,3.175587 -0.913092,4.552777 l -0.01268,0.07609 -0.01268,-0.05073 -0.01268,0 -1.014547,-4.578141 -2.866094,0 1.597911,8.408054 z m 10.120101,0 3.893322,0 0.164864,-7.380826 2.625139,7.304735 3.842595,0.05073 -2.777321,-7.177916 3.069003,-8.750464 -4.108913,0 -2.650503,6.772098 -0.164864,-6.772098 -3.88064,0 -0.01268,15.953744 z m 12.364786,0 8.69974,0 0,-3.614322 -5.110782,0 0,-1.356956 0,-1.356956 4.210372,0 0,-3.005594 -4.210372,0 0,-3.005594 5.440502,0 -0.0888,-1.737411 -0.0888,-1.724729 -4.42596,-0.08877 -4.42596,-0.07609 -0.08877,2.790002 c -0.04769,1.535423 -0.0489,5.121703 0,7.976872 l 0.08877,5.199551 z m 66.47816,0 8.43342,0 0,-3.614322 -5.12346,0 0,-2.713912 4.22305,0 0,-2.98023 c -1.35698,-0.05878 -2.92953,-0.01671 -4.28646,-0.07609 -0.0586,-0.951174 0.0975,-2.003746 0.038,-2.954867 l 5.45319,0 0,-3.614322 -8.73778,0 0,15.953744 z m 18.66765,-6.16337 32.9474,-2.726594 -32.92203,-2.84073 -0.0254,5.567324 z m -134.681043,-0.01268 0,-5.415142 -32.795215,2.713912 32.795215,2.70123 z m 59.896293,-0.202909 3.33532,0 c 0.0121,-0.65909 0.0254,-1.255501 0.0254,-1.255501 1.03012,0.05213 2.46197,-0.45705 2.86609,1.255501 l 3.01828,0 c -0.44866,-2.034243 -1.91496,-2.98023 -1.91496,-2.98023 l 3.20851,-6.594553 -2.04178,0 -2.02909,0 -1.35696,3.233867 -1.35695,3.233867 -0.0761,-3.233867 -0.0888,-3.233867 -1.80082,0 -1.78813,0 0,9.574783 z m 22.42147,-0.152182 3.30996,0 0,-1.597911 c 0.85103,0.01587 2.28048,-0.139297 2.68855,0.583364 0.13941,0.260495 0.22313,0.620728 0.26632,1.014547 l 3.56359,0 c -0.0127,-0.129237 -0.0326,-0.261554 -0.0507,-0.393137 -0.95278,-4.46861 -3.23965,-4.453891 -6.46773,-4.552777 l 0,-2.244684 0,-2.232003 -1.66132,0 -1.64864,0 0,7.976872 0,1.445729 z m -57.144328,-3.386049 8.915327,0 1.496456,-6.036552 -3.60164,0.07609 -0.684819,2.346139 -3.969413,-0.01268 -0.393136,-2.409548 -2.929503,-0.07609 1.166728,6.112643 z m 68.519938,0 c 3.21499,-0.02865 6.20353,0 9.40991,0 0.58864,-2.30927 1.58523,-5.998506 1.58523,-5.998506 l -3.96941,-0.03805 -0.40582,2.409548 -4.08355,0 -0.38045,-2.409548 -3.61433,0 c 0,0 1.0156,4.192537 1.45842,6.036552 z"
         id="path3310"
         inkscape:connector-curvature="0" /></g></g></svg>