<?xml version="1.0" encoding="UTF-8" standalone="no"?>
<!-- Created with Inkscape (http://www.inkscape.org/) -->

<svg
   xmlns:dc="http://purl.org/dc/elements/1.1/"
   xmlns:cc="http://creativecommons.org/ns#"
   xmlns:rdf="http://www.w3.org/1999/02/22-rdf-syntax-ns#"
   xmlns:svg="http://www.w3.org/2000/svg"
   xmlns="http://www.w3.org/2000/svg"
   xmlns:sodipodi="http://sodipodi.sourceforge.net/DTD/sodipodi-0.dtd"
   xmlns:inkscape="http://www.inkscape.org/namespaces/inkscape"
   width="32px"
   height="32px"
   id="svg8705"
   version="1.1"
   inkscape:version="0.48.4 r9939"
   sodipodi:docname="New document 12">
  <defs
     id="defs8707" />
  <sodipodi:namedview
     id="base"
     pagecolor="#ffffff"
     bordercolor="#666666"
     borderopacity="1.0"
     inkscape:pageopacity="0.0"
     inkscape:pageshadow="2"
     inkscape:zoom="5.598901"
     inkscape:cx="-6.1472035"
     inkscape:cy="-5.4774292"
     inkscape:current-layer="layer1"
     showgrid="true"
     inkscape:grid-bbox="true"
     inkscape:document-units="px"
     inkscape:window-width="1920"
     inkscape:window-height="1014"
     inkscape:window-x="0"
     inkscape:window-y="27"
     inkscape:window-maximized="1" />
  <metadata
     id="metadata8710">
    <rdf:RDF>
      <cc:Work
         rdf:about="">
        <dc:format>image/svg+xml</dc:format>
        <dc:type
           rdf:resource="http://purl.org/dc/dcmitype/StillImage" />
        <dc:title></dc:title>
      </cc:Work>
    </rdf:RDF>
  </metadata>
  <g
     id="layer1"
     inkscape:label="Layer 1"
     inkscape:groupmode="layer">
    <path
       sodipodi:type="arc"
       style="fill:#b5590e;fill-opacity:1;stroke:none"
       id="path7784"
       sodipodi:cx="617.25873"
       sodipodi:cy="123.94681"
       sodipodi:rx="38.468594"
       sodipodi:ry="38.468594"
       d="m 655.72732,123.94681 a 38.468594,38.468594 0 1 1 -76.93719,0 38.468594,38.468594 0 1 1 76.93719,0 z"
       transform="matrix(0.41499249,0,0,0.41499249,-240.15774,-35.436994)"
       inkscape:export-filename="/home/zooby/Projects/kmbrand/logo86.png"
       inkscape:export-xdpi="101.12"
       inkscape:export-ydpi="101.12" />
    <path
       inkscape:connector-curvature="0"
       d="m 29.387094,21.473751 0,0.488653 0,0.368307 -0.393204,0 -11.295578,0 0.0016,0 -4.217361,0 -5.7720259,-5.761134 -2.0837814,2.197903 0,3.1472 0,0.391649 -0.3921679,0 -2.2300656,0 -0.3916491,0 0,-0.391649 0,-12.1551297 3.0138826,0 0,4.6074547 4.2432989,-4.4829577 0.1136044,-0.124497 0.169627,0 0.803011,0 2.197904,0 0.883415,0 -4.104795,4.4969617 6.804841,7.074585 0,-1.794324 0.430035,0 5.583724,0 -5.787589,-3.538847 5.777214,-3.502019 -5.967592,0 0,-2.8266177 12.220491,0 0.393206,0 0,0.3667497 0,1.97744 0,0.21372 -0.19816,0.104784 -5.818194,3.671127 5.820788,3.716776 0.195566,0.105824 0,0.211646 0,1.347169"
       style="fill:#ffffff;fill-opacity:1;fill-rule:nonzero;stroke:none"
       id="path3278-0"
       sodipodi:nodetypes="cccccccccccccccccccccccccccccccccccccccccccc" />
  </g>
</svg>
